<mxfile host="Electron" modified="2023-06-20T03:39:44.259Z" agent="Mozilla/5.0 (Macintosh; Intel Mac OS X 10_15_7) AppleWebKit/537.36 (KHTML, like Gecko) draw.io/21.5.0 Chrome/112.0.5615.204 Electron/24.5.1 Safari/537.36" etag="1VHd69SYX1r_slDcMHuP" version="21.5.0" type="device" pages="5">
  <diagram name="main" id="gG4PeZ69uu8XlHcSVO0a">
    <mxGraphModel dx="2283" dy="755" grid="1" gridSize="10" guides="1" tooltips="1" connect="1" arrows="1" fold="1" page="1" pageScale="1" pageWidth="1100" pageHeight="850" math="0" shadow="0">
      <root>
        <mxCell id="ATnsj--CdyivixIsGf24-0" />
        <mxCell id="ATnsj--CdyivixIsGf24-1" value="main" style="" parent="ATnsj--CdyivixIsGf24-0" />
        <mxCell id="ATnsj--CdyivixIsGf24-2" value="filereader" style="rounded=1;whiteSpace=wrap;html=1;sketch=0;container=1;recursiveResize=0;verticalAlign=top;arcSize=6;fontStyle=1;autosize=0;points=[];absoluteArcSize=1;shadow=1;strokeColor=#001DBC;fillColor=#0050ef;fontColor=#ffffff;" parent="ATnsj--CdyivixIsGf24-1" vertex="1">
          <mxGeometry x="-50" y="390" width="134" height="125" as="geometry">
            <mxRectangle x="-98" y="-1230" width="99" height="26" as="alternateBounds" />
          </mxGeometry>
        </mxCell>
        <mxCell id="ATnsj--CdyivixIsGf24-3" value="filename" style="rounded=1;whiteSpace=wrap;html=1;sketch=0;points=[[0,0.5,0,0,0],[1,0.5,0,0,0]];arcSize=50;" parent="ATnsj--CdyivixIsGf24-2" vertex="1">
          <mxGeometry x="-16.75" y="36" width="66" height="25" as="geometry" />
        </mxCell>
        <mxCell id="ATnsj--CdyivixIsGf24-4" value="out" style="rounded=1;whiteSpace=wrap;html=1;sketch=0;points=[[0,0.5,0,0,0],[1,0.5,0,0,0]];fillColor=#1ba1e2;fontColor=#ffffff;strokeColor=#006EAF;arcSize=50;" parent="ATnsj--CdyivixIsGf24-2" vertex="1">
          <mxGeometry x="84.75" y="36" width="66" height="25" as="geometry" />
        </mxCell>
        <mxCell id="ATnsj--CdyivixIsGf24-5" value="error" style="rounded=1;whiteSpace=wrap;html=1;sketch=0;points=[[0,0.5,0,0,0],[1,0.5,0,0,0]];fillColor=#1ba1e2;fontColor=#ffffff;strokeColor=#006EAF;arcSize=50;" parent="ATnsj--CdyivixIsGf24-2" vertex="1">
          <mxGeometry x="84.75" y="82.5" width="66" height="25" as="geometry" />
        </mxCell>
        <mxCell id="ATnsj--CdyivixIsGf24-6" value="stdout" style="rhombus;whiteSpace=wrap;html=1;rounded=1;fillColor=#0050ef;fontColor=#ffffff;strokeColor=#001DBC;fontStyle=1;glass=0;sketch=0;fontSize=12;points=[[0,0.5,0,0,0],[0.5,0,0,0,0],[0.5,1,0,0,0],[1,0.5,0,0,0]];shadow=1;opacity=20;" parent="ATnsj--CdyivixIsGf24-1" vertex="1">
          <mxGeometry x="450" y="529" width="80" height="80" as="geometry" />
        </mxCell>
        <mxCell id="ATnsj--CdyivixIsGf24-7" value="filereader" style="rounded=1;whiteSpace=wrap;html=1;sketch=0;container=1;recursiveResize=0;verticalAlign=top;arcSize=6;fontStyle=1;autosize=0;points=[];absoluteArcSize=1;shadow=1;strokeColor=#001DBC;fillColor=#0050ef;fontColor=#ffffff;" parent="ATnsj--CdyivixIsGf24-1" vertex="1">
          <mxGeometry x="-310" y="470" width="134" height="125" as="geometry">
            <mxRectangle x="-98" y="-1230" width="99" height="26" as="alternateBounds" />
          </mxGeometry>
        </mxCell>
        <mxCell id="ATnsj--CdyivixIsGf24-9" value="out" style="rounded=1;whiteSpace=wrap;html=1;sketch=0;points=[[0,0.5,0,0,0],[1,0.5,0,0,0]];fillColor=#1ba1e2;fontColor=#ffffff;strokeColor=#006EAF;arcSize=50;" parent="ATnsj--CdyivixIsGf24-7" vertex="1">
          <mxGeometry x="84.75" y="36" width="66" height="25" as="geometry" />
        </mxCell>
        <mxCell id="ATnsj--CdyivixIsGf24-10" value="error" style="rounded=1;whiteSpace=wrap;html=1;sketch=0;points=[[0,0.5,0,0,0],[1,0.5,0,0,0]];fillColor=#1ba1e2;fontColor=#ffffff;strokeColor=#006EAF;arcSize=50;" parent="ATnsj--CdyivixIsGf24-7" vertex="1">
          <mxGeometry x="84.75" y="82.5" width="66" height="25" as="geometry" />
        </mxCell>
        <mxCell id="ATnsj--CdyivixIsGf24-11" value="filename" style="rounded=1;whiteSpace=wrap;html=1;sketch=0;points=[[0,0.5,0,0,0],[1,0.5,0,0,0]];arcSize=50;" parent="ATnsj--CdyivixIsGf24-7" vertex="1">
          <mxGeometry x="-26" y="36" width="66" height="25" as="geometry" />
        </mxCell>
        <mxCell id="ATnsj--CdyivixIsGf24-12" value="filereader" style="rounded=1;whiteSpace=wrap;html=1;sketch=0;container=1;recursiveResize=0;verticalAlign=top;arcSize=6;fontStyle=1;autosize=0;points=[];absoluteArcSize=1;shadow=1;strokeColor=#001DBC;fillColor=#0050ef;fontColor=#ffffff;" parent="ATnsj--CdyivixIsGf24-1" vertex="1">
          <mxGeometry x="-120" y="77.5" width="134" height="125" as="geometry">
            <mxRectangle x="-98" y="-1230" width="99" height="26" as="alternateBounds" />
          </mxGeometry>
        </mxCell>
        <mxCell id="ATnsj--CdyivixIsGf24-13" value="filename" style="rounded=1;whiteSpace=wrap;html=1;sketch=0;points=[[0,0.5,0,0,0],[1,0.5,0,0,0]];arcSize=50;" parent="ATnsj--CdyivixIsGf24-12" vertex="1">
          <mxGeometry x="-16.75" y="36" width="66" height="25" as="geometry" />
        </mxCell>
        <mxCell id="ATnsj--CdyivixIsGf24-14" value="out" style="rounded=1;whiteSpace=wrap;html=1;sketch=0;points=[[0,0.5,0,0,0],[1,0.5,0,0,0]];fillColor=#1ba1e2;fontColor=#ffffff;strokeColor=#006EAF;arcSize=50;" parent="ATnsj--CdyivixIsGf24-12" vertex="1">
          <mxGeometry x="84.75" y="36" width="66" height="25" as="geometry" />
        </mxCell>
        <mxCell id="ATnsj--CdyivixIsGf24-15" value="error" style="rounded=1;whiteSpace=wrap;html=1;sketch=0;points=[[0,0.5,0,0,0],[1,0.5,0,0,0]];fillColor=#1ba1e2;fontColor=#ffffff;strokeColor=#006EAF;arcSize=50;" parent="ATnsj--CdyivixIsGf24-12" vertex="1">
          <mxGeometry x="84.75" y="82.5" width="66" height="25" as="geometry" />
        </mxCell>
        <mxCell id="ATnsj--CdyivixIsGf24-16" value="stderr" style="rhombus;whiteSpace=wrap;html=1;rounded=1;fillColor=#0050ef;fontColor=#ffffff;strokeColor=#001DBC;fontStyle=1;glass=0;sketch=0;fontSize=12;points=[[0,0.5,0,0,0],[0.5,0,0,0,0],[0.5,1,0,0,0],[1,0.5,0,0,0]];shadow=1;opacity=20;" parent="ATnsj--CdyivixIsGf24-1" vertex="1">
          <mxGeometry x="453.75" y="620" width="80" height="80" as="geometry" />
        </mxCell>
        <mxCell id="ATnsj--CdyivixIsGf24-17" value="filereader" style="rounded=1;whiteSpace=wrap;html=1;sketch=0;container=1;recursiveResize=0;verticalAlign=top;arcSize=6;fontStyle=1;autosize=0;points=[];absoluteArcSize=1;shadow=1;strokeColor=#001DBC;fillColor=#0050ef;fontColor=#ffffff;" parent="ATnsj--CdyivixIsGf24-1" vertex="1">
          <mxGeometry x="-120" y="240" width="134" height="125" as="geometry">
            <mxRectangle x="-98" y="-1230" width="99" height="26" as="alternateBounds" />
          </mxGeometry>
        </mxCell>
        <mxCell id="ATnsj--CdyivixIsGf24-18" value="filename" style="rounded=1;whiteSpace=wrap;html=1;sketch=0;points=[[0,0.5,0,0,0],[1,0.5,0,0,0]];arcSize=50;" parent="ATnsj--CdyivixIsGf24-17" vertex="1">
          <mxGeometry x="-20" y="55" width="66" height="25" as="geometry" />
        </mxCell>
        <mxCell id="ATnsj--CdyivixIsGf24-19" value="out" style="rounded=1;whiteSpace=wrap;html=1;sketch=0;points=[[0,0.5,0,0,0],[1,0.5,0,0,0]];fillColor=#1ba1e2;fontColor=#ffffff;strokeColor=#006EAF;arcSize=50;" parent="ATnsj--CdyivixIsGf24-17" vertex="1">
          <mxGeometry x="84.75" y="36" width="66" height="25" as="geometry" />
        </mxCell>
        <mxCell id="ATnsj--CdyivixIsGf24-20" value="error" style="rounded=1;whiteSpace=wrap;html=1;sketch=0;points=[[0,0.5,0,0,0],[1,0.5,0,0,0]];fillColor=#1ba1e2;fontColor=#ffffff;strokeColor=#006EAF;arcSize=50;" parent="ATnsj--CdyivixIsGf24-17" vertex="1">
          <mxGeometry x="84.75" y="82.5" width="66" height="25" as="geometry" />
        </mxCell>
        <mxCell id="ATnsj--CdyivixIsGf24-22" style="edgeStyle=orthogonalEdgeStyle;rounded=1;orthogonalLoop=1;jettySize=auto;html=1;exitX=1;exitY=0.5;exitDx=0;exitDy=0;exitPerimeter=0;entryX=0;entryY=0.5;entryDx=0;entryDy=0;entryPerimeter=0;strokeWidth=2;fillColor=#d5e8d4;strokeColor=#82b366;" parent="ATnsj--CdyivixIsGf24-1" source="ATnsj--CdyivixIsGf24-23" target="ATnsj--CdyivixIsGf24-67" edge="1">
          <mxGeometry relative="1" as="geometry" />
        </mxCell>
        <mxCell id="ATnsj--CdyivixIsGf24-23" value="obsidian_file" style="rhombus;whiteSpace=wrap;html=1;rounded=1;fontStyle=1;glass=0;sketch=0;fontSize=12;points=[[0,0.5,0,0,0],[0.5,0,0,0,0],[0.5,1,0,0,0],[1,0.5,0,0,0]];shadow=1;" parent="ATnsj--CdyivixIsGf24-1" vertex="1">
          <mxGeometry x="-1080" y="360" width="80" height="80" as="geometry" />
        </mxCell>
        <mxCell id="ATnsj--CdyivixIsGf24-24" style="edgeStyle=orthogonalEdgeStyle;rounded=1;orthogonalLoop=1;jettySize=auto;html=1;exitX=1;exitY=0.5;exitDx=0;exitDy=0;exitPerimeter=0;entryX=0;entryY=0.5;entryDx=0;entryDy=0;entryPerimeter=0;strokeColor=#000000;strokeWidth=2;" parent="ATnsj--CdyivixIsGf24-1" source="ATnsj--CdyivixIsGf24-60" target="ATnsj--CdyivixIsGf24-54" edge="1">
          <mxGeometry relative="1" as="geometry">
            <Array as="points">
              <mxPoint x="-590" y="206" />
              <mxPoint x="-590" y="40" />
              <mxPoint x="600" y="40" />
              <mxPoint x="600" y="119" />
            </Array>
          </mxGeometry>
        </mxCell>
        <mxCell id="4ABSR35H-EBo3KDg-Gq4-0" style="edgeStyle=orthogonalEdgeStyle;rounded=1;orthogonalLoop=1;jettySize=auto;html=1;exitX=1;exitY=0.5;exitDx=0;exitDy=0;exitPerimeter=0;entryX=0;entryY=0.5;entryDx=0;entryDy=0;entryPerimeter=0;strokeWidth=2;fillColor=#d5e8d4;strokeColor=#82b366;" parent="ATnsj--CdyivixIsGf24-1" source="ATnsj--CdyivixIsGf24-26" target="ATnsj--CdyivixIsGf24-59" edge="1">
          <mxGeometry relative="1" as="geometry">
            <Array as="points">
              <mxPoint x="-893" y="179" />
              <mxPoint x="-893" y="206" />
            </Array>
          </mxGeometry>
        </mxCell>
        <mxCell id="ATnsj--CdyivixIsGf24-26" value="output_file" style="rhombus;whiteSpace=wrap;html=1;rounded=1;fontStyle=1;glass=0;sketch=0;fontSize=12;points=[[0,0.5,0,0,0],[0.5,0,0,0,0],[0.5,1,0,0,0],[1,0.5,0,0,0]];shadow=1;" parent="ATnsj--CdyivixIsGf24-1" vertex="1">
          <mxGeometry x="-1070" y="138.5" width="80" height="80" as="geometry" />
        </mxCell>
        <mxCell id="ATnsj--CdyivixIsGf24-28" style="edgeStyle=orthogonalEdgeStyle;rounded=0;orthogonalLoop=1;jettySize=auto;html=1;entryX=0;entryY=0.5;entryDx=0;entryDy=0;entryPerimeter=0;strokeWidth=2;fillColor=#d5e8d4;strokeColor=#82b366;" parent="ATnsj--CdyivixIsGf24-1" source="ATnsj--CdyivixIsGf24-29" target="ATnsj--CdyivixIsGf24-61" edge="1">
          <mxGeometry relative="1" as="geometry" />
        </mxCell>
        <mxCell id="ATnsj--CdyivixIsGf24-29" value="front1" style="rhombus;whiteSpace=wrap;html=1;rounded=1;fontStyle=1;glass=0;sketch=0;fontSize=12;points=[[0,0.5,0,0,0],[0.5,0,0,0,0],[0.5,1,0,0,0],[1,0.5,0,0,0]];shadow=1;strokeWidth=2;" parent="ATnsj--CdyivixIsGf24-1" vertex="1">
          <mxGeometry x="-1000" y="210" width="80" height="80" as="geometry" />
        </mxCell>
        <mxCell id="ATnsj--CdyivixIsGf24-30" style="edgeStyle=orthogonalEdgeStyle;rounded=1;orthogonalLoop=1;jettySize=auto;html=1;entryX=0;entryY=0.5;entryDx=0;entryDy=0;entryPerimeter=0;strokeWidth=2;fillColor=#d5e8d4;strokeColor=#82b366;" parent="ATnsj--CdyivixIsGf24-1" source="ATnsj--CdyivixIsGf24-31" target="ATnsj--CdyivixIsGf24-68" edge="1">
          <mxGeometry relative="1" as="geometry" />
        </mxCell>
        <mxCell id="ATnsj--CdyivixIsGf24-31" value="back" style="rhombus;whiteSpace=wrap;html=1;rounded=1;fontStyle=1;glass=0;sketch=0;fontSize=12;points=[[0,0.5,0,0,0],[0.5,0,0,0,0],[0.5,1,0,0,0],[1,0.5,0,0,0]];shadow=1;" parent="ATnsj--CdyivixIsGf24-1" vertex="1">
          <mxGeometry x="-1010" y="412.5" width="80" height="80" as="geometry" />
        </mxCell>
        <mxCell id="ATnsj--CdyivixIsGf24-32" style="edgeStyle=orthogonalEdgeStyle;rounded=1;orthogonalLoop=1;jettySize=auto;html=1;strokeWidth=2;fillColor=#d5e8d4;strokeColor=#82b366;" parent="ATnsj--CdyivixIsGf24-1" source="ATnsj--CdyivixIsGf24-33" target="ATnsj--CdyivixIsGf24-69" edge="1">
          <mxGeometry relative="1" as="geometry" />
        </mxCell>
        <mxCell id="ATnsj--CdyivixIsGf24-33" value="close" style="rhombus;whiteSpace=wrap;html=1;rounded=1;fontStyle=1;glass=0;sketch=0;fontSize=12;points=[[0,0.5,0,0,0],[0.5,0,0,0,0],[0.5,1,0,0,0],[1,0.5,0,0,0]];shadow=1;" parent="ATnsj--CdyivixIsGf24-1" vertex="1">
          <mxGeometry x="-1070" y="460" width="80" height="80" as="geometry" />
        </mxCell>
        <mxCell id="ATnsj--CdyivixIsGf24-34" style="edgeStyle=orthogonalEdgeStyle;rounded=1;orthogonalLoop=1;jettySize=auto;html=1;entryX=0;entryY=0.5;entryDx=0;entryDy=0;entryPerimeter=0;strokeWidth=2;fillColor=#d5e8d4;strokeColor=#82b366;" parent="ATnsj--CdyivixIsGf24-1" source="ATnsj--CdyivixIsGf24-35" target="ATnsj--CdyivixIsGf24-65" edge="1">
          <mxGeometry relative="1" as="geometry" />
        </mxCell>
        <mxCell id="ATnsj--CdyivixIsGf24-35" value="front2" style="rhombus;whiteSpace=wrap;html=1;rounded=1;fontStyle=1;glass=0;sketch=0;fontSize=12;points=[[0,0.5,0,0,0],[0.5,0,0,0,0],[0.5,1,0,0,0],[1,0.5,0,0,0]];shadow=1;strokeWidth=2;" parent="ATnsj--CdyivixIsGf24-1" vertex="1">
          <mxGeometry x="-1000" y="310" width="80" height="80" as="geometry" />
        </mxCell>
        <mxCell id="ATnsj--CdyivixIsGf24-37" style="edgeStyle=orthogonalEdgeStyle;rounded=0;orthogonalLoop=1;jettySize=auto;html=1;strokeWidth=2;fillColor=#d5e8d4;strokeColor=#82b366;" parent="ATnsj--CdyivixIsGf24-1" source="ATnsj--CdyivixIsGf24-38" target="ATnsj--CdyivixIsGf24-64" edge="1">
          <mxGeometry relative="1" as="geometry" />
        </mxCell>
        <mxCell id="ATnsj--CdyivixIsGf24-38" value="title" style="rhombus;whiteSpace=wrap;html=1;rounded=1;fontStyle=1;glass=0;sketch=0;fontSize=12;points=[[0,0.5,0,0,0],[0.5,0,0,0,0],[0.5,1,0,0,0],[1,0.5,0,0,0]];shadow=1;" parent="ATnsj--CdyivixIsGf24-1" vertex="1">
          <mxGeometry x="-1070" y="260" width="80" height="80" as="geometry" />
        </mxCell>
        <mxCell id="ATnsj--CdyivixIsGf24-40" style="edgeStyle=orthogonalEdgeStyle;rounded=1;orthogonalLoop=1;jettySize=auto;html=1;exitX=1;exitY=0.5;exitDx=0;exitDy=0;exitPerimeter=0;entryX=0;entryY=0.5;entryDx=0;entryDy=0;entryPerimeter=0;strokeColor=#666600;strokeWidth=2;" parent="ATnsj--CdyivixIsGf24-1" source="ATnsj--CdyivixIsGf24-73" target="ATnsj--CdyivixIsGf24-11" edge="1">
          <mxGeometry relative="1" as="geometry">
            <mxPoint x="-279.25" y="485.5" as="sourcePoint" />
            <Array as="points">
              <mxPoint x="-520" y="433" />
              <mxPoint x="-520" y="520" />
              <mxPoint x="-360" y="520" />
            </Array>
          </mxGeometry>
        </mxCell>
        <mxCell id="ATnsj--CdyivixIsGf24-41" style="edgeStyle=orthogonalEdgeStyle;rounded=1;orthogonalLoop=1;jettySize=auto;html=1;exitX=1;exitY=0.5;exitDx=0;exitDy=0;exitPerimeter=0;entryX=0;entryY=0.5;entryDx=0;entryDy=0;entryPerimeter=0;strokeWidth=2;" parent="ATnsj--CdyivixIsGf24-1" source="ATnsj--CdyivixIsGf24-14" target="ATnsj--CdyivixIsGf24-52" edge="1">
          <mxGeometry relative="1" as="geometry" />
        </mxCell>
        <mxCell id="ATnsj--CdyivixIsGf24-42" style="edgeStyle=orthogonalEdgeStyle;rounded=1;orthogonalLoop=1;jettySize=auto;html=1;exitX=1;exitY=0.5;exitDx=0;exitDy=0;exitPerimeter=0;entryX=0;entryY=0.5;entryDx=0;entryDy=0;entryPerimeter=0;" parent="ATnsj--CdyivixIsGf24-1" source="ATnsj--CdyivixIsGf24-19" target="ATnsj--CdyivixIsGf24-52" edge="1">
          <mxGeometry relative="1" as="geometry">
            <mxPoint x="430" y="150" as="targetPoint" />
          </mxGeometry>
        </mxCell>
        <mxCell id="ATnsj--CdyivixIsGf24-43" style="edgeStyle=orthogonalEdgeStyle;rounded=1;orthogonalLoop=1;jettySize=auto;html=1;exitX=1;exitY=0.5;exitDx=0;exitDy=0;exitPerimeter=0;entryX=0;entryY=0.5;entryDx=0;entryDy=0;entryPerimeter=0;strokeWidth=2;" parent="ATnsj--CdyivixIsGf24-1" source="ATnsj--CdyivixIsGf24-4" target="ATnsj--CdyivixIsGf24-52" edge="1">
          <mxGeometry relative="1" as="geometry">
            <Array as="points">
              <mxPoint x="220" y="439" />
              <mxPoint x="220" y="153" />
            </Array>
          </mxGeometry>
        </mxCell>
        <mxCell id="ATnsj--CdyivixIsGf24-48" value="buffer" style="rounded=1;whiteSpace=wrap;html=1;sketch=0;container=1;recursiveResize=0;verticalAlign=top;arcSize=6;fontStyle=1;autosize=0;points=[];absoluteArcSize=1;shadow=1;strokeColor=#001DBC;fillColor=#0050ef;fontColor=#ffffff;" parent="ATnsj--CdyivixIsGf24-1" vertex="1">
          <mxGeometry x="426.75" y="70" width="134" height="154" as="geometry">
            <mxRectangle x="-98" y="-1230" width="99" height="26" as="alternateBounds" />
          </mxGeometry>
        </mxCell>
        <mxCell id="ATnsj--CdyivixIsGf24-49" value="open" style="rounded=1;whiteSpace=wrap;html=1;sketch=0;points=[[0,0.5,0,0,0],[1,0.5,0,0,0]];arcSize=50;" parent="ATnsj--CdyivixIsGf24-48" vertex="1">
          <mxGeometry x="-16.75" y="36" width="66" height="25" as="geometry" />
        </mxCell>
        <mxCell id="ATnsj--CdyivixIsGf24-50" value="output" style="rounded=1;whiteSpace=wrap;html=1;sketch=0;points=[[0,0.5,0,0,0],[1,0.5,0,0,0]];fillColor=#1ba1e2;fontColor=#ffffff;strokeColor=#006EAF;arcSize=50;" parent="ATnsj--CdyivixIsGf24-48" vertex="1">
          <mxGeometry x="84.75" y="82.5" width="66" height="25" as="geometry" />
        </mxCell>
        <mxCell id="ATnsj--CdyivixIsGf24-51" value="close" style="rounded=1;whiteSpace=wrap;html=1;sketch=0;points=[[0,0.5,0,0,0],[1,0.5,0,0,0]];arcSize=50;" parent="ATnsj--CdyivixIsGf24-48" vertex="1">
          <mxGeometry x="-16.75" y="107.5" width="66" height="25" as="geometry" />
        </mxCell>
        <mxCell id="ATnsj--CdyivixIsGf24-52" value="append" style="rounded=1;whiteSpace=wrap;html=1;sketch=0;points=[[0,0.5,0,0,0],[1,0.5,0,0,0]];arcSize=50;" parent="ATnsj--CdyivixIsGf24-48" vertex="1">
          <mxGeometry x="-16.75" y="70" width="66" height="25" as="geometry" />
        </mxCell>
        <mxCell id="ATnsj--CdyivixIsGf24-53" value="filewriter" style="rounded=1;whiteSpace=wrap;html=1;sketch=0;container=1;recursiveResize=0;verticalAlign=top;arcSize=6;fontStyle=1;autosize=0;points=[];absoluteArcSize=1;shadow=1;strokeColor=#001DBC;fillColor=#0050ef;fontColor=#ffffff;" parent="ATnsj--CdyivixIsGf24-1" vertex="1">
          <mxGeometry x="672.75" y="70" width="134" height="125" as="geometry">
            <mxRectangle x="-98" y="-1230" width="99" height="26" as="alternateBounds" />
          </mxGeometry>
        </mxCell>
        <mxCell id="ATnsj--CdyivixIsGf24-54" value="filename" style="rounded=1;whiteSpace=wrap;html=1;sketch=0;points=[[0,0.5,0,0,0],[1,0.5,0,0,0]];arcSize=50;" parent="ATnsj--CdyivixIsGf24-53" vertex="1">
          <mxGeometry x="-16.75" y="36" width="66" height="25" as="geometry" />
        </mxCell>
        <mxCell id="ATnsj--CdyivixIsGf24-55" value="error" style="rounded=1;whiteSpace=wrap;html=1;sketch=0;points=[[0,0.5,0,0,0],[1,0.5,0,0,0]];fillColor=#1ba1e2;fontColor=#ffffff;strokeColor=#006EAF;arcSize=50;" parent="ATnsj--CdyivixIsGf24-53" vertex="1">
          <mxGeometry x="84.75" y="82.5" width="66" height="25" as="geometry" />
        </mxCell>
        <mxCell id="ATnsj--CdyivixIsGf24-56" value="data" style="rounded=1;whiteSpace=wrap;html=1;sketch=0;points=[[0,0.5,0,0,0],[1,0.5,0,0,0]];arcSize=50;" parent="ATnsj--CdyivixIsGf24-53" vertex="1">
          <mxGeometry x="-16.75" y="82.5" width="66" height="25" as="geometry" />
        </mxCell>
        <mxCell id="ATnsj--CdyivixIsGf24-58" value="deracer7" style="rounded=1;whiteSpace=wrap;html=1;sketch=0;container=1;recursiveResize=0;verticalAlign=top;arcSize=6;fontStyle=1;autosize=0;points=[];absoluteArcSize=1;shadow=1;strokeColor=#001DBC;fillColor=#0050ef;fontColor=#ffffff;" parent="ATnsj--CdyivixIsGf24-1" vertex="1">
          <mxGeometry x="-780" y="157.5" width="150.75" height="375" as="geometry">
            <mxRectangle x="-98" y="-1230" width="99" height="26" as="alternateBounds" />
          </mxGeometry>
        </mxCell>
        <mxCell id="ATnsj--CdyivixIsGf24-59" value="input1" style="rounded=1;whiteSpace=wrap;html=1;sketch=0;points=[[0,0.5,0,0,0],[1,0.5,0,0,0]];arcSize=50;" parent="ATnsj--CdyivixIsGf24-58" vertex="1">
          <mxGeometry x="-16.75" y="36" width="66" height="25" as="geometry" />
        </mxCell>
        <mxCell id="ATnsj--CdyivixIsGf24-60" value="output_file" style="rounded=1;whiteSpace=wrap;html=1;sketch=0;points=[[0,0.5,0,0,0],[1,0.5,0,0,0]];fillColor=#1ba1e2;fontColor=#ffffff;strokeColor=#006EAF;arcSize=50;" parent="ATnsj--CdyivixIsGf24-58" vertex="1">
          <mxGeometry x="84.75" y="36" width="66" height="25" as="geometry" />
        </mxCell>
        <mxCell id="ATnsj--CdyivixIsGf24-61" value="input2" style="rounded=1;whiteSpace=wrap;html=1;sketch=0;points=[[0,0.5,0,0,0],[1,0.5,0,0,0]];arcSize=50;" parent="ATnsj--CdyivixIsGf24-58" vertex="1">
          <mxGeometry x="-16.75" y="82.5" width="66" height="25" as="geometry" />
        </mxCell>
        <mxCell id="ATnsj--CdyivixIsGf24-62" value="front1" style="rounded=1;whiteSpace=wrap;html=1;sketch=0;points=[[0,0.5,0,0,0],[1,0.5,0,0,0]];fillColor=#1ba1e2;fontColor=#ffffff;strokeColor=#006EAF;arcSize=50;" parent="ATnsj--CdyivixIsGf24-58" vertex="1">
          <mxGeometry x="84.75" y="82.5" width="66" height="25" as="geometry" />
        </mxCell>
        <mxCell id="ATnsj--CdyivixIsGf24-63" value="title" style="rounded=1;whiteSpace=wrap;html=1;sketch=0;points=[[0,0.5,0,0,0],[1,0.5,0,0,0]];fillColor=#1ba1e2;fontColor=#ffffff;strokeColor=#006EAF;arcSize=50;" parent="ATnsj--CdyivixIsGf24-58" vertex="1">
          <mxGeometry x="84.75" y="129" width="66" height="25" as="geometry" />
        </mxCell>
        <mxCell id="ATnsj--CdyivixIsGf24-64" value="input3" style="rounded=1;whiteSpace=wrap;html=1;sketch=0;points=[[0,0.5,0,0,0],[1,0.5,0,0,0]];arcSize=50;" parent="ATnsj--CdyivixIsGf24-58" vertex="1">
          <mxGeometry x="-16.75" y="129" width="66" height="25" as="geometry" />
        </mxCell>
        <mxCell id="ATnsj--CdyivixIsGf24-65" value="input4" style="rounded=1;whiteSpace=wrap;html=1;sketch=0;points=[[0,0.5,0,0,0],[1,0.5,0,0,0]];arcSize=50;" parent="ATnsj--CdyivixIsGf24-58" vertex="1">
          <mxGeometry x="-16.75" y="170" width="66" height="25" as="geometry" />
        </mxCell>
        <mxCell id="ATnsj--CdyivixIsGf24-66" value="front2" style="rounded=1;whiteSpace=wrap;html=1;sketch=0;points=[[0,0.5,0,0,0],[1,0.5,0,0,0]];fillColor=#1ba1e2;fontColor=#ffffff;strokeColor=#006EAF;arcSize=50;" parent="ATnsj--CdyivixIsGf24-58" vertex="1">
          <mxGeometry x="84.75" y="170" width="66" height="25" as="geometry" />
        </mxCell>
        <mxCell id="ATnsj--CdyivixIsGf24-67" value="input5" style="rounded=1;whiteSpace=wrap;html=1;sketch=0;points=[[0,0.5,0,0,0],[1,0.5,0,0,0]];arcSize=50;" parent="ATnsj--CdyivixIsGf24-58" vertex="1">
          <mxGeometry x="-16.75" y="216.5" width="66" height="25" as="geometry" />
        </mxCell>
        <mxCell id="ATnsj--CdyivixIsGf24-68" value="input6" style="rounded=1;whiteSpace=wrap;html=1;sketch=0;points=[[0,0.5,0,0,0],[1,0.5,0,0,0]];arcSize=50;" parent="ATnsj--CdyivixIsGf24-58" vertex="1">
          <mxGeometry x="-16.75" y="263" width="66" height="25" as="geometry" />
        </mxCell>
        <mxCell id="ATnsj--CdyivixIsGf24-69" value="input7" style="rounded=1;whiteSpace=wrap;html=1;sketch=0;points=[[0,0.5,0,0,0],[1,0.5,0,0,0]];arcSize=50;" parent="ATnsj--CdyivixIsGf24-58" vertex="1">
          <mxGeometry x="-16.75" y="310" width="66" height="25" as="geometry" />
        </mxCell>
        <mxCell id="ATnsj--CdyivixIsGf24-70" value="close" style="rounded=1;whiteSpace=wrap;html=1;sketch=0;points=[[0,0.5,0,0,0],[1,0.5,0,0,0]];fillColor=#1ba1e2;fontColor=#ffffff;strokeColor=#006EAF;arcSize=50;" parent="ATnsj--CdyivixIsGf24-58" vertex="1">
          <mxGeometry x="84.75" y="310" width="66" height="25" as="geometry" />
        </mxCell>
        <mxCell id="ATnsj--CdyivixIsGf24-71" value="error" style="rounded=1;whiteSpace=wrap;html=1;sketch=0;points=[[0,0.5,0,0,0],[1,0.5,0,0,0]];fillColor=#1ba1e2;fontColor=#ffffff;strokeColor=#006EAF;arcSize=50;" parent="ATnsj--CdyivixIsGf24-58" vertex="1">
          <mxGeometry x="84.75" y="350" width="66" height="25" as="geometry" />
        </mxCell>
        <mxCell id="ATnsj--CdyivixIsGf24-72" value="obsidian_file" style="rounded=1;whiteSpace=wrap;html=1;sketch=0;points=[[0,0.5,0,0,0],[1,0.5,0,0,0]];fillColor=#1ba1e2;fontColor=#ffffff;strokeColor=#006EAF;arcSize=50;" parent="ATnsj--CdyivixIsGf24-58" vertex="1">
          <mxGeometry x="80" y="212.5" width="66" height="25" as="geometry" />
        </mxCell>
        <mxCell id="ATnsj--CdyivixIsGf24-73" value="back" style="rounded=1;whiteSpace=wrap;html=1;sketch=0;points=[[0,0.5,0,0,0],[1,0.5,0,0,0]];fillColor=#1ba1e2;fontColor=#ffffff;strokeColor=#006EAF;arcSize=50;" parent="ATnsj--CdyivixIsGf24-58" vertex="1">
          <mxGeometry x="80" y="263" width="66" height="25" as="geometry" />
        </mxCell>
        <mxCell id="ATnsj--CdyivixIsGf24-77" style="edgeStyle=orthogonalEdgeStyle;rounded=1;orthogonalLoop=1;jettySize=auto;html=1;entryX=0;entryY=0.5;entryDx=0;entryDy=0;entryPerimeter=0;strokeWidth=2;" parent="ATnsj--CdyivixIsGf24-1" source="ATnsj--CdyivixIsGf24-60" target="ATnsj--CdyivixIsGf24-49" edge="1">
          <mxGeometry relative="1" as="geometry">
            <Array as="points">
              <mxPoint x="-590" y="206" />
              <mxPoint x="-590" y="40" />
              <mxPoint x="370" y="40" />
              <mxPoint x="370" y="119" />
            </Array>
          </mxGeometry>
        </mxCell>
        <mxCell id="TyOGa38rmk0XdEnrMmDp-2" style="edgeStyle=orthogonalEdgeStyle;rounded=0;orthogonalLoop=1;jettySize=auto;html=1;exitX=1;exitY=0.5;exitDx=0;exitDy=0;exitPerimeter=0;entryX=0;entryY=0.5;entryDx=0;entryDy=0;entryPerimeter=0;strokeWidth=2;" parent="ATnsj--CdyivixIsGf24-1" source="ATnsj--CdyivixIsGf24-50" target="ATnsj--CdyivixIsGf24-56" edge="1">
          <mxGeometry relative="1" as="geometry">
            <Array as="points">
              <mxPoint x="610" y="165" />
              <mxPoint x="610" y="165" />
            </Array>
          </mxGeometry>
        </mxCell>
        <mxCell id="4ABSR35H-EBo3KDg-Gq4-2" style="edgeStyle=orthogonalEdgeStyle;rounded=1;orthogonalLoop=1;jettySize=auto;html=1;exitX=1;exitY=0.5;exitDx=0;exitDy=0;exitPerimeter=0;entryX=0;entryY=0.5;entryDx=0;entryDy=0;entryPerimeter=0;strokeWidth=2;" parent="ATnsj--CdyivixIsGf24-1" source="ATnsj--CdyivixIsGf24-9" target="ATnsj--CdyivixIsGf24-52" edge="1">
          <mxGeometry relative="1" as="geometry">
            <Array as="points">
              <mxPoint x="-120" y="519" />
              <mxPoint x="-120" y="540" />
              <mxPoint x="220" y="540" />
              <mxPoint x="220" y="153" />
            </Array>
          </mxGeometry>
        </mxCell>
        <mxCell id="BPH4HM60MD8MpAqgpbWU-0" value="" style="shape=orEllipse;perimeter=ellipsePerimeter;whiteSpace=wrap;html=1;backgroundOutline=1;opacity=20;" vertex="1" parent="ATnsj--CdyivixIsGf24-1">
          <mxGeometry x="-1080" y="720" width="80" height="80" as="geometry" />
        </mxCell>
        <mxCell id="G-KNFBtjJWiCvbAA5O8N-0" value="noop" style="rounded=1;whiteSpace=wrap;html=1;sketch=0;container=1;recursiveResize=0;verticalAlign=top;arcSize=6;fontStyle=1;autosize=0;points=[];absoluteArcSize=1;shadow=1;strokeColor=#001DBC;fillColor=#0050ef;fontColor=#ffffff;" vertex="1" parent="ATnsj--CdyivixIsGf24-1">
          <mxGeometry x="-200" y="760" width="134" height="87" as="geometry">
            <mxRectangle x="-98" y="-1230" width="99" height="26" as="alternateBounds" />
          </mxGeometry>
        </mxCell>
        <mxCell id="G-KNFBtjJWiCvbAA5O8N-1" value="input" style="rounded=1;whiteSpace=wrap;html=1;sketch=0;points=[[0,0.5,0,0,0],[1,0.5,0,0,0]];arcSize=50;" vertex="1" parent="G-KNFBtjJWiCvbAA5O8N-0">
          <mxGeometry x="-16.75" y="36" width="66" height="25" as="geometry" />
        </mxCell>
        <mxCell id="G-KNFBtjJWiCvbAA5O8N-2" value="output" style="rounded=1;whiteSpace=wrap;html=1;sketch=0;points=[[0,0.5,0,0,0],[1,0.5,0,0,0]];fillColor=#1ba1e2;fontColor=#ffffff;strokeColor=#006EAF;arcSize=50;" vertex="1" parent="G-KNFBtjJWiCvbAA5O8N-0">
          <mxGeometry x="84.75" y="36" width="66" height="25" as="geometry" />
        </mxCell>
        <mxCell id="G-KNFBtjJWiCvbAA5O8N-4" style="edgeStyle=orthogonalEdgeStyle;rounded=1;orthogonalLoop=1;jettySize=auto;html=1;entryX=0;entryY=0.5;entryDx=0;entryDy=0;entryPerimeter=0;" edge="1" parent="ATnsj--CdyivixIsGf24-1" source="ATnsj--CdyivixIsGf24-70" target="ATnsj--CdyivixIsGf24-51">
          <mxGeometry relative="1" as="geometry">
            <Array as="points">
              <mxPoint x="-550" y="480" />
              <mxPoint x="-550" y="728" />
              <mxPoint x="310" y="728" />
              <mxPoint x="310" y="190" />
            </Array>
          </mxGeometry>
        </mxCell>
        <mxCell id="-tNJMO3MVUs6l3NSCyhQ-0" value="sink" style="rounded=1;whiteSpace=wrap;html=1;sketch=0;container=1;recursiveResize=0;verticalAlign=top;arcSize=6;fontStyle=1;autosize=0;points=[];absoluteArcSize=1;shadow=1;strokeColor=#001DBC;fillColor=#0050ef;fontColor=#ffffff;" vertex="1" parent="ATnsj--CdyivixIsGf24-1">
          <mxGeometry x="-470" y="260" width="134" height="87" as="geometry">
            <mxRectangle x="-98" y="-1230" width="99" height="26" as="alternateBounds" />
          </mxGeometry>
        </mxCell>
        <mxCell id="-tNJMO3MVUs6l3NSCyhQ-1" value="input1" style="rounded=1;whiteSpace=wrap;html=1;sketch=0;points=[[0,0.5,0,0,0],[1,0.5,0,0,0]];arcSize=50;" vertex="1" parent="-tNJMO3MVUs6l3NSCyhQ-0">
          <mxGeometry x="-16.75" y="36" width="66" height="25" as="geometry" />
        </mxCell>
        <mxCell id="-tNJMO3MVUs6l3NSCyhQ-3" style="edgeStyle=orthogonalEdgeStyle;rounded=0;orthogonalLoop=1;jettySize=auto;html=1;exitX=1;exitY=0.5;exitDx=0;exitDy=0;exitPerimeter=0;entryX=0;entryY=0.5;entryDx=0;entryDy=0;entryPerimeter=0;" edge="1" parent="ATnsj--CdyivixIsGf24-1" source="ATnsj--CdyivixIsGf24-62" target="-tNJMO3MVUs6l3NSCyhQ-1">
          <mxGeometry relative="1" as="geometry" />
        </mxCell>
        <mxCell id="-tNJMO3MVUs6l3NSCyhQ-4" style="edgeStyle=orthogonalEdgeStyle;rounded=0;orthogonalLoop=1;jettySize=auto;html=1;exitX=1;exitY=0.5;exitDx=0;exitDy=0;exitPerimeter=0;entryX=0;entryY=0.5;entryDx=0;entryDy=0;entryPerimeter=0;" edge="1" parent="ATnsj--CdyivixIsGf24-1" source="ATnsj--CdyivixIsGf24-63" target="-tNJMO3MVUs6l3NSCyhQ-1">
          <mxGeometry relative="1" as="geometry">
            <mxPoint x="-580" y="310" as="targetPoint" />
          </mxGeometry>
        </mxCell>
        <mxCell id="-tNJMO3MVUs6l3NSCyhQ-5" style="edgeStyle=orthogonalEdgeStyle;rounded=0;orthogonalLoop=1;jettySize=auto;html=1;exitX=1;exitY=0.5;exitDx=0;exitDy=0;exitPerimeter=0;entryX=0;entryY=0.5;entryDx=0;entryDy=0;entryPerimeter=0;" edge="1" parent="ATnsj--CdyivixIsGf24-1" source="ATnsj--CdyivixIsGf24-66" target="-tNJMO3MVUs6l3NSCyhQ-1">
          <mxGeometry relative="1" as="geometry" />
        </mxCell>
        <mxCell id="-tNJMO3MVUs6l3NSCyhQ-6" style="edgeStyle=orthogonalEdgeStyle;rounded=0;orthogonalLoop=1;jettySize=auto;html=1;exitX=1;exitY=0.5;exitDx=0;exitDy=0;exitPerimeter=0;entryX=0;entryY=0.5;entryDx=0;entryDy=0;entryPerimeter=0;" edge="1" parent="ATnsj--CdyivixIsGf24-1" source="ATnsj--CdyivixIsGf24-72" target="-tNJMO3MVUs6l3NSCyhQ-1">
          <mxGeometry relative="1" as="geometry" />
        </mxCell>
        <mxCell id="4ABSR35H-EBo3KDg-Gq4-3" value="errors" style="" parent="ATnsj--CdyivixIsGf24-0" visible="0" />
        <mxCell id="4ABSR35H-EBo3KDg-Gq4-80" value="filereader" style="rounded=1;whiteSpace=wrap;html=1;sketch=0;container=1;recursiveResize=0;verticalAlign=top;arcSize=6;fontStyle=1;autosize=0;points=[];absoluteArcSize=1;shadow=1;strokeColor=#001DBC;fillColor=#0050ef;fontColor=#ffffff;opacity=20;" parent="4ABSR35H-EBo3KDg-Gq4-3" vertex="1">
          <mxGeometry x="-50" y="390" width="134" height="125" as="geometry">
            <mxRectangle x="-98" y="-1230" width="99" height="26" as="alternateBounds" />
          </mxGeometry>
        </mxCell>
        <mxCell id="4ABSR35H-EBo3KDg-Gq4-81" value="filename" style="rounded=1;whiteSpace=wrap;html=1;sketch=0;points=[[0,0.5,0,0,0],[1,0.5,0,0,0]];arcSize=50;opacity=20;" parent="4ABSR35H-EBo3KDg-Gq4-80" vertex="1">
          <mxGeometry x="-16.75" y="36" width="66" height="25" as="geometry" />
        </mxCell>
        <mxCell id="4ABSR35H-EBo3KDg-Gq4-82" value="out" style="rounded=1;whiteSpace=wrap;html=1;sketch=0;points=[[0,0.5,0,0,0],[1,0.5,0,0,0]];fillColor=#1ba1e2;fontColor=#ffffff;strokeColor=#006EAF;arcSize=50;opacity=20;" parent="4ABSR35H-EBo3KDg-Gq4-80" vertex="1">
          <mxGeometry x="84.75" y="36" width="66" height="25" as="geometry" />
        </mxCell>
        <mxCell id="4ABSR35H-EBo3KDg-Gq4-83" value="error" style="rounded=1;whiteSpace=wrap;html=1;sketch=0;points=[[0,0.5,0,0,0],[1,0.5,0,0,0]];fillColor=#1ba1e2;fontColor=#ffffff;strokeColor=#006EAF;arcSize=50;" parent="4ABSR35H-EBo3KDg-Gq4-80" vertex="1">
          <mxGeometry x="84.75" y="82.5" width="66" height="25" as="geometry" />
        </mxCell>
        <mxCell id="4ABSR35H-EBo3KDg-Gq4-84" value="stdout" style="rhombus;whiteSpace=wrap;html=1;rounded=1;fillColor=#0050ef;fontColor=#ffffff;strokeColor=#001DBC;fontStyle=1;glass=0;sketch=0;fontSize=12;points=[[0,0.5,0,0,0],[0.5,0,0,0,0],[0.5,1,0,0,0],[1,0.5,0,0,0]];shadow=1;opacity=20;" parent="4ABSR35H-EBo3KDg-Gq4-3" vertex="1">
          <mxGeometry x="450" y="529" width="80" height="80" as="geometry" />
        </mxCell>
        <mxCell id="4ABSR35H-EBo3KDg-Gq4-85" value="filereader" style="rounded=1;whiteSpace=wrap;html=1;sketch=0;container=1;recursiveResize=0;verticalAlign=top;arcSize=6;fontStyle=1;autosize=0;points=[];absoluteArcSize=1;shadow=1;strokeColor=#001DBC;fillColor=#0050ef;fontColor=#ffffff;opacity=20;" parent="4ABSR35H-EBo3KDg-Gq4-3" vertex="1">
          <mxGeometry x="-310" y="470" width="134" height="125" as="geometry">
            <mxRectangle x="-98" y="-1230" width="99" height="26" as="alternateBounds" />
          </mxGeometry>
        </mxCell>
        <mxCell id="4ABSR35H-EBo3KDg-Gq4-86" value="out" style="rounded=1;whiteSpace=wrap;html=1;sketch=0;points=[[0,0.5,0,0,0],[1,0.5,0,0,0]];fillColor=#1ba1e2;fontColor=#ffffff;strokeColor=#006EAF;arcSize=50;opacity=20;" parent="4ABSR35H-EBo3KDg-Gq4-85" vertex="1">
          <mxGeometry x="84.75" y="36" width="66" height="25" as="geometry" />
        </mxCell>
        <mxCell id="4ABSR35H-EBo3KDg-Gq4-87" value="error" style="rounded=1;whiteSpace=wrap;html=1;sketch=0;points=[[0,0.5,0,0,0],[1,0.5,0,0,0]];fillColor=#1ba1e2;fontColor=#ffffff;strokeColor=#006EAF;arcSize=50;" parent="4ABSR35H-EBo3KDg-Gq4-85" vertex="1">
          <mxGeometry x="84.75" y="82.5" width="66" height="25" as="geometry" />
        </mxCell>
        <mxCell id="4ABSR35H-EBo3KDg-Gq4-88" value="filename" style="rounded=1;whiteSpace=wrap;html=1;sketch=0;points=[[0,0.5,0,0,0],[1,0.5,0,0,0]];arcSize=50;opacity=20;" parent="4ABSR35H-EBo3KDg-Gq4-85" vertex="1">
          <mxGeometry x="-26" y="36" width="66" height="25" as="geometry" />
        </mxCell>
        <mxCell id="4ABSR35H-EBo3KDg-Gq4-89" value="filereader" style="rounded=1;whiteSpace=wrap;html=1;sketch=0;container=1;recursiveResize=0;verticalAlign=top;arcSize=6;fontStyle=1;autosize=0;points=[];absoluteArcSize=1;shadow=1;strokeColor=#001DBC;fillColor=#0050ef;fontColor=#ffffff;opacity=20;" parent="4ABSR35H-EBo3KDg-Gq4-3" vertex="1">
          <mxGeometry x="-120" y="77.5" width="134" height="125" as="geometry">
            <mxRectangle x="-98" y="-1230" width="99" height="26" as="alternateBounds" />
          </mxGeometry>
        </mxCell>
        <mxCell id="4ABSR35H-EBo3KDg-Gq4-90" value="filename" style="rounded=1;whiteSpace=wrap;html=1;sketch=0;points=[[0,0.5,0,0,0],[1,0.5,0,0,0]];arcSize=50;opacity=20;" parent="4ABSR35H-EBo3KDg-Gq4-89" vertex="1">
          <mxGeometry x="-16.75" y="36" width="66" height="25" as="geometry" />
        </mxCell>
        <mxCell id="4ABSR35H-EBo3KDg-Gq4-91" value="out" style="rounded=1;whiteSpace=wrap;html=1;sketch=0;points=[[0,0.5,0,0,0],[1,0.5,0,0,0]];fillColor=#1ba1e2;fontColor=#ffffff;strokeColor=#006EAF;arcSize=50;opacity=20;" parent="4ABSR35H-EBo3KDg-Gq4-89" vertex="1">
          <mxGeometry x="84.75" y="36" width="66" height="25" as="geometry" />
        </mxCell>
        <mxCell id="4ABSR35H-EBo3KDg-Gq4-92" value="error" style="rounded=1;whiteSpace=wrap;html=1;sketch=0;points=[[0,0.5,0,0,0],[1,0.5,0,0,0]];fillColor=#1ba1e2;fontColor=#ffffff;strokeColor=#006EAF;arcSize=50;" parent="4ABSR35H-EBo3KDg-Gq4-89" vertex="1">
          <mxGeometry x="84.75" y="82.5" width="66" height="25" as="geometry" />
        </mxCell>
        <mxCell id="4ABSR35H-EBo3KDg-Gq4-93" value="stderr" style="rhombus;whiteSpace=wrap;html=1;rounded=1;fillColor=#0050ef;fontColor=#ffffff;strokeColor=#001DBC;fontStyle=1;glass=0;sketch=0;fontSize=12;points=[[0,0.5,0,0,0],[0.5,0,0,0,0],[0.5,1,0,0,0],[1,0.5,0,0,0]];shadow=1;" parent="4ABSR35H-EBo3KDg-Gq4-3" vertex="1">
          <mxGeometry x="453.75" y="620" width="80" height="80" as="geometry" />
        </mxCell>
        <mxCell id="4ABSR35H-EBo3KDg-Gq4-94" value="filereader" style="rounded=1;whiteSpace=wrap;html=1;sketch=0;container=1;recursiveResize=0;verticalAlign=top;arcSize=6;fontStyle=1;autosize=0;points=[];absoluteArcSize=1;shadow=1;strokeColor=#001DBC;fillColor=#0050ef;fontColor=#ffffff;opacity=20;" parent="4ABSR35H-EBo3KDg-Gq4-3" vertex="1">
          <mxGeometry x="-120" y="240" width="134" height="125" as="geometry">
            <mxRectangle x="-98" y="-1230" width="99" height="26" as="alternateBounds" />
          </mxGeometry>
        </mxCell>
        <mxCell id="4ABSR35H-EBo3KDg-Gq4-95" value="filename" style="rounded=1;whiteSpace=wrap;html=1;sketch=0;points=[[0,0.5,0,0,0],[1,0.5,0,0,0]];arcSize=50;opacity=20;" parent="4ABSR35H-EBo3KDg-Gq4-94" vertex="1">
          <mxGeometry x="-20" y="55" width="66" height="25" as="geometry" />
        </mxCell>
        <mxCell id="4ABSR35H-EBo3KDg-Gq4-96" value="out" style="rounded=1;whiteSpace=wrap;html=1;sketch=0;points=[[0,0.5,0,0,0],[1,0.5,0,0,0]];fillColor=#1ba1e2;fontColor=#ffffff;strokeColor=#006EAF;arcSize=50;opacity=20;" parent="4ABSR35H-EBo3KDg-Gq4-94" vertex="1">
          <mxGeometry x="84.75" y="36" width="66" height="25" as="geometry" />
        </mxCell>
        <mxCell id="4ABSR35H-EBo3KDg-Gq4-97" value="error" style="rounded=1;whiteSpace=wrap;html=1;sketch=0;points=[[0,0.5,0,0,0],[1,0.5,0,0,0]];fillColor=#1ba1e2;fontColor=#ffffff;strokeColor=#006EAF;arcSize=50;" parent="4ABSR35H-EBo3KDg-Gq4-94" vertex="1">
          <mxGeometry x="84.75" y="82.5" width="66" height="25" as="geometry" />
        </mxCell>
        <mxCell id="4ABSR35H-EBo3KDg-Gq4-100" value="obsidian_file" style="rhombus;whiteSpace=wrap;html=1;rounded=1;fontStyle=1;glass=0;sketch=0;fontSize=12;points=[[0,0.5,0,0,0],[0.5,0,0,0,0],[0.5,1,0,0,0],[1,0.5,0,0,0]];shadow=1;opacity=20;" parent="4ABSR35H-EBo3KDg-Gq4-3" vertex="1">
          <mxGeometry x="-1080" y="360" width="80" height="80" as="geometry" />
        </mxCell>
        <mxCell id="4ABSR35H-EBo3KDg-Gq4-103" value="output_file" style="rhombus;whiteSpace=wrap;html=1;rounded=1;fontStyle=1;glass=0;sketch=0;fontSize=12;points=[[0,0.5,0,0,0],[0.5,0,0,0,0],[0.5,1,0,0,0],[1,0.5,0,0,0]];shadow=1;opacity=20;" parent="4ABSR35H-EBo3KDg-Gq4-3" vertex="1">
          <mxGeometry x="-1070" y="138.5" width="80" height="80" as="geometry" />
        </mxCell>
        <mxCell id="4ABSR35H-EBo3KDg-Gq4-106" value="front1" style="rhombus;whiteSpace=wrap;html=1;rounded=1;fontStyle=1;glass=0;sketch=0;fontSize=12;points=[[0,0.5,0,0,0],[0.5,0,0,0,0],[0.5,1,0,0,0],[1,0.5,0,0,0]];shadow=1;strokeWidth=2;opacity=20;" parent="4ABSR35H-EBo3KDg-Gq4-3" vertex="1">
          <mxGeometry x="-1000" y="210" width="80" height="80" as="geometry" />
        </mxCell>
        <mxCell id="4ABSR35H-EBo3KDg-Gq4-108" value="back" style="rhombus;whiteSpace=wrap;html=1;rounded=1;fontStyle=1;glass=0;sketch=0;fontSize=12;points=[[0,0.5,0,0,0],[0.5,0,0,0,0],[0.5,1,0,0,0],[1,0.5,0,0,0]];shadow=1;opacity=20;" parent="4ABSR35H-EBo3KDg-Gq4-3" vertex="1">
          <mxGeometry x="-1010" y="412.5" width="80" height="80" as="geometry" />
        </mxCell>
        <mxCell id="4ABSR35H-EBo3KDg-Gq4-110" value="close" style="rhombus;whiteSpace=wrap;html=1;rounded=1;fontStyle=1;glass=0;sketch=0;fontSize=12;points=[[0,0.5,0,0,0],[0.5,0,0,0,0],[0.5,1,0,0,0],[1,0.5,0,0,0]];shadow=1;opacity=20;" parent="4ABSR35H-EBo3KDg-Gq4-3" vertex="1">
          <mxGeometry x="-1070" y="460" width="80" height="80" as="geometry" />
        </mxCell>
        <mxCell id="4ABSR35H-EBo3KDg-Gq4-112" value="front2" style="rhombus;whiteSpace=wrap;html=1;rounded=1;fontStyle=1;glass=0;sketch=0;fontSize=12;points=[[0,0.5,0,0,0],[0.5,0,0,0,0],[0.5,1,0,0,0],[1,0.5,0,0,0]];shadow=1;strokeWidth=2;opacity=20;" parent="4ABSR35H-EBo3KDg-Gq4-3" vertex="1">
          <mxGeometry x="-1000" y="310" width="80" height="80" as="geometry" />
        </mxCell>
        <mxCell id="4ABSR35H-EBo3KDg-Gq4-115" value="title" style="rhombus;whiteSpace=wrap;html=1;rounded=1;fontStyle=1;glass=0;sketch=0;fontSize=12;points=[[0,0.5,0,0,0],[0.5,0,0,0,0],[0.5,1,0,0,0],[1,0.5,0,0,0]];shadow=1;opacity=20;" parent="4ABSR35H-EBo3KDg-Gq4-3" vertex="1">
          <mxGeometry x="-1070" y="260" width="80" height="80" as="geometry" />
        </mxCell>
        <mxCell id="4ABSR35H-EBo3KDg-Gq4-121" style="edgeStyle=orthogonalEdgeStyle;rounded=1;orthogonalLoop=1;jettySize=auto;html=1;exitX=1;exitY=0.5;exitDx=0;exitDy=0;exitPerimeter=0;entryX=0;entryY=0.5;entryDx=0;entryDy=0;entryPerimeter=0;strokeColor=#d6b656;fillColor=#fff2cc;strokeWidth=2;" parent="4ABSR35H-EBo3KDg-Gq4-3" source="4ABSR35H-EBo3KDg-Gq4-92" target="4ABSR35H-EBo3KDg-Gq4-93" edge="1">
          <mxGeometry relative="1" as="geometry">
            <Array as="points">
              <mxPoint x="370" y="173" />
              <mxPoint x="370" y="660" />
            </Array>
          </mxGeometry>
        </mxCell>
        <mxCell id="4ABSR35H-EBo3KDg-Gq4-122" style="edgeStyle=orthogonalEdgeStyle;rounded=1;orthogonalLoop=1;jettySize=auto;html=1;exitX=1;exitY=0.5;exitDx=0;exitDy=0;exitPerimeter=0;strokeColor=#d6b656;fillColor=#fff2cc;strokeWidth=2;" parent="4ABSR35H-EBo3KDg-Gq4-3" source="4ABSR35H-EBo3KDg-Gq4-97" target="4ABSR35H-EBo3KDg-Gq4-93" edge="1">
          <mxGeometry relative="1" as="geometry">
            <Array as="points">
              <mxPoint x="370" y="335" />
              <mxPoint x="370" y="660" />
            </Array>
          </mxGeometry>
        </mxCell>
        <mxCell id="4ABSR35H-EBo3KDg-Gq4-123" style="edgeStyle=orthogonalEdgeStyle;rounded=1;orthogonalLoop=1;jettySize=auto;html=1;exitX=1;exitY=0.5;exitDx=0;exitDy=0;exitPerimeter=0;entryX=0;entryY=0.5;entryDx=0;entryDy=0;entryPerimeter=0;strokeColor=#d6b656;fillColor=#fff2cc;strokeWidth=2;" parent="4ABSR35H-EBo3KDg-Gq4-3" source="4ABSR35H-EBo3KDg-Gq4-83" target="4ABSR35H-EBo3KDg-Gq4-93" edge="1">
          <mxGeometry relative="1" as="geometry">
            <Array as="points">
              <mxPoint x="370" y="485" />
              <mxPoint x="370" y="660" />
            </Array>
          </mxGeometry>
        </mxCell>
        <mxCell id="4ABSR35H-EBo3KDg-Gq4-124" style="edgeStyle=orthogonalEdgeStyle;rounded=1;orthogonalLoop=1;jettySize=auto;html=1;exitX=1;exitY=0.5;exitDx=0;exitDy=0;exitPerimeter=0;entryX=0;entryY=0.5;entryDx=0;entryDy=0;entryPerimeter=0;strokeColor=#d6b656;fillColor=#fff2cc;strokeWidth=2;" parent="4ABSR35H-EBo3KDg-Gq4-3" source="4ABSR35H-EBo3KDg-Gq4-87" target="4ABSR35H-EBo3KDg-Gq4-93" edge="1">
          <mxGeometry relative="1" as="geometry">
            <Array as="points">
              <mxPoint x="-120" y="565" />
              <mxPoint x="-120" y="660" />
            </Array>
          </mxGeometry>
        </mxCell>
        <mxCell id="4ABSR35H-EBo3KDg-Gq4-125" value="buffer" style="rounded=1;whiteSpace=wrap;html=1;sketch=0;container=1;recursiveResize=0;verticalAlign=top;arcSize=6;fontStyle=1;autosize=0;points=[];absoluteArcSize=1;shadow=1;strokeColor=#001DBC;fillColor=#0050ef;fontColor=#ffffff;opacity=20;" parent="4ABSR35H-EBo3KDg-Gq4-3" vertex="1">
          <mxGeometry x="426.75" y="70" width="134" height="154" as="geometry">
            <mxRectangle x="-98" y="-1230" width="99" height="26" as="alternateBounds" />
          </mxGeometry>
        </mxCell>
        <mxCell id="4ABSR35H-EBo3KDg-Gq4-126" value="open" style="rounded=1;whiteSpace=wrap;html=1;sketch=0;points=[[0,0.5,0,0,0],[1,0.5,0,0,0]];arcSize=50;opacity=20;" parent="4ABSR35H-EBo3KDg-Gq4-125" vertex="1">
          <mxGeometry x="-16.75" y="36" width="66" height="25" as="geometry" />
        </mxCell>
        <mxCell id="4ABSR35H-EBo3KDg-Gq4-127" value="output" style="rounded=1;whiteSpace=wrap;html=1;sketch=0;points=[[0,0.5,0,0,0],[1,0.5,0,0,0]];fillColor=#1ba1e2;fontColor=#ffffff;strokeColor=#006EAF;arcSize=50;opacity=20;" parent="4ABSR35H-EBo3KDg-Gq4-125" vertex="1">
          <mxGeometry x="84.75" y="82.5" width="66" height="25" as="geometry" />
        </mxCell>
        <mxCell id="4ABSR35H-EBo3KDg-Gq4-128" value="close" style="rounded=1;whiteSpace=wrap;html=1;sketch=0;points=[[0,0.5,0,0,0],[1,0.5,0,0,0]];arcSize=50;opacity=20;" parent="4ABSR35H-EBo3KDg-Gq4-125" vertex="1">
          <mxGeometry x="-16.75" y="107.5" width="66" height="25" as="geometry" />
        </mxCell>
        <mxCell id="4ABSR35H-EBo3KDg-Gq4-129" value="append" style="rounded=1;whiteSpace=wrap;html=1;sketch=0;points=[[0,0.5,0,0,0],[1,0.5,0,0,0]];arcSize=50;opacity=20;" parent="4ABSR35H-EBo3KDg-Gq4-125" vertex="1">
          <mxGeometry x="-16.75" y="70" width="66" height="25" as="geometry" />
        </mxCell>
        <mxCell id="4ABSR35H-EBo3KDg-Gq4-130" value="filewriter" style="rounded=1;whiteSpace=wrap;html=1;sketch=0;container=1;recursiveResize=0;verticalAlign=top;arcSize=6;fontStyle=1;autosize=0;points=[];absoluteArcSize=1;shadow=1;strokeColor=#001DBC;fillColor=#0050ef;fontColor=#ffffff;opacity=20;" parent="4ABSR35H-EBo3KDg-Gq4-3" vertex="1">
          <mxGeometry x="672.75" y="70" width="134" height="125" as="geometry">
            <mxRectangle x="-98" y="-1230" width="99" height="26" as="alternateBounds" />
          </mxGeometry>
        </mxCell>
        <mxCell id="4ABSR35H-EBo3KDg-Gq4-131" value="filename" style="rounded=1;whiteSpace=wrap;html=1;sketch=0;points=[[0,0.5,0,0,0],[1,0.5,0,0,0]];arcSize=50;opacity=20;" parent="4ABSR35H-EBo3KDg-Gq4-130" vertex="1">
          <mxGeometry x="-16.75" y="36" width="66" height="25" as="geometry" />
        </mxCell>
        <mxCell id="4ABSR35H-EBo3KDg-Gq4-132" value="error" style="rounded=1;whiteSpace=wrap;html=1;sketch=0;points=[[0,0.5,0,0,0],[1,0.5,0,0,0]];fillColor=#1ba1e2;fontColor=#ffffff;strokeColor=#006EAF;arcSize=50;" parent="4ABSR35H-EBo3KDg-Gq4-130" vertex="1">
          <mxGeometry x="84.75" y="82.5" width="66" height="25" as="geometry" />
        </mxCell>
        <mxCell id="4ABSR35H-EBo3KDg-Gq4-133" value="data" style="rounded=1;whiteSpace=wrap;html=1;sketch=0;points=[[0,0.5,0,0,0],[1,0.5,0,0,0]];arcSize=50;opacity=20;" parent="4ABSR35H-EBo3KDg-Gq4-130" vertex="1">
          <mxGeometry x="-16.75" y="82.5" width="66" height="25" as="geometry" />
        </mxCell>
        <mxCell id="4ABSR35H-EBo3KDg-Gq4-134" value="deracer7" style="rounded=1;whiteSpace=wrap;html=1;sketch=0;container=1;recursiveResize=0;verticalAlign=top;arcSize=6;fontStyle=1;autosize=0;points=[];absoluteArcSize=1;shadow=1;strokeColor=#001DBC;fillColor=#0050ef;fontColor=#ffffff;opacity=20;" parent="4ABSR35H-EBo3KDg-Gq4-3" vertex="1">
          <mxGeometry x="-780" y="157.5" width="150.75" height="375" as="geometry">
            <mxRectangle x="-98" y="-1230" width="99" height="26" as="alternateBounds" />
          </mxGeometry>
        </mxCell>
        <mxCell id="4ABSR35H-EBo3KDg-Gq4-135" value="input1" style="rounded=1;whiteSpace=wrap;html=1;sketch=0;points=[[0,0.5,0,0,0],[1,0.5,0,0,0]];arcSize=50;opacity=20;" parent="4ABSR35H-EBo3KDg-Gq4-134" vertex="1">
          <mxGeometry x="-16.75" y="36" width="66" height="25" as="geometry" />
        </mxCell>
        <mxCell id="4ABSR35H-EBo3KDg-Gq4-136" value="output_file" style="rounded=1;whiteSpace=wrap;html=1;sketch=0;points=[[0,0.5,0,0,0],[1,0.5,0,0,0]];fillColor=#1ba1e2;fontColor=#ffffff;strokeColor=#006EAF;arcSize=50;opacity=20;" parent="4ABSR35H-EBo3KDg-Gq4-134" vertex="1">
          <mxGeometry x="84.75" y="36" width="66" height="25" as="geometry" />
        </mxCell>
        <mxCell id="4ABSR35H-EBo3KDg-Gq4-137" value="input2" style="rounded=1;whiteSpace=wrap;html=1;sketch=0;points=[[0,0.5,0,0,0],[1,0.5,0,0,0]];arcSize=50;opacity=20;" parent="4ABSR35H-EBo3KDg-Gq4-134" vertex="1">
          <mxGeometry x="-16.75" y="82.5" width="66" height="25" as="geometry" />
        </mxCell>
        <mxCell id="4ABSR35H-EBo3KDg-Gq4-138" value="front1" style="rounded=1;whiteSpace=wrap;html=1;sketch=0;points=[[0,0.5,0,0,0],[1,0.5,0,0,0]];fillColor=#1ba1e2;fontColor=#ffffff;strokeColor=#006EAF;arcSize=50;opacity=20;" parent="4ABSR35H-EBo3KDg-Gq4-134" vertex="1">
          <mxGeometry x="84.75" y="82.5" width="66" height="25" as="geometry" />
        </mxCell>
        <mxCell id="4ABSR35H-EBo3KDg-Gq4-139" value="title" style="rounded=1;whiteSpace=wrap;html=1;sketch=0;points=[[0,0.5,0,0,0],[1,0.5,0,0,0]];fillColor=#1ba1e2;fontColor=#ffffff;strokeColor=#006EAF;arcSize=50;opacity=20;" parent="4ABSR35H-EBo3KDg-Gq4-134" vertex="1">
          <mxGeometry x="84.75" y="129" width="66" height="25" as="geometry" />
        </mxCell>
        <mxCell id="4ABSR35H-EBo3KDg-Gq4-140" value="input3" style="rounded=1;whiteSpace=wrap;html=1;sketch=0;points=[[0,0.5,0,0,0],[1,0.5,0,0,0]];arcSize=50;opacity=20;" parent="4ABSR35H-EBo3KDg-Gq4-134" vertex="1">
          <mxGeometry x="-16.75" y="129" width="66" height="25" as="geometry" />
        </mxCell>
        <mxCell id="4ABSR35H-EBo3KDg-Gq4-141" value="input4" style="rounded=1;whiteSpace=wrap;html=1;sketch=0;points=[[0,0.5,0,0,0],[1,0.5,0,0,0]];arcSize=50;opacity=20;" parent="4ABSR35H-EBo3KDg-Gq4-134" vertex="1">
          <mxGeometry x="-16.75" y="170" width="66" height="25" as="geometry" />
        </mxCell>
        <mxCell id="4ABSR35H-EBo3KDg-Gq4-142" value="front2" style="rounded=1;whiteSpace=wrap;html=1;sketch=0;points=[[0,0.5,0,0,0],[1,0.5,0,0,0]];fillColor=#1ba1e2;fontColor=#ffffff;strokeColor=#006EAF;arcSize=50;opacity=20;" parent="4ABSR35H-EBo3KDg-Gq4-134" vertex="1">
          <mxGeometry x="84.75" y="170" width="66" height="25" as="geometry" />
        </mxCell>
        <mxCell id="4ABSR35H-EBo3KDg-Gq4-143" value="input5" style="rounded=1;whiteSpace=wrap;html=1;sketch=0;points=[[0,0.5,0,0,0],[1,0.5,0,0,0]];arcSize=50;opacity=20;" parent="4ABSR35H-EBo3KDg-Gq4-134" vertex="1">
          <mxGeometry x="-16.75" y="216.5" width="66" height="25" as="geometry" />
        </mxCell>
        <mxCell id="4ABSR35H-EBo3KDg-Gq4-144" value="input6" style="rounded=1;whiteSpace=wrap;html=1;sketch=0;points=[[0,0.5,0,0,0],[1,0.5,0,0,0]];arcSize=50;opacity=20;" parent="4ABSR35H-EBo3KDg-Gq4-134" vertex="1">
          <mxGeometry x="-16.75" y="263" width="66" height="25" as="geometry" />
        </mxCell>
        <mxCell id="4ABSR35H-EBo3KDg-Gq4-145" value="input7" style="rounded=1;whiteSpace=wrap;html=1;sketch=0;points=[[0,0.5,0,0,0],[1,0.5,0,0,0]];arcSize=50;opacity=20;" parent="4ABSR35H-EBo3KDg-Gq4-134" vertex="1">
          <mxGeometry x="-16.75" y="310" width="66" height="25" as="geometry" />
        </mxCell>
        <mxCell id="4ABSR35H-EBo3KDg-Gq4-146" value="close" style="rounded=1;whiteSpace=wrap;html=1;sketch=0;points=[[0,0.5,0,0,0],[1,0.5,0,0,0]];fillColor=#1ba1e2;fontColor=#ffffff;strokeColor=#006EAF;arcSize=50;opacity=20;" parent="4ABSR35H-EBo3KDg-Gq4-134" vertex="1">
          <mxGeometry x="84.75" y="310" width="66" height="25" as="geometry" />
        </mxCell>
        <mxCell id="4ABSR35H-EBo3KDg-Gq4-147" value="error" style="rounded=1;whiteSpace=wrap;html=1;sketch=0;points=[[0,0.5,0,0,0],[1,0.5,0,0,0]];fillColor=#1ba1e2;fontColor=#ffffff;strokeColor=#006EAF;arcSize=50;" parent="4ABSR35H-EBo3KDg-Gq4-134" vertex="1">
          <mxGeometry x="84.75" y="350" width="66" height="25" as="geometry" />
        </mxCell>
        <mxCell id="4ABSR35H-EBo3KDg-Gq4-148" value="obsidian_file" style="rounded=1;whiteSpace=wrap;html=1;sketch=0;points=[[0,0.5,0,0,0],[1,0.5,0,0,0]];fillColor=#1ba1e2;fontColor=#ffffff;strokeColor=#006EAF;arcSize=50;opacity=20;" parent="4ABSR35H-EBo3KDg-Gq4-134" vertex="1">
          <mxGeometry x="80" y="212.5" width="66" height="25" as="geometry" />
        </mxCell>
        <mxCell id="4ABSR35H-EBo3KDg-Gq4-149" value="back" style="rounded=1;whiteSpace=wrap;html=1;sketch=0;points=[[0,0.5,0,0,0],[1,0.5,0,0,0]];fillColor=#1ba1e2;fontColor=#ffffff;strokeColor=#006EAF;arcSize=50;opacity=20;" parent="4ABSR35H-EBo3KDg-Gq4-134" vertex="1">
          <mxGeometry x="80" y="263" width="66" height="25" as="geometry" />
        </mxCell>
        <mxCell id="4ABSR35H-EBo3KDg-Gq4-151" style="edgeStyle=orthogonalEdgeStyle;rounded=1;orthogonalLoop=1;jettySize=auto;html=1;exitX=1;exitY=0.5;exitDx=0;exitDy=0;exitPerimeter=0;entryX=0;entryY=0.5;entryDx=0;entryDy=0;entryPerimeter=0;strokeColor=#d6b656;fillColor=#fff2cc;strokeWidth=2;" parent="4ABSR35H-EBo3KDg-Gq4-3" source="4ABSR35H-EBo3KDg-Gq4-132" target="4ABSR35H-EBo3KDg-Gq4-93" edge="1">
          <mxGeometry relative="1" as="geometry">
            <Array as="points">
              <mxPoint x="844" y="165" />
              <mxPoint x="844" y="399" />
              <mxPoint x="370" y="399" />
              <mxPoint x="370" y="660" />
            </Array>
          </mxGeometry>
        </mxCell>
        <mxCell id="4ABSR35H-EBo3KDg-Gq4-153" style="edgeStyle=orthogonalEdgeStyle;rounded=1;orthogonalLoop=1;jettySize=auto;html=1;exitX=1;exitY=0.5;exitDx=0;exitDy=0;exitPerimeter=0;entryX=0;entryY=0.5;entryDx=0;entryDy=0;entryPerimeter=0;fillColor=#ffe6cc;strokeColor=#d79b00;strokeWidth=2;" parent="4ABSR35H-EBo3KDg-Gq4-3" source="4ABSR35H-EBo3KDg-Gq4-147" target="4ABSR35H-EBo3KDg-Gq4-93" edge="1">
          <mxGeometry relative="1" as="geometry">
            <Array as="points">
              <mxPoint x="-600" y="520" />
              <mxPoint x="-600" y="660" />
            </Array>
          </mxGeometry>
        </mxCell>
        <mxCell id="C8P4zCIXMkB-2ziJhuHX-5" value="" style="shape=orEllipse;perimeter=ellipsePerimeter;whiteSpace=wrap;html=1;backgroundOutline=1;opacity=20;" vertex="1" parent="4ABSR35H-EBo3KDg-Gq4-3">
          <mxGeometry x="-1080" y="720" width="80" height="80" as="geometry" />
        </mxCell>
      </root>
    </mxGraphModel>
  </diagram>
  <diagram name="Copy of main" id="Y63K97WbRGa1AhFcxirE">
    <mxGraphModel dx="2283" dy="755" grid="1" gridSize="10" guides="1" tooltips="1" connect="1" arrows="1" fold="1" page="1" pageScale="1" pageWidth="1100" pageHeight="850" math="0" shadow="0">
      <root>
        <mxCell id="EpTkJST8O4hXrJpNrsDW-0" />
        <mxCell id="EpTkJST8O4hXrJpNrsDW-1" value="main" style="" parent="EpTkJST8O4hXrJpNrsDW-0" />
        <mxCell id="EpTkJST8O4hXrJpNrsDW-2" value="filereader" style="rounded=1;whiteSpace=wrap;html=1;sketch=0;container=1;recursiveResize=0;verticalAlign=top;arcSize=6;fontStyle=1;autosize=0;points=[];absoluteArcSize=1;shadow=1;strokeColor=#001DBC;fillColor=#0050ef;fontColor=#ffffff;" vertex="1" parent="EpTkJST8O4hXrJpNrsDW-1">
          <mxGeometry x="-50" y="390" width="134" height="125" as="geometry">
            <mxRectangle x="-98" y="-1230" width="99" height="26" as="alternateBounds" />
          </mxGeometry>
        </mxCell>
        <mxCell id="EpTkJST8O4hXrJpNrsDW-3" value="filename" style="rounded=1;whiteSpace=wrap;html=1;sketch=0;points=[[0,0.5,0,0,0],[1,0.5,0,0,0]];arcSize=50;" vertex="1" parent="EpTkJST8O4hXrJpNrsDW-2">
          <mxGeometry x="-16.75" y="36" width="66" height="25" as="geometry" />
        </mxCell>
        <mxCell id="EpTkJST8O4hXrJpNrsDW-4" value="out" style="rounded=1;whiteSpace=wrap;html=1;sketch=0;points=[[0,0.5,0,0,0],[1,0.5,0,0,0]];fillColor=#1ba1e2;fontColor=#ffffff;strokeColor=#006EAF;arcSize=50;" vertex="1" parent="EpTkJST8O4hXrJpNrsDW-2">
          <mxGeometry x="84.75" y="36" width="66" height="25" as="geometry" />
        </mxCell>
        <mxCell id="EpTkJST8O4hXrJpNrsDW-5" value="error" style="rounded=1;whiteSpace=wrap;html=1;sketch=0;points=[[0,0.5,0,0,0],[1,0.5,0,0,0]];fillColor=#1ba1e2;fontColor=#ffffff;strokeColor=#006EAF;arcSize=50;" vertex="1" parent="EpTkJST8O4hXrJpNrsDW-2">
          <mxGeometry x="84.75" y="82.5" width="66" height="25" as="geometry" />
        </mxCell>
        <mxCell id="EpTkJST8O4hXrJpNrsDW-6" value="stdout" style="rhombus;whiteSpace=wrap;html=1;rounded=1;fillColor=#0050ef;fontColor=#ffffff;strokeColor=#001DBC;fontStyle=1;glass=0;sketch=0;fontSize=12;points=[[0,0.5,0,0,0],[0.5,0,0,0,0],[0.5,1,0,0,0],[1,0.5,0,0,0]];shadow=1;opacity=20;" vertex="1" parent="EpTkJST8O4hXrJpNrsDW-1">
          <mxGeometry x="450" y="529" width="80" height="80" as="geometry" />
        </mxCell>
        <mxCell id="EpTkJST8O4hXrJpNrsDW-7" value="filereader" style="rounded=1;whiteSpace=wrap;html=1;sketch=0;container=1;recursiveResize=0;verticalAlign=top;arcSize=6;fontStyle=1;autosize=0;points=[];absoluteArcSize=1;shadow=1;strokeColor=#001DBC;fillColor=#0050ef;fontColor=#ffffff;" vertex="1" parent="EpTkJST8O4hXrJpNrsDW-1">
          <mxGeometry x="-310" y="470" width="134" height="125" as="geometry">
            <mxRectangle x="-98" y="-1230" width="99" height="26" as="alternateBounds" />
          </mxGeometry>
        </mxCell>
        <mxCell id="EpTkJST8O4hXrJpNrsDW-8" value="out" style="rounded=1;whiteSpace=wrap;html=1;sketch=0;points=[[0,0.5,0,0,0],[1,0.5,0,0,0]];fillColor=#1ba1e2;fontColor=#ffffff;strokeColor=#006EAF;arcSize=50;" vertex="1" parent="EpTkJST8O4hXrJpNrsDW-7">
          <mxGeometry x="84.75" y="36" width="66" height="25" as="geometry" />
        </mxCell>
        <mxCell id="EpTkJST8O4hXrJpNrsDW-9" value="error" style="rounded=1;whiteSpace=wrap;html=1;sketch=0;points=[[0,0.5,0,0,0],[1,0.5,0,0,0]];fillColor=#1ba1e2;fontColor=#ffffff;strokeColor=#006EAF;arcSize=50;" vertex="1" parent="EpTkJST8O4hXrJpNrsDW-7">
          <mxGeometry x="84.75" y="82.5" width="66" height="25" as="geometry" />
        </mxCell>
        <mxCell id="EpTkJST8O4hXrJpNrsDW-10" value="filename" style="rounded=1;whiteSpace=wrap;html=1;sketch=0;points=[[0,0.5,0,0,0],[1,0.5,0,0,0]];arcSize=50;" vertex="1" parent="EpTkJST8O4hXrJpNrsDW-7">
          <mxGeometry x="-26" y="36" width="66" height="25" as="geometry" />
        </mxCell>
        <mxCell id="EpTkJST8O4hXrJpNrsDW-11" value="filereader" style="rounded=1;whiteSpace=wrap;html=1;sketch=0;container=1;recursiveResize=0;verticalAlign=top;arcSize=6;fontStyle=1;autosize=0;points=[];absoluteArcSize=1;shadow=1;strokeColor=#001DBC;fillColor=#0050ef;fontColor=#ffffff;" vertex="1" parent="EpTkJST8O4hXrJpNrsDW-1">
          <mxGeometry x="-120" y="77.5" width="134" height="125" as="geometry">
            <mxRectangle x="-98" y="-1230" width="99" height="26" as="alternateBounds" />
          </mxGeometry>
        </mxCell>
        <mxCell id="EpTkJST8O4hXrJpNrsDW-12" value="filename" style="rounded=1;whiteSpace=wrap;html=1;sketch=0;points=[[0,0.5,0,0,0],[1,0.5,0,0,0]];arcSize=50;" vertex="1" parent="EpTkJST8O4hXrJpNrsDW-11">
          <mxGeometry x="-16.75" y="36" width="66" height="25" as="geometry" />
        </mxCell>
        <mxCell id="EpTkJST8O4hXrJpNrsDW-13" value="out" style="rounded=1;whiteSpace=wrap;html=1;sketch=0;points=[[0,0.5,0,0,0],[1,0.5,0,0,0]];fillColor=#1ba1e2;fontColor=#ffffff;strokeColor=#006EAF;arcSize=50;" vertex="1" parent="EpTkJST8O4hXrJpNrsDW-11">
          <mxGeometry x="84.75" y="36" width="66" height="25" as="geometry" />
        </mxCell>
        <mxCell id="EpTkJST8O4hXrJpNrsDW-14" value="error" style="rounded=1;whiteSpace=wrap;html=1;sketch=0;points=[[0,0.5,0,0,0],[1,0.5,0,0,0]];fillColor=#1ba1e2;fontColor=#ffffff;strokeColor=#006EAF;arcSize=50;" vertex="1" parent="EpTkJST8O4hXrJpNrsDW-11">
          <mxGeometry x="84.75" y="82.5" width="66" height="25" as="geometry" />
        </mxCell>
        <mxCell id="EpTkJST8O4hXrJpNrsDW-15" value="stderr" style="rhombus;whiteSpace=wrap;html=1;rounded=1;fillColor=#0050ef;fontColor=#ffffff;strokeColor=#001DBC;fontStyle=1;glass=0;sketch=0;fontSize=12;points=[[0,0.5,0,0,0],[0.5,0,0,0,0],[0.5,1,0,0,0],[1,0.5,0,0,0]];shadow=1;opacity=20;" vertex="1" parent="EpTkJST8O4hXrJpNrsDW-1">
          <mxGeometry x="453.75" y="620" width="80" height="80" as="geometry" />
        </mxCell>
        <mxCell id="EpTkJST8O4hXrJpNrsDW-16" value="filereader" style="rounded=1;whiteSpace=wrap;html=1;sketch=0;container=1;recursiveResize=0;verticalAlign=top;arcSize=6;fontStyle=1;autosize=0;points=[];absoluteArcSize=1;shadow=1;strokeColor=#001DBC;fillColor=#0050ef;fontColor=#ffffff;" vertex="1" parent="EpTkJST8O4hXrJpNrsDW-1">
          <mxGeometry x="-120" y="240" width="134" height="125" as="geometry">
            <mxRectangle x="-98" y="-1230" width="99" height="26" as="alternateBounds" />
          </mxGeometry>
        </mxCell>
        <mxCell id="EpTkJST8O4hXrJpNrsDW-17" value="filename" style="rounded=1;whiteSpace=wrap;html=1;sketch=0;points=[[0,0.5,0,0,0],[1,0.5,0,0,0]];arcSize=50;" vertex="1" parent="EpTkJST8O4hXrJpNrsDW-16">
          <mxGeometry x="-20" y="55" width="66" height="25" as="geometry" />
        </mxCell>
        <mxCell id="EpTkJST8O4hXrJpNrsDW-18" value="out" style="rounded=1;whiteSpace=wrap;html=1;sketch=0;points=[[0,0.5,0,0,0],[1,0.5,0,0,0]];fillColor=#1ba1e2;fontColor=#ffffff;strokeColor=#006EAF;arcSize=50;" vertex="1" parent="EpTkJST8O4hXrJpNrsDW-16">
          <mxGeometry x="84.75" y="36" width="66" height="25" as="geometry" />
        </mxCell>
        <mxCell id="EpTkJST8O4hXrJpNrsDW-19" value="error" style="rounded=1;whiteSpace=wrap;html=1;sketch=0;points=[[0,0.5,0,0,0],[1,0.5,0,0,0]];fillColor=#1ba1e2;fontColor=#ffffff;strokeColor=#006EAF;arcSize=50;" vertex="1" parent="EpTkJST8O4hXrJpNrsDW-16">
          <mxGeometry x="84.75" y="82.5" width="66" height="25" as="geometry" />
        </mxCell>
        <mxCell id="EpTkJST8O4hXrJpNrsDW-20" style="edgeStyle=orthogonalEdgeStyle;rounded=1;orthogonalLoop=1;jettySize=auto;html=1;exitX=1;exitY=0.5;exitDx=0;exitDy=0;exitPerimeter=0;entryX=0;entryY=0.5;entryDx=0;entryDy=0;entryPerimeter=0;strokeColor=#000000;strokeWidth=2;" edge="1" parent="EpTkJST8O4hXrJpNrsDW-1" source="EpTkJST8O4hXrJpNrsDW-66" target="EpTkJST8O4hXrJpNrsDW-3">
          <mxGeometry relative="1" as="geometry">
            <Array as="points">
              <mxPoint x="-390" y="383" />
              <mxPoint x="-390" y="439" />
            </Array>
          </mxGeometry>
        </mxCell>
        <mxCell id="EpTkJST8O4hXrJpNrsDW-21" style="edgeStyle=orthogonalEdgeStyle;rounded=1;orthogonalLoop=1;jettySize=auto;html=1;exitX=1;exitY=0.5;exitDx=0;exitDy=0;exitPerimeter=0;entryX=0;entryY=0.5;entryDx=0;entryDy=0;entryPerimeter=0;strokeWidth=2;fillColor=#d5e8d4;strokeColor=#82b366;" edge="1" parent="EpTkJST8O4hXrJpNrsDW-1" source="EpTkJST8O4hXrJpNrsDW-22" target="EpTkJST8O4hXrJpNrsDW-61">
          <mxGeometry relative="1" as="geometry" />
        </mxCell>
        <mxCell id="EpTkJST8O4hXrJpNrsDW-22" value="obsidian_file" style="rhombus;whiteSpace=wrap;html=1;rounded=1;fontStyle=1;glass=0;sketch=0;fontSize=12;points=[[0,0.5,0,0,0],[0.5,0,0,0,0],[0.5,1,0,0,0],[1,0.5,0,0,0]];shadow=1;" vertex="1" parent="EpTkJST8O4hXrJpNrsDW-1">
          <mxGeometry x="-1080" y="360" width="80" height="80" as="geometry" />
        </mxCell>
        <mxCell id="EpTkJST8O4hXrJpNrsDW-23" style="edgeStyle=orthogonalEdgeStyle;rounded=1;orthogonalLoop=1;jettySize=auto;html=1;exitX=1;exitY=0.5;exitDx=0;exitDy=0;exitPerimeter=0;entryX=0;entryY=0.5;entryDx=0;entryDy=0;entryPerimeter=0;strokeColor=#000000;strokeWidth=2;" edge="1" parent="EpTkJST8O4hXrJpNrsDW-1" source="EpTkJST8O4hXrJpNrsDW-54" target="EpTkJST8O4hXrJpNrsDW-49">
          <mxGeometry relative="1" as="geometry">
            <Array as="points">
              <mxPoint x="-590" y="206" />
              <mxPoint x="-590" y="40" />
              <mxPoint x="600" y="40" />
              <mxPoint x="600" y="119" />
            </Array>
          </mxGeometry>
        </mxCell>
        <mxCell id="EpTkJST8O4hXrJpNrsDW-24" style="edgeStyle=orthogonalEdgeStyle;rounded=1;orthogonalLoop=1;jettySize=auto;html=1;exitX=1;exitY=0.5;exitDx=0;exitDy=0;exitPerimeter=0;entryX=0;entryY=0.5;entryDx=0;entryDy=0;entryPerimeter=0;strokeWidth=2;fillColor=#d5e8d4;strokeColor=#82b366;" edge="1" parent="EpTkJST8O4hXrJpNrsDW-1" source="EpTkJST8O4hXrJpNrsDW-25" target="EpTkJST8O4hXrJpNrsDW-53">
          <mxGeometry relative="1" as="geometry">
            <Array as="points">
              <mxPoint x="-893" y="179" />
              <mxPoint x="-893" y="206" />
            </Array>
          </mxGeometry>
        </mxCell>
        <mxCell id="EpTkJST8O4hXrJpNrsDW-25" value="output_file" style="rhombus;whiteSpace=wrap;html=1;rounded=1;fontStyle=1;glass=0;sketch=0;fontSize=12;points=[[0,0.5,0,0,0],[0.5,0,0,0,0],[0.5,1,0,0,0],[1,0.5,0,0,0]];shadow=1;" vertex="1" parent="EpTkJST8O4hXrJpNrsDW-1">
          <mxGeometry x="-1070" y="138.5" width="80" height="80" as="geometry" />
        </mxCell>
        <mxCell id="EpTkJST8O4hXrJpNrsDW-26" style="edgeStyle=orthogonalEdgeStyle;rounded=1;orthogonalLoop=1;jettySize=auto;html=1;exitX=1;exitY=0.5;exitDx=0;exitDy=0;exitPerimeter=0;entryX=0;entryY=0.5;entryDx=0;entryDy=0;entryPerimeter=0;strokeColor=#000000;strokeWidth=2;" edge="1" parent="EpTkJST8O4hXrJpNrsDW-1" source="EpTkJST8O4hXrJpNrsDW-56" target="EpTkJST8O4hXrJpNrsDW-12">
          <mxGeometry relative="1" as="geometry">
            <Array as="points">
              <mxPoint x="-480" y="253" />
              <mxPoint x="-480" y="126" />
            </Array>
          </mxGeometry>
        </mxCell>
        <mxCell id="EpTkJST8O4hXrJpNrsDW-27" style="edgeStyle=orthogonalEdgeStyle;rounded=0;orthogonalLoop=1;jettySize=auto;html=1;entryX=0;entryY=0.5;entryDx=0;entryDy=0;entryPerimeter=0;strokeWidth=2;fillColor=#d5e8d4;strokeColor=#82b366;" edge="1" parent="EpTkJST8O4hXrJpNrsDW-1" source="EpTkJST8O4hXrJpNrsDW-28" target="EpTkJST8O4hXrJpNrsDW-55">
          <mxGeometry relative="1" as="geometry" />
        </mxCell>
        <mxCell id="EpTkJST8O4hXrJpNrsDW-28" value="front1" style="rhombus;whiteSpace=wrap;html=1;rounded=1;fontStyle=1;glass=0;sketch=0;fontSize=12;points=[[0,0.5,0,0,0],[0.5,0,0,0,0],[0.5,1,0,0,0],[1,0.5,0,0,0]];shadow=1;strokeWidth=2;" vertex="1" parent="EpTkJST8O4hXrJpNrsDW-1">
          <mxGeometry x="-1000" y="210" width="80" height="80" as="geometry" />
        </mxCell>
        <mxCell id="EpTkJST8O4hXrJpNrsDW-29" style="edgeStyle=orthogonalEdgeStyle;rounded=1;orthogonalLoop=1;jettySize=auto;html=1;entryX=0;entryY=0.5;entryDx=0;entryDy=0;entryPerimeter=0;strokeWidth=2;fillColor=#d5e8d4;strokeColor=#82b366;" edge="1" parent="EpTkJST8O4hXrJpNrsDW-1" source="EpTkJST8O4hXrJpNrsDW-30" target="EpTkJST8O4hXrJpNrsDW-62">
          <mxGeometry relative="1" as="geometry" />
        </mxCell>
        <mxCell id="EpTkJST8O4hXrJpNrsDW-30" value="back" style="rhombus;whiteSpace=wrap;html=1;rounded=1;fontStyle=1;glass=0;sketch=0;fontSize=12;points=[[0,0.5,0,0,0],[0.5,0,0,0,0],[0.5,1,0,0,0],[1,0.5,0,0,0]];shadow=1;" vertex="1" parent="EpTkJST8O4hXrJpNrsDW-1">
          <mxGeometry x="-1010" y="412.5" width="80" height="80" as="geometry" />
        </mxCell>
        <mxCell id="EpTkJST8O4hXrJpNrsDW-31" style="edgeStyle=orthogonalEdgeStyle;rounded=1;orthogonalLoop=1;jettySize=auto;html=1;strokeWidth=2;fillColor=#d5e8d4;strokeColor=#82b366;" edge="1" parent="EpTkJST8O4hXrJpNrsDW-1" source="EpTkJST8O4hXrJpNrsDW-32" target="EpTkJST8O4hXrJpNrsDW-63">
          <mxGeometry relative="1" as="geometry" />
        </mxCell>
        <mxCell id="EpTkJST8O4hXrJpNrsDW-32" value="close" style="rhombus;whiteSpace=wrap;html=1;rounded=1;fontStyle=1;glass=0;sketch=0;fontSize=12;points=[[0,0.5,0,0,0],[0.5,0,0,0,0],[0.5,1,0,0,0],[1,0.5,0,0,0]];shadow=1;" vertex="1" parent="EpTkJST8O4hXrJpNrsDW-1">
          <mxGeometry x="-1070" y="460" width="80" height="80" as="geometry" />
        </mxCell>
        <mxCell id="EpTkJST8O4hXrJpNrsDW-33" style="edgeStyle=orthogonalEdgeStyle;rounded=1;orthogonalLoop=1;jettySize=auto;html=1;entryX=0;entryY=0.5;entryDx=0;entryDy=0;entryPerimeter=0;strokeWidth=2;fillColor=#d5e8d4;strokeColor=#82b366;" edge="1" parent="EpTkJST8O4hXrJpNrsDW-1" source="EpTkJST8O4hXrJpNrsDW-34" target="EpTkJST8O4hXrJpNrsDW-59">
          <mxGeometry relative="1" as="geometry" />
        </mxCell>
        <mxCell id="EpTkJST8O4hXrJpNrsDW-34" value="front2" style="rhombus;whiteSpace=wrap;html=1;rounded=1;fontStyle=1;glass=0;sketch=0;fontSize=12;points=[[0,0.5,0,0,0],[0.5,0,0,0,0],[0.5,1,0,0,0],[1,0.5,0,0,0]];shadow=1;strokeWidth=2;" vertex="1" parent="EpTkJST8O4hXrJpNrsDW-1">
          <mxGeometry x="-1000" y="310" width="80" height="80" as="geometry" />
        </mxCell>
        <mxCell id="EpTkJST8O4hXrJpNrsDW-35" value="" style="edgeStyle=orthogonalEdgeStyle;rounded=1;orthogonalLoop=1;jettySize=auto;html=1;entryX=0;entryY=0.5;entryDx=0;entryDy=0;entryPerimeter=0;strokeColor=#000000;exitX=1;exitY=0.5;exitDx=0;exitDy=0;exitPerimeter=0;strokeWidth=2;" edge="1" parent="EpTkJST8O4hXrJpNrsDW-1" source="EpTkJST8O4hXrJpNrsDW-57" target="EpTkJST8O4hXrJpNrsDW-47">
          <mxGeometry x="0.0091" relative="1" as="geometry">
            <mxPoint x="313.25" y="417" as="targetPoint" />
            <Array as="points">
              <mxPoint x="-440" y="299" />
              <mxPoint x="-440" y="230" />
              <mxPoint x="220" y="230" />
              <mxPoint x="220" y="153" />
            </Array>
            <mxPoint as="offset" />
          </mxGeometry>
        </mxCell>
        <mxCell id="EpTkJST8O4hXrJpNrsDW-36" style="edgeStyle=orthogonalEdgeStyle;rounded=0;orthogonalLoop=1;jettySize=auto;html=1;strokeWidth=2;fillColor=#d5e8d4;strokeColor=#82b366;" edge="1" parent="EpTkJST8O4hXrJpNrsDW-1" source="EpTkJST8O4hXrJpNrsDW-37" target="EpTkJST8O4hXrJpNrsDW-58">
          <mxGeometry relative="1" as="geometry" />
        </mxCell>
        <mxCell id="EpTkJST8O4hXrJpNrsDW-37" value="title" style="rhombus;whiteSpace=wrap;html=1;rounded=1;fontStyle=1;glass=0;sketch=0;fontSize=12;points=[[0,0.5,0,0,0],[0.5,0,0,0,0],[0.5,1,0,0,0],[1,0.5,0,0,0]];shadow=1;" vertex="1" parent="EpTkJST8O4hXrJpNrsDW-1">
          <mxGeometry x="-1070" y="260" width="80" height="80" as="geometry" />
        </mxCell>
        <mxCell id="EpTkJST8O4hXrJpNrsDW-38" style="edgeStyle=orthogonalEdgeStyle;rounded=1;orthogonalLoop=1;jettySize=auto;html=1;exitX=1;exitY=0.5;exitDx=0;exitDy=0;exitPerimeter=0;entryX=0;entryY=0.5;entryDx=0;entryDy=0;entryPerimeter=0;strokeColor=#000000;strokeWidth=2;" edge="1" parent="EpTkJST8O4hXrJpNrsDW-1" source="EpTkJST8O4hXrJpNrsDW-60" target="EpTkJST8O4hXrJpNrsDW-17">
          <mxGeometry relative="1" as="geometry">
            <mxPoint x="-279.25" y="392.4999999999998" as="sourcePoint" />
            <Array as="points">
              <mxPoint x="-629" y="345" />
              <mxPoint x="-390" y="345" />
              <mxPoint x="-390" y="307" />
            </Array>
          </mxGeometry>
        </mxCell>
        <mxCell id="EpTkJST8O4hXrJpNrsDW-39" style="edgeStyle=orthogonalEdgeStyle;rounded=1;orthogonalLoop=1;jettySize=auto;html=1;exitX=1;exitY=0.5;exitDx=0;exitDy=0;exitPerimeter=0;entryX=0;entryY=0.5;entryDx=0;entryDy=0;entryPerimeter=0;strokeColor=#666600;strokeWidth=2;" edge="1" parent="EpTkJST8O4hXrJpNrsDW-1" source="EpTkJST8O4hXrJpNrsDW-67" target="EpTkJST8O4hXrJpNrsDW-10">
          <mxGeometry relative="1" as="geometry">
            <mxPoint x="-279.25" y="485.5" as="sourcePoint" />
            <Array as="points">
              <mxPoint x="-520" y="433" />
              <mxPoint x="-520" y="520" />
              <mxPoint x="-360" y="520" />
            </Array>
          </mxGeometry>
        </mxCell>
        <mxCell id="EpTkJST8O4hXrJpNrsDW-40" style="edgeStyle=orthogonalEdgeStyle;rounded=1;orthogonalLoop=1;jettySize=auto;html=1;exitX=1;exitY=0.5;exitDx=0;exitDy=0;exitPerimeter=0;entryX=0;entryY=0.5;entryDx=0;entryDy=0;entryPerimeter=0;strokeWidth=2;" edge="1" parent="EpTkJST8O4hXrJpNrsDW-1" source="EpTkJST8O4hXrJpNrsDW-13" target="EpTkJST8O4hXrJpNrsDW-47">
          <mxGeometry relative="1" as="geometry" />
        </mxCell>
        <mxCell id="EpTkJST8O4hXrJpNrsDW-41" style="edgeStyle=orthogonalEdgeStyle;rounded=1;orthogonalLoop=1;jettySize=auto;html=1;exitX=1;exitY=0.5;exitDx=0;exitDy=0;exitPerimeter=0;entryX=0;entryY=0.5;entryDx=0;entryDy=0;entryPerimeter=0;" edge="1" parent="EpTkJST8O4hXrJpNrsDW-1" source="EpTkJST8O4hXrJpNrsDW-18" target="EpTkJST8O4hXrJpNrsDW-47">
          <mxGeometry relative="1" as="geometry">
            <mxPoint x="430" y="150" as="targetPoint" />
          </mxGeometry>
        </mxCell>
        <mxCell id="EpTkJST8O4hXrJpNrsDW-42" style="edgeStyle=orthogonalEdgeStyle;rounded=1;orthogonalLoop=1;jettySize=auto;html=1;exitX=1;exitY=0.5;exitDx=0;exitDy=0;exitPerimeter=0;entryX=0;entryY=0.5;entryDx=0;entryDy=0;entryPerimeter=0;strokeWidth=2;" edge="1" parent="EpTkJST8O4hXrJpNrsDW-1" source="EpTkJST8O4hXrJpNrsDW-4" target="EpTkJST8O4hXrJpNrsDW-47">
          <mxGeometry relative="1" as="geometry">
            <Array as="points">
              <mxPoint x="220" y="439" />
              <mxPoint x="220" y="153" />
            </Array>
          </mxGeometry>
        </mxCell>
        <mxCell id="EpTkJST8O4hXrJpNrsDW-43" value="buffer" style="rounded=1;whiteSpace=wrap;html=1;sketch=0;container=1;recursiveResize=0;verticalAlign=top;arcSize=6;fontStyle=1;autosize=0;points=[];absoluteArcSize=1;shadow=1;strokeColor=#001DBC;fillColor=#0050ef;fontColor=#ffffff;" vertex="1" parent="EpTkJST8O4hXrJpNrsDW-1">
          <mxGeometry x="426.75" y="70" width="134" height="154" as="geometry">
            <mxRectangle x="-98" y="-1230" width="99" height="26" as="alternateBounds" />
          </mxGeometry>
        </mxCell>
        <mxCell id="EpTkJST8O4hXrJpNrsDW-44" value="open" style="rounded=1;whiteSpace=wrap;html=1;sketch=0;points=[[0,0.5,0,0,0],[1,0.5,0,0,0]];arcSize=50;" vertex="1" parent="EpTkJST8O4hXrJpNrsDW-43">
          <mxGeometry x="-16.75" y="36" width="66" height="25" as="geometry" />
        </mxCell>
        <mxCell id="EpTkJST8O4hXrJpNrsDW-45" value="output" style="rounded=1;whiteSpace=wrap;html=1;sketch=0;points=[[0,0.5,0,0,0],[1,0.5,0,0,0]];fillColor=#1ba1e2;fontColor=#ffffff;strokeColor=#006EAF;arcSize=50;" vertex="1" parent="EpTkJST8O4hXrJpNrsDW-43">
          <mxGeometry x="84.75" y="82.5" width="66" height="25" as="geometry" />
        </mxCell>
        <mxCell id="EpTkJST8O4hXrJpNrsDW-46" value="close" style="rounded=1;whiteSpace=wrap;html=1;sketch=0;points=[[0,0.5,0,0,0],[1,0.5,0,0,0]];arcSize=50;" vertex="1" parent="EpTkJST8O4hXrJpNrsDW-43">
          <mxGeometry x="-16.75" y="107.5" width="66" height="25" as="geometry" />
        </mxCell>
        <mxCell id="EpTkJST8O4hXrJpNrsDW-47" value="append" style="rounded=1;whiteSpace=wrap;html=1;sketch=0;points=[[0,0.5,0,0,0],[1,0.5,0,0,0]];arcSize=50;" vertex="1" parent="EpTkJST8O4hXrJpNrsDW-43">
          <mxGeometry x="-16.75" y="70" width="66" height="25" as="geometry" />
        </mxCell>
        <mxCell id="EpTkJST8O4hXrJpNrsDW-48" value="filewriter" style="rounded=1;whiteSpace=wrap;html=1;sketch=0;container=1;recursiveResize=0;verticalAlign=top;arcSize=6;fontStyle=1;autosize=0;points=[];absoluteArcSize=1;shadow=1;strokeColor=#001DBC;fillColor=#0050ef;fontColor=#ffffff;" vertex="1" parent="EpTkJST8O4hXrJpNrsDW-1">
          <mxGeometry x="672.75" y="70" width="134" height="125" as="geometry">
            <mxRectangle x="-98" y="-1230" width="99" height="26" as="alternateBounds" />
          </mxGeometry>
        </mxCell>
        <mxCell id="EpTkJST8O4hXrJpNrsDW-49" value="filename" style="rounded=1;whiteSpace=wrap;html=1;sketch=0;points=[[0,0.5,0,0,0],[1,0.5,0,0,0]];arcSize=50;" vertex="1" parent="EpTkJST8O4hXrJpNrsDW-48">
          <mxGeometry x="-16.75" y="36" width="66" height="25" as="geometry" />
        </mxCell>
        <mxCell id="EpTkJST8O4hXrJpNrsDW-50" value="error" style="rounded=1;whiteSpace=wrap;html=1;sketch=0;points=[[0,0.5,0,0,0],[1,0.5,0,0,0]];fillColor=#1ba1e2;fontColor=#ffffff;strokeColor=#006EAF;arcSize=50;" vertex="1" parent="EpTkJST8O4hXrJpNrsDW-48">
          <mxGeometry x="84.75" y="82.5" width="66" height="25" as="geometry" />
        </mxCell>
        <mxCell id="EpTkJST8O4hXrJpNrsDW-51" value="data" style="rounded=1;whiteSpace=wrap;html=1;sketch=0;points=[[0,0.5,0,0,0],[1,0.5,0,0,0]];arcSize=50;" vertex="1" parent="EpTkJST8O4hXrJpNrsDW-48">
          <mxGeometry x="-16.75" y="82.5" width="66" height="25" as="geometry" />
        </mxCell>
        <mxCell id="EpTkJST8O4hXrJpNrsDW-52" value="deracer7" style="rounded=1;whiteSpace=wrap;html=1;sketch=0;container=1;recursiveResize=0;verticalAlign=top;arcSize=6;fontStyle=1;autosize=0;points=[];absoluteArcSize=1;shadow=1;strokeColor=#001DBC;fillColor=#0050ef;fontColor=#ffffff;" vertex="1" parent="EpTkJST8O4hXrJpNrsDW-1">
          <mxGeometry x="-780" y="157.5" width="150.75" height="375" as="geometry">
            <mxRectangle x="-98" y="-1230" width="99" height="26" as="alternateBounds" />
          </mxGeometry>
        </mxCell>
        <mxCell id="EpTkJST8O4hXrJpNrsDW-53" value="input1" style="rounded=1;whiteSpace=wrap;html=1;sketch=0;points=[[0,0.5,0,0,0],[1,0.5,0,0,0]];arcSize=50;" vertex="1" parent="EpTkJST8O4hXrJpNrsDW-52">
          <mxGeometry x="-16.75" y="36" width="66" height="25" as="geometry" />
        </mxCell>
        <mxCell id="EpTkJST8O4hXrJpNrsDW-54" value="output_file" style="rounded=1;whiteSpace=wrap;html=1;sketch=0;points=[[0,0.5,0,0,0],[1,0.5,0,0,0]];fillColor=#1ba1e2;fontColor=#ffffff;strokeColor=#006EAF;arcSize=50;" vertex="1" parent="EpTkJST8O4hXrJpNrsDW-52">
          <mxGeometry x="84.75" y="36" width="66" height="25" as="geometry" />
        </mxCell>
        <mxCell id="EpTkJST8O4hXrJpNrsDW-55" value="input2" style="rounded=1;whiteSpace=wrap;html=1;sketch=0;points=[[0,0.5,0,0,0],[1,0.5,0,0,0]];arcSize=50;" vertex="1" parent="EpTkJST8O4hXrJpNrsDW-52">
          <mxGeometry x="-16.75" y="82.5" width="66" height="25" as="geometry" />
        </mxCell>
        <mxCell id="EpTkJST8O4hXrJpNrsDW-56" value="front1" style="rounded=1;whiteSpace=wrap;html=1;sketch=0;points=[[0,0.5,0,0,0],[1,0.5,0,0,0]];fillColor=#1ba1e2;fontColor=#ffffff;strokeColor=#006EAF;arcSize=50;" vertex="1" parent="EpTkJST8O4hXrJpNrsDW-52">
          <mxGeometry x="84.75" y="82.5" width="66" height="25" as="geometry" />
        </mxCell>
        <mxCell id="EpTkJST8O4hXrJpNrsDW-57" value="title" style="rounded=1;whiteSpace=wrap;html=1;sketch=0;points=[[0,0.5,0,0,0],[1,0.5,0,0,0]];fillColor=#1ba1e2;fontColor=#ffffff;strokeColor=#006EAF;arcSize=50;" vertex="1" parent="EpTkJST8O4hXrJpNrsDW-52">
          <mxGeometry x="84.75" y="129" width="66" height="25" as="geometry" />
        </mxCell>
        <mxCell id="EpTkJST8O4hXrJpNrsDW-58" value="input3" style="rounded=1;whiteSpace=wrap;html=1;sketch=0;points=[[0,0.5,0,0,0],[1,0.5,0,0,0]];arcSize=50;" vertex="1" parent="EpTkJST8O4hXrJpNrsDW-52">
          <mxGeometry x="-16.75" y="129" width="66" height="25" as="geometry" />
        </mxCell>
        <mxCell id="EpTkJST8O4hXrJpNrsDW-59" value="input4" style="rounded=1;whiteSpace=wrap;html=1;sketch=0;points=[[0,0.5,0,0,0],[1,0.5,0,0,0]];arcSize=50;" vertex="1" parent="EpTkJST8O4hXrJpNrsDW-52">
          <mxGeometry x="-16.75" y="170" width="66" height="25" as="geometry" />
        </mxCell>
        <mxCell id="EpTkJST8O4hXrJpNrsDW-60" value="front2" style="rounded=1;whiteSpace=wrap;html=1;sketch=0;points=[[0,0.5,0,0,0],[1,0.5,0,0,0]];fillColor=#1ba1e2;fontColor=#ffffff;strokeColor=#006EAF;arcSize=50;" vertex="1" parent="EpTkJST8O4hXrJpNrsDW-52">
          <mxGeometry x="84.75" y="170" width="66" height="25" as="geometry" />
        </mxCell>
        <mxCell id="EpTkJST8O4hXrJpNrsDW-61" value="input5" style="rounded=1;whiteSpace=wrap;html=1;sketch=0;points=[[0,0.5,0,0,0],[1,0.5,0,0,0]];arcSize=50;" vertex="1" parent="EpTkJST8O4hXrJpNrsDW-52">
          <mxGeometry x="-16.75" y="216.5" width="66" height="25" as="geometry" />
        </mxCell>
        <mxCell id="EpTkJST8O4hXrJpNrsDW-62" value="input6" style="rounded=1;whiteSpace=wrap;html=1;sketch=0;points=[[0,0.5,0,0,0],[1,0.5,0,0,0]];arcSize=50;" vertex="1" parent="EpTkJST8O4hXrJpNrsDW-52">
          <mxGeometry x="-16.75" y="263" width="66" height="25" as="geometry" />
        </mxCell>
        <mxCell id="EpTkJST8O4hXrJpNrsDW-63" value="input7" style="rounded=1;whiteSpace=wrap;html=1;sketch=0;points=[[0,0.5,0,0,0],[1,0.5,0,0,0]];arcSize=50;" vertex="1" parent="EpTkJST8O4hXrJpNrsDW-52">
          <mxGeometry x="-16.75" y="310" width="66" height="25" as="geometry" />
        </mxCell>
        <mxCell id="EpTkJST8O4hXrJpNrsDW-64" value="close" style="rounded=1;whiteSpace=wrap;html=1;sketch=0;points=[[0,0.5,0,0,0],[1,0.5,0,0,0]];fillColor=#1ba1e2;fontColor=#ffffff;strokeColor=#006EAF;arcSize=50;" vertex="1" parent="EpTkJST8O4hXrJpNrsDW-52">
          <mxGeometry x="84.75" y="310" width="66" height="25" as="geometry" />
        </mxCell>
        <mxCell id="EpTkJST8O4hXrJpNrsDW-65" value="error" style="rounded=1;whiteSpace=wrap;html=1;sketch=0;points=[[0,0.5,0,0,0],[1,0.5,0,0,0]];fillColor=#1ba1e2;fontColor=#ffffff;strokeColor=#006EAF;arcSize=50;" vertex="1" parent="EpTkJST8O4hXrJpNrsDW-52">
          <mxGeometry x="84.75" y="350" width="66" height="25" as="geometry" />
        </mxCell>
        <mxCell id="EpTkJST8O4hXrJpNrsDW-66" value="obsidian_file" style="rounded=1;whiteSpace=wrap;html=1;sketch=0;points=[[0,0.5,0,0,0],[1,0.5,0,0,0]];fillColor=#1ba1e2;fontColor=#ffffff;strokeColor=#006EAF;arcSize=50;" vertex="1" parent="EpTkJST8O4hXrJpNrsDW-52">
          <mxGeometry x="80" y="212.5" width="66" height="25" as="geometry" />
        </mxCell>
        <mxCell id="EpTkJST8O4hXrJpNrsDW-67" value="back" style="rounded=1;whiteSpace=wrap;html=1;sketch=0;points=[[0,0.5,0,0,0],[1,0.5,0,0,0]];fillColor=#1ba1e2;fontColor=#ffffff;strokeColor=#006EAF;arcSize=50;" vertex="1" parent="EpTkJST8O4hXrJpNrsDW-52">
          <mxGeometry x="80" y="263" width="66" height="25" as="geometry" />
        </mxCell>
        <mxCell id="EpTkJST8O4hXrJpNrsDW-68" style="edgeStyle=orthogonalEdgeStyle;rounded=1;orthogonalLoop=1;jettySize=auto;html=1;entryX=0;entryY=0.5;entryDx=0;entryDy=0;entryPerimeter=0;strokeWidth=2;" edge="1" parent="EpTkJST8O4hXrJpNrsDW-1" source="EpTkJST8O4hXrJpNrsDW-54" target="EpTkJST8O4hXrJpNrsDW-44">
          <mxGeometry relative="1" as="geometry">
            <Array as="points">
              <mxPoint x="-590" y="206" />
              <mxPoint x="-590" y="40" />
              <mxPoint x="370" y="40" />
              <mxPoint x="370" y="119" />
            </Array>
          </mxGeometry>
        </mxCell>
        <mxCell id="EpTkJST8O4hXrJpNrsDW-69" style="edgeStyle=orthogonalEdgeStyle;rounded=0;orthogonalLoop=1;jettySize=auto;html=1;exitX=1;exitY=0.5;exitDx=0;exitDy=0;exitPerimeter=0;entryX=0;entryY=0.5;entryDx=0;entryDy=0;entryPerimeter=0;strokeWidth=2;" edge="1" parent="EpTkJST8O4hXrJpNrsDW-1" source="EpTkJST8O4hXrJpNrsDW-45" target="EpTkJST8O4hXrJpNrsDW-51">
          <mxGeometry relative="1" as="geometry">
            <Array as="points">
              <mxPoint x="610" y="165" />
              <mxPoint x="610" y="165" />
            </Array>
          </mxGeometry>
        </mxCell>
        <mxCell id="EpTkJST8O4hXrJpNrsDW-70" style="edgeStyle=orthogonalEdgeStyle;rounded=1;orthogonalLoop=1;jettySize=auto;html=1;exitX=1;exitY=0.5;exitDx=0;exitDy=0;exitPerimeter=0;entryX=0;entryY=0.5;entryDx=0;entryDy=0;entryPerimeter=0;strokeWidth=2;" edge="1" parent="EpTkJST8O4hXrJpNrsDW-1" source="EpTkJST8O4hXrJpNrsDW-8" target="EpTkJST8O4hXrJpNrsDW-47">
          <mxGeometry relative="1" as="geometry">
            <Array as="points">
              <mxPoint x="-120" y="519" />
              <mxPoint x="-120" y="540" />
              <mxPoint x="220" y="540" />
              <mxPoint x="220" y="153" />
            </Array>
          </mxGeometry>
        </mxCell>
        <mxCell id="EpTkJST8O4hXrJpNrsDW-71" value="" style="shape=orEllipse;perimeter=ellipsePerimeter;whiteSpace=wrap;html=1;backgroundOutline=1;opacity=20;" vertex="1" parent="EpTkJST8O4hXrJpNrsDW-1">
          <mxGeometry x="-1080" y="720" width="80" height="80" as="geometry" />
        </mxCell>
        <mxCell id="EpTkJST8O4hXrJpNrsDW-72" value="noop" style="rounded=1;whiteSpace=wrap;html=1;sketch=0;container=1;recursiveResize=0;verticalAlign=top;arcSize=6;fontStyle=1;autosize=0;points=[];absoluteArcSize=1;shadow=1;strokeColor=#001DBC;fillColor=#0050ef;fontColor=#ffffff;" vertex="1" parent="EpTkJST8O4hXrJpNrsDW-1">
          <mxGeometry x="-200" y="760" width="134" height="87" as="geometry">
            <mxRectangle x="-98" y="-1230" width="99" height="26" as="alternateBounds" />
          </mxGeometry>
        </mxCell>
        <mxCell id="EpTkJST8O4hXrJpNrsDW-73" value="input" style="rounded=1;whiteSpace=wrap;html=1;sketch=0;points=[[0,0.5,0,0,0],[1,0.5,0,0,0]];arcSize=50;" vertex="1" parent="EpTkJST8O4hXrJpNrsDW-72">
          <mxGeometry x="-16.75" y="36" width="66" height="25" as="geometry" />
        </mxCell>
        <mxCell id="EpTkJST8O4hXrJpNrsDW-74" value="output" style="rounded=1;whiteSpace=wrap;html=1;sketch=0;points=[[0,0.5,0,0,0],[1,0.5,0,0,0]];fillColor=#1ba1e2;fontColor=#ffffff;strokeColor=#006EAF;arcSize=50;" vertex="1" parent="EpTkJST8O4hXrJpNrsDW-72">
          <mxGeometry x="84.75" y="36" width="66" height="25" as="geometry" />
        </mxCell>
        <mxCell id="EpTkJST8O4hXrJpNrsDW-75" style="edgeStyle=orthogonalEdgeStyle;rounded=1;orthogonalLoop=1;jettySize=auto;html=1;entryX=0;entryY=0.5;entryDx=0;entryDy=0;entryPerimeter=0;" edge="1" parent="EpTkJST8O4hXrJpNrsDW-1" source="EpTkJST8O4hXrJpNrsDW-64" target="EpTkJST8O4hXrJpNrsDW-46">
          <mxGeometry relative="1" as="geometry">
            <Array as="points">
              <mxPoint x="-550" y="480" />
              <mxPoint x="-550" y="728" />
              <mxPoint x="310" y="728" />
              <mxPoint x="310" y="190" />
            </Array>
          </mxGeometry>
        </mxCell>
        <mxCell id="EpTkJST8O4hXrJpNrsDW-76" value="errors" style="" visible="0" parent="EpTkJST8O4hXrJpNrsDW-0" />
        <mxCell id="EpTkJST8O4hXrJpNrsDW-77" value="filereader" style="rounded=1;whiteSpace=wrap;html=1;sketch=0;container=1;recursiveResize=0;verticalAlign=top;arcSize=6;fontStyle=1;autosize=0;points=[];absoluteArcSize=1;shadow=1;strokeColor=#001DBC;fillColor=#0050ef;fontColor=#ffffff;opacity=20;" vertex="1" parent="EpTkJST8O4hXrJpNrsDW-76">
          <mxGeometry x="-50" y="390" width="134" height="125" as="geometry">
            <mxRectangle x="-98" y="-1230" width="99" height="26" as="alternateBounds" />
          </mxGeometry>
        </mxCell>
        <mxCell id="EpTkJST8O4hXrJpNrsDW-78" value="filename" style="rounded=1;whiteSpace=wrap;html=1;sketch=0;points=[[0,0.5,0,0,0],[1,0.5,0,0,0]];arcSize=50;opacity=20;" vertex="1" parent="EpTkJST8O4hXrJpNrsDW-77">
          <mxGeometry x="-16.75" y="36" width="66" height="25" as="geometry" />
        </mxCell>
        <mxCell id="EpTkJST8O4hXrJpNrsDW-79" value="out" style="rounded=1;whiteSpace=wrap;html=1;sketch=0;points=[[0,0.5,0,0,0],[1,0.5,0,0,0]];fillColor=#1ba1e2;fontColor=#ffffff;strokeColor=#006EAF;arcSize=50;opacity=20;" vertex="1" parent="EpTkJST8O4hXrJpNrsDW-77">
          <mxGeometry x="84.75" y="36" width="66" height="25" as="geometry" />
        </mxCell>
        <mxCell id="EpTkJST8O4hXrJpNrsDW-80" value="error" style="rounded=1;whiteSpace=wrap;html=1;sketch=0;points=[[0,0.5,0,0,0],[1,0.5,0,0,0]];fillColor=#1ba1e2;fontColor=#ffffff;strokeColor=#006EAF;arcSize=50;" vertex="1" parent="EpTkJST8O4hXrJpNrsDW-77">
          <mxGeometry x="84.75" y="82.5" width="66" height="25" as="geometry" />
        </mxCell>
        <mxCell id="EpTkJST8O4hXrJpNrsDW-81" value="stdout" style="rhombus;whiteSpace=wrap;html=1;rounded=1;fillColor=#0050ef;fontColor=#ffffff;strokeColor=#001DBC;fontStyle=1;glass=0;sketch=0;fontSize=12;points=[[0,0.5,0,0,0],[0.5,0,0,0,0],[0.5,1,0,0,0],[1,0.5,0,0,0]];shadow=1;opacity=20;" vertex="1" parent="EpTkJST8O4hXrJpNrsDW-76">
          <mxGeometry x="450" y="529" width="80" height="80" as="geometry" />
        </mxCell>
        <mxCell id="EpTkJST8O4hXrJpNrsDW-82" value="filereader" style="rounded=1;whiteSpace=wrap;html=1;sketch=0;container=1;recursiveResize=0;verticalAlign=top;arcSize=6;fontStyle=1;autosize=0;points=[];absoluteArcSize=1;shadow=1;strokeColor=#001DBC;fillColor=#0050ef;fontColor=#ffffff;opacity=20;" vertex="1" parent="EpTkJST8O4hXrJpNrsDW-76">
          <mxGeometry x="-310" y="470" width="134" height="125" as="geometry">
            <mxRectangle x="-98" y="-1230" width="99" height="26" as="alternateBounds" />
          </mxGeometry>
        </mxCell>
        <mxCell id="EpTkJST8O4hXrJpNrsDW-83" value="out" style="rounded=1;whiteSpace=wrap;html=1;sketch=0;points=[[0,0.5,0,0,0],[1,0.5,0,0,0]];fillColor=#1ba1e2;fontColor=#ffffff;strokeColor=#006EAF;arcSize=50;opacity=20;" vertex="1" parent="EpTkJST8O4hXrJpNrsDW-82">
          <mxGeometry x="84.75" y="36" width="66" height="25" as="geometry" />
        </mxCell>
        <mxCell id="EpTkJST8O4hXrJpNrsDW-84" value="error" style="rounded=1;whiteSpace=wrap;html=1;sketch=0;points=[[0,0.5,0,0,0],[1,0.5,0,0,0]];fillColor=#1ba1e2;fontColor=#ffffff;strokeColor=#006EAF;arcSize=50;" vertex="1" parent="EpTkJST8O4hXrJpNrsDW-82">
          <mxGeometry x="84.75" y="82.5" width="66" height="25" as="geometry" />
        </mxCell>
        <mxCell id="EpTkJST8O4hXrJpNrsDW-85" value="filename" style="rounded=1;whiteSpace=wrap;html=1;sketch=0;points=[[0,0.5,0,0,0],[1,0.5,0,0,0]];arcSize=50;opacity=20;" vertex="1" parent="EpTkJST8O4hXrJpNrsDW-82">
          <mxGeometry x="-26" y="36" width="66" height="25" as="geometry" />
        </mxCell>
        <mxCell id="EpTkJST8O4hXrJpNrsDW-86" value="filereader" style="rounded=1;whiteSpace=wrap;html=1;sketch=0;container=1;recursiveResize=0;verticalAlign=top;arcSize=6;fontStyle=1;autosize=0;points=[];absoluteArcSize=1;shadow=1;strokeColor=#001DBC;fillColor=#0050ef;fontColor=#ffffff;opacity=20;" vertex="1" parent="EpTkJST8O4hXrJpNrsDW-76">
          <mxGeometry x="-120" y="77.5" width="134" height="125" as="geometry">
            <mxRectangle x="-98" y="-1230" width="99" height="26" as="alternateBounds" />
          </mxGeometry>
        </mxCell>
        <mxCell id="EpTkJST8O4hXrJpNrsDW-87" value="filename" style="rounded=1;whiteSpace=wrap;html=1;sketch=0;points=[[0,0.5,0,0,0],[1,0.5,0,0,0]];arcSize=50;opacity=20;" vertex="1" parent="EpTkJST8O4hXrJpNrsDW-86">
          <mxGeometry x="-16.75" y="36" width="66" height="25" as="geometry" />
        </mxCell>
        <mxCell id="EpTkJST8O4hXrJpNrsDW-88" value="out" style="rounded=1;whiteSpace=wrap;html=1;sketch=0;points=[[0,0.5,0,0,0],[1,0.5,0,0,0]];fillColor=#1ba1e2;fontColor=#ffffff;strokeColor=#006EAF;arcSize=50;opacity=20;" vertex="1" parent="EpTkJST8O4hXrJpNrsDW-86">
          <mxGeometry x="84.75" y="36" width="66" height="25" as="geometry" />
        </mxCell>
        <mxCell id="EpTkJST8O4hXrJpNrsDW-89" value="error" style="rounded=1;whiteSpace=wrap;html=1;sketch=0;points=[[0,0.5,0,0,0],[1,0.5,0,0,0]];fillColor=#1ba1e2;fontColor=#ffffff;strokeColor=#006EAF;arcSize=50;" vertex="1" parent="EpTkJST8O4hXrJpNrsDW-86">
          <mxGeometry x="84.75" y="82.5" width="66" height="25" as="geometry" />
        </mxCell>
        <mxCell id="EpTkJST8O4hXrJpNrsDW-90" value="stderr" style="rhombus;whiteSpace=wrap;html=1;rounded=1;fillColor=#0050ef;fontColor=#ffffff;strokeColor=#001DBC;fontStyle=1;glass=0;sketch=0;fontSize=12;points=[[0,0.5,0,0,0],[0.5,0,0,0,0],[0.5,1,0,0,0],[1,0.5,0,0,0]];shadow=1;" vertex="1" parent="EpTkJST8O4hXrJpNrsDW-76">
          <mxGeometry x="453.75" y="620" width="80" height="80" as="geometry" />
        </mxCell>
        <mxCell id="EpTkJST8O4hXrJpNrsDW-91" value="filereader" style="rounded=1;whiteSpace=wrap;html=1;sketch=0;container=1;recursiveResize=0;verticalAlign=top;arcSize=6;fontStyle=1;autosize=0;points=[];absoluteArcSize=1;shadow=1;strokeColor=#001DBC;fillColor=#0050ef;fontColor=#ffffff;opacity=20;" vertex="1" parent="EpTkJST8O4hXrJpNrsDW-76">
          <mxGeometry x="-120" y="240" width="134" height="125" as="geometry">
            <mxRectangle x="-98" y="-1230" width="99" height="26" as="alternateBounds" />
          </mxGeometry>
        </mxCell>
        <mxCell id="EpTkJST8O4hXrJpNrsDW-92" value="filename" style="rounded=1;whiteSpace=wrap;html=1;sketch=0;points=[[0,0.5,0,0,0],[1,0.5,0,0,0]];arcSize=50;opacity=20;" vertex="1" parent="EpTkJST8O4hXrJpNrsDW-91">
          <mxGeometry x="-20" y="55" width="66" height="25" as="geometry" />
        </mxCell>
        <mxCell id="EpTkJST8O4hXrJpNrsDW-93" value="out" style="rounded=1;whiteSpace=wrap;html=1;sketch=0;points=[[0,0.5,0,0,0],[1,0.5,0,0,0]];fillColor=#1ba1e2;fontColor=#ffffff;strokeColor=#006EAF;arcSize=50;opacity=20;" vertex="1" parent="EpTkJST8O4hXrJpNrsDW-91">
          <mxGeometry x="84.75" y="36" width="66" height="25" as="geometry" />
        </mxCell>
        <mxCell id="EpTkJST8O4hXrJpNrsDW-94" value="error" style="rounded=1;whiteSpace=wrap;html=1;sketch=0;points=[[0,0.5,0,0,0],[1,0.5,0,0,0]];fillColor=#1ba1e2;fontColor=#ffffff;strokeColor=#006EAF;arcSize=50;" vertex="1" parent="EpTkJST8O4hXrJpNrsDW-91">
          <mxGeometry x="84.75" y="82.5" width="66" height="25" as="geometry" />
        </mxCell>
        <mxCell id="EpTkJST8O4hXrJpNrsDW-95" value="obsidian_file" style="rhombus;whiteSpace=wrap;html=1;rounded=1;fontStyle=1;glass=0;sketch=0;fontSize=12;points=[[0,0.5,0,0,0],[0.5,0,0,0,0],[0.5,1,0,0,0],[1,0.5,0,0,0]];shadow=1;opacity=20;" vertex="1" parent="EpTkJST8O4hXrJpNrsDW-76">
          <mxGeometry x="-1080" y="360" width="80" height="80" as="geometry" />
        </mxCell>
        <mxCell id="EpTkJST8O4hXrJpNrsDW-96" value="output_file" style="rhombus;whiteSpace=wrap;html=1;rounded=1;fontStyle=1;glass=0;sketch=0;fontSize=12;points=[[0,0.5,0,0,0],[0.5,0,0,0,0],[0.5,1,0,0,0],[1,0.5,0,0,0]];shadow=1;opacity=20;" vertex="1" parent="EpTkJST8O4hXrJpNrsDW-76">
          <mxGeometry x="-1070" y="138.5" width="80" height="80" as="geometry" />
        </mxCell>
        <mxCell id="EpTkJST8O4hXrJpNrsDW-97" value="front1" style="rhombus;whiteSpace=wrap;html=1;rounded=1;fontStyle=1;glass=0;sketch=0;fontSize=12;points=[[0,0.5,0,0,0],[0.5,0,0,0,0],[0.5,1,0,0,0],[1,0.5,0,0,0]];shadow=1;strokeWidth=2;opacity=20;" vertex="1" parent="EpTkJST8O4hXrJpNrsDW-76">
          <mxGeometry x="-1000" y="210" width="80" height="80" as="geometry" />
        </mxCell>
        <mxCell id="EpTkJST8O4hXrJpNrsDW-98" value="back" style="rhombus;whiteSpace=wrap;html=1;rounded=1;fontStyle=1;glass=0;sketch=0;fontSize=12;points=[[0,0.5,0,0,0],[0.5,0,0,0,0],[0.5,1,0,0,0],[1,0.5,0,0,0]];shadow=1;opacity=20;" vertex="1" parent="EpTkJST8O4hXrJpNrsDW-76">
          <mxGeometry x="-1010" y="412.5" width="80" height="80" as="geometry" />
        </mxCell>
        <mxCell id="EpTkJST8O4hXrJpNrsDW-99" value="close" style="rhombus;whiteSpace=wrap;html=1;rounded=1;fontStyle=1;glass=0;sketch=0;fontSize=12;points=[[0,0.5,0,0,0],[0.5,0,0,0,0],[0.5,1,0,0,0],[1,0.5,0,0,0]];shadow=1;opacity=20;" vertex="1" parent="EpTkJST8O4hXrJpNrsDW-76">
          <mxGeometry x="-1070" y="460" width="80" height="80" as="geometry" />
        </mxCell>
        <mxCell id="EpTkJST8O4hXrJpNrsDW-100" value="front2" style="rhombus;whiteSpace=wrap;html=1;rounded=1;fontStyle=1;glass=0;sketch=0;fontSize=12;points=[[0,0.5,0,0,0],[0.5,0,0,0,0],[0.5,1,0,0,0],[1,0.5,0,0,0]];shadow=1;strokeWidth=2;opacity=20;" vertex="1" parent="EpTkJST8O4hXrJpNrsDW-76">
          <mxGeometry x="-1000" y="310" width="80" height="80" as="geometry" />
        </mxCell>
        <mxCell id="EpTkJST8O4hXrJpNrsDW-101" value="title" style="rhombus;whiteSpace=wrap;html=1;rounded=1;fontStyle=1;glass=0;sketch=0;fontSize=12;points=[[0,0.5,0,0,0],[0.5,0,0,0,0],[0.5,1,0,0,0],[1,0.5,0,0,0]];shadow=1;opacity=20;" vertex="1" parent="EpTkJST8O4hXrJpNrsDW-76">
          <mxGeometry x="-1070" y="260" width="80" height="80" as="geometry" />
        </mxCell>
        <mxCell id="EpTkJST8O4hXrJpNrsDW-102" style="edgeStyle=orthogonalEdgeStyle;rounded=1;orthogonalLoop=1;jettySize=auto;html=1;exitX=1;exitY=0.5;exitDx=0;exitDy=0;exitPerimeter=0;entryX=0;entryY=0.5;entryDx=0;entryDy=0;entryPerimeter=0;strokeColor=#d6b656;fillColor=#fff2cc;strokeWidth=2;" edge="1" parent="EpTkJST8O4hXrJpNrsDW-76" source="EpTkJST8O4hXrJpNrsDW-89" target="EpTkJST8O4hXrJpNrsDW-90">
          <mxGeometry relative="1" as="geometry">
            <Array as="points">
              <mxPoint x="370" y="173" />
              <mxPoint x="370" y="660" />
            </Array>
          </mxGeometry>
        </mxCell>
        <mxCell id="EpTkJST8O4hXrJpNrsDW-103" style="edgeStyle=orthogonalEdgeStyle;rounded=1;orthogonalLoop=1;jettySize=auto;html=1;exitX=1;exitY=0.5;exitDx=0;exitDy=0;exitPerimeter=0;strokeColor=#d6b656;fillColor=#fff2cc;strokeWidth=2;" edge="1" parent="EpTkJST8O4hXrJpNrsDW-76" source="EpTkJST8O4hXrJpNrsDW-94" target="EpTkJST8O4hXrJpNrsDW-90">
          <mxGeometry relative="1" as="geometry">
            <Array as="points">
              <mxPoint x="370" y="335" />
              <mxPoint x="370" y="660" />
            </Array>
          </mxGeometry>
        </mxCell>
        <mxCell id="EpTkJST8O4hXrJpNrsDW-104" style="edgeStyle=orthogonalEdgeStyle;rounded=1;orthogonalLoop=1;jettySize=auto;html=1;exitX=1;exitY=0.5;exitDx=0;exitDy=0;exitPerimeter=0;entryX=0;entryY=0.5;entryDx=0;entryDy=0;entryPerimeter=0;strokeColor=#d6b656;fillColor=#fff2cc;strokeWidth=2;" edge="1" parent="EpTkJST8O4hXrJpNrsDW-76" source="EpTkJST8O4hXrJpNrsDW-80" target="EpTkJST8O4hXrJpNrsDW-90">
          <mxGeometry relative="1" as="geometry">
            <Array as="points">
              <mxPoint x="370" y="485" />
              <mxPoint x="370" y="660" />
            </Array>
          </mxGeometry>
        </mxCell>
        <mxCell id="EpTkJST8O4hXrJpNrsDW-105" style="edgeStyle=orthogonalEdgeStyle;rounded=1;orthogonalLoop=1;jettySize=auto;html=1;exitX=1;exitY=0.5;exitDx=0;exitDy=0;exitPerimeter=0;entryX=0;entryY=0.5;entryDx=0;entryDy=0;entryPerimeter=0;strokeColor=#d6b656;fillColor=#fff2cc;strokeWidth=2;" edge="1" parent="EpTkJST8O4hXrJpNrsDW-76" source="EpTkJST8O4hXrJpNrsDW-84" target="EpTkJST8O4hXrJpNrsDW-90">
          <mxGeometry relative="1" as="geometry">
            <Array as="points">
              <mxPoint x="-120" y="565" />
              <mxPoint x="-120" y="660" />
            </Array>
          </mxGeometry>
        </mxCell>
        <mxCell id="EpTkJST8O4hXrJpNrsDW-106" value="buffer" style="rounded=1;whiteSpace=wrap;html=1;sketch=0;container=1;recursiveResize=0;verticalAlign=top;arcSize=6;fontStyle=1;autosize=0;points=[];absoluteArcSize=1;shadow=1;strokeColor=#001DBC;fillColor=#0050ef;fontColor=#ffffff;opacity=20;" vertex="1" parent="EpTkJST8O4hXrJpNrsDW-76">
          <mxGeometry x="426.75" y="70" width="134" height="154" as="geometry">
            <mxRectangle x="-98" y="-1230" width="99" height="26" as="alternateBounds" />
          </mxGeometry>
        </mxCell>
        <mxCell id="EpTkJST8O4hXrJpNrsDW-107" value="open" style="rounded=1;whiteSpace=wrap;html=1;sketch=0;points=[[0,0.5,0,0,0],[1,0.5,0,0,0]];arcSize=50;opacity=20;" vertex="1" parent="EpTkJST8O4hXrJpNrsDW-106">
          <mxGeometry x="-16.75" y="36" width="66" height="25" as="geometry" />
        </mxCell>
        <mxCell id="EpTkJST8O4hXrJpNrsDW-108" value="output" style="rounded=1;whiteSpace=wrap;html=1;sketch=0;points=[[0,0.5,0,0,0],[1,0.5,0,0,0]];fillColor=#1ba1e2;fontColor=#ffffff;strokeColor=#006EAF;arcSize=50;opacity=20;" vertex="1" parent="EpTkJST8O4hXrJpNrsDW-106">
          <mxGeometry x="84.75" y="82.5" width="66" height="25" as="geometry" />
        </mxCell>
        <mxCell id="EpTkJST8O4hXrJpNrsDW-109" value="close" style="rounded=1;whiteSpace=wrap;html=1;sketch=0;points=[[0,0.5,0,0,0],[1,0.5,0,0,0]];arcSize=50;opacity=20;" vertex="1" parent="EpTkJST8O4hXrJpNrsDW-106">
          <mxGeometry x="-16.75" y="107.5" width="66" height="25" as="geometry" />
        </mxCell>
        <mxCell id="EpTkJST8O4hXrJpNrsDW-110" value="append" style="rounded=1;whiteSpace=wrap;html=1;sketch=0;points=[[0,0.5,0,0,0],[1,0.5,0,0,0]];arcSize=50;opacity=20;" vertex="1" parent="EpTkJST8O4hXrJpNrsDW-106">
          <mxGeometry x="-16.75" y="70" width="66" height="25" as="geometry" />
        </mxCell>
        <mxCell id="EpTkJST8O4hXrJpNrsDW-111" value="filewriter" style="rounded=1;whiteSpace=wrap;html=1;sketch=0;container=1;recursiveResize=0;verticalAlign=top;arcSize=6;fontStyle=1;autosize=0;points=[];absoluteArcSize=1;shadow=1;strokeColor=#001DBC;fillColor=#0050ef;fontColor=#ffffff;opacity=20;" vertex="1" parent="EpTkJST8O4hXrJpNrsDW-76">
          <mxGeometry x="672.75" y="70" width="134" height="125" as="geometry">
            <mxRectangle x="-98" y="-1230" width="99" height="26" as="alternateBounds" />
          </mxGeometry>
        </mxCell>
        <mxCell id="EpTkJST8O4hXrJpNrsDW-112" value="filename" style="rounded=1;whiteSpace=wrap;html=1;sketch=0;points=[[0,0.5,0,0,0],[1,0.5,0,0,0]];arcSize=50;opacity=20;" vertex="1" parent="EpTkJST8O4hXrJpNrsDW-111">
          <mxGeometry x="-16.75" y="36" width="66" height="25" as="geometry" />
        </mxCell>
        <mxCell id="EpTkJST8O4hXrJpNrsDW-113" value="error" style="rounded=1;whiteSpace=wrap;html=1;sketch=0;points=[[0,0.5,0,0,0],[1,0.5,0,0,0]];fillColor=#1ba1e2;fontColor=#ffffff;strokeColor=#006EAF;arcSize=50;" vertex="1" parent="EpTkJST8O4hXrJpNrsDW-111">
          <mxGeometry x="84.75" y="82.5" width="66" height="25" as="geometry" />
        </mxCell>
        <mxCell id="EpTkJST8O4hXrJpNrsDW-114" value="data" style="rounded=1;whiteSpace=wrap;html=1;sketch=0;points=[[0,0.5,0,0,0],[1,0.5,0,0,0]];arcSize=50;opacity=20;" vertex="1" parent="EpTkJST8O4hXrJpNrsDW-111">
          <mxGeometry x="-16.75" y="82.5" width="66" height="25" as="geometry" />
        </mxCell>
        <mxCell id="EpTkJST8O4hXrJpNrsDW-115" value="deracer7" style="rounded=1;whiteSpace=wrap;html=1;sketch=0;container=1;recursiveResize=0;verticalAlign=top;arcSize=6;fontStyle=1;autosize=0;points=[];absoluteArcSize=1;shadow=1;strokeColor=#001DBC;fillColor=#0050ef;fontColor=#ffffff;opacity=20;" vertex="1" parent="EpTkJST8O4hXrJpNrsDW-76">
          <mxGeometry x="-780" y="157.5" width="150.75" height="375" as="geometry">
            <mxRectangle x="-98" y="-1230" width="99" height="26" as="alternateBounds" />
          </mxGeometry>
        </mxCell>
        <mxCell id="EpTkJST8O4hXrJpNrsDW-116" value="input1" style="rounded=1;whiteSpace=wrap;html=1;sketch=0;points=[[0,0.5,0,0,0],[1,0.5,0,0,0]];arcSize=50;opacity=20;" vertex="1" parent="EpTkJST8O4hXrJpNrsDW-115">
          <mxGeometry x="-16.75" y="36" width="66" height="25" as="geometry" />
        </mxCell>
        <mxCell id="EpTkJST8O4hXrJpNrsDW-117" value="output_file" style="rounded=1;whiteSpace=wrap;html=1;sketch=0;points=[[0,0.5,0,0,0],[1,0.5,0,0,0]];fillColor=#1ba1e2;fontColor=#ffffff;strokeColor=#006EAF;arcSize=50;opacity=20;" vertex="1" parent="EpTkJST8O4hXrJpNrsDW-115">
          <mxGeometry x="84.75" y="36" width="66" height="25" as="geometry" />
        </mxCell>
        <mxCell id="EpTkJST8O4hXrJpNrsDW-118" value="input2" style="rounded=1;whiteSpace=wrap;html=1;sketch=0;points=[[0,0.5,0,0,0],[1,0.5,0,0,0]];arcSize=50;opacity=20;" vertex="1" parent="EpTkJST8O4hXrJpNrsDW-115">
          <mxGeometry x="-16.75" y="82.5" width="66" height="25" as="geometry" />
        </mxCell>
        <mxCell id="EpTkJST8O4hXrJpNrsDW-119" value="front1" style="rounded=1;whiteSpace=wrap;html=1;sketch=0;points=[[0,0.5,0,0,0],[1,0.5,0,0,0]];fillColor=#1ba1e2;fontColor=#ffffff;strokeColor=#006EAF;arcSize=50;opacity=20;" vertex="1" parent="EpTkJST8O4hXrJpNrsDW-115">
          <mxGeometry x="84.75" y="82.5" width="66" height="25" as="geometry" />
        </mxCell>
        <mxCell id="EpTkJST8O4hXrJpNrsDW-120" value="title" style="rounded=1;whiteSpace=wrap;html=1;sketch=0;points=[[0,0.5,0,0,0],[1,0.5,0,0,0]];fillColor=#1ba1e2;fontColor=#ffffff;strokeColor=#006EAF;arcSize=50;opacity=20;" vertex="1" parent="EpTkJST8O4hXrJpNrsDW-115">
          <mxGeometry x="84.75" y="129" width="66" height="25" as="geometry" />
        </mxCell>
        <mxCell id="EpTkJST8O4hXrJpNrsDW-121" value="input3" style="rounded=1;whiteSpace=wrap;html=1;sketch=0;points=[[0,0.5,0,0,0],[1,0.5,0,0,0]];arcSize=50;opacity=20;" vertex="1" parent="EpTkJST8O4hXrJpNrsDW-115">
          <mxGeometry x="-16.75" y="129" width="66" height="25" as="geometry" />
        </mxCell>
        <mxCell id="EpTkJST8O4hXrJpNrsDW-122" value="input4" style="rounded=1;whiteSpace=wrap;html=1;sketch=0;points=[[0,0.5,0,0,0],[1,0.5,0,0,0]];arcSize=50;opacity=20;" vertex="1" parent="EpTkJST8O4hXrJpNrsDW-115">
          <mxGeometry x="-16.75" y="170" width="66" height="25" as="geometry" />
        </mxCell>
        <mxCell id="EpTkJST8O4hXrJpNrsDW-123" value="front2" style="rounded=1;whiteSpace=wrap;html=1;sketch=0;points=[[0,0.5,0,0,0],[1,0.5,0,0,0]];fillColor=#1ba1e2;fontColor=#ffffff;strokeColor=#006EAF;arcSize=50;opacity=20;" vertex="1" parent="EpTkJST8O4hXrJpNrsDW-115">
          <mxGeometry x="84.75" y="170" width="66" height="25" as="geometry" />
        </mxCell>
        <mxCell id="EpTkJST8O4hXrJpNrsDW-124" value="input5" style="rounded=1;whiteSpace=wrap;html=1;sketch=0;points=[[0,0.5,0,0,0],[1,0.5,0,0,0]];arcSize=50;opacity=20;" vertex="1" parent="EpTkJST8O4hXrJpNrsDW-115">
          <mxGeometry x="-16.75" y="216.5" width="66" height="25" as="geometry" />
        </mxCell>
        <mxCell id="EpTkJST8O4hXrJpNrsDW-125" value="input6" style="rounded=1;whiteSpace=wrap;html=1;sketch=0;points=[[0,0.5,0,0,0],[1,0.5,0,0,0]];arcSize=50;opacity=20;" vertex="1" parent="EpTkJST8O4hXrJpNrsDW-115">
          <mxGeometry x="-16.75" y="263" width="66" height="25" as="geometry" />
        </mxCell>
        <mxCell id="EpTkJST8O4hXrJpNrsDW-126" value="input7" style="rounded=1;whiteSpace=wrap;html=1;sketch=0;points=[[0,0.5,0,0,0],[1,0.5,0,0,0]];arcSize=50;opacity=20;" vertex="1" parent="EpTkJST8O4hXrJpNrsDW-115">
          <mxGeometry x="-16.75" y="310" width="66" height="25" as="geometry" />
        </mxCell>
        <mxCell id="EpTkJST8O4hXrJpNrsDW-127" value="close" style="rounded=1;whiteSpace=wrap;html=1;sketch=0;points=[[0,0.5,0,0,0],[1,0.5,0,0,0]];fillColor=#1ba1e2;fontColor=#ffffff;strokeColor=#006EAF;arcSize=50;opacity=20;" vertex="1" parent="EpTkJST8O4hXrJpNrsDW-115">
          <mxGeometry x="84.75" y="310" width="66" height="25" as="geometry" />
        </mxCell>
        <mxCell id="EpTkJST8O4hXrJpNrsDW-128" value="error" style="rounded=1;whiteSpace=wrap;html=1;sketch=0;points=[[0,0.5,0,0,0],[1,0.5,0,0,0]];fillColor=#1ba1e2;fontColor=#ffffff;strokeColor=#006EAF;arcSize=50;" vertex="1" parent="EpTkJST8O4hXrJpNrsDW-115">
          <mxGeometry x="84.75" y="350" width="66" height="25" as="geometry" />
        </mxCell>
        <mxCell id="EpTkJST8O4hXrJpNrsDW-129" value="obsidian_file" style="rounded=1;whiteSpace=wrap;html=1;sketch=0;points=[[0,0.5,0,0,0],[1,0.5,0,0,0]];fillColor=#1ba1e2;fontColor=#ffffff;strokeColor=#006EAF;arcSize=50;opacity=20;" vertex="1" parent="EpTkJST8O4hXrJpNrsDW-115">
          <mxGeometry x="80" y="212.5" width="66" height="25" as="geometry" />
        </mxCell>
        <mxCell id="EpTkJST8O4hXrJpNrsDW-130" value="back" style="rounded=1;whiteSpace=wrap;html=1;sketch=0;points=[[0,0.5,0,0,0],[1,0.5,0,0,0]];fillColor=#1ba1e2;fontColor=#ffffff;strokeColor=#006EAF;arcSize=50;opacity=20;" vertex="1" parent="EpTkJST8O4hXrJpNrsDW-115">
          <mxGeometry x="80" y="263" width="66" height="25" as="geometry" />
        </mxCell>
        <mxCell id="EpTkJST8O4hXrJpNrsDW-131" style="edgeStyle=orthogonalEdgeStyle;rounded=1;orthogonalLoop=1;jettySize=auto;html=1;exitX=1;exitY=0.5;exitDx=0;exitDy=0;exitPerimeter=0;entryX=0;entryY=0.5;entryDx=0;entryDy=0;entryPerimeter=0;strokeColor=#d6b656;fillColor=#fff2cc;strokeWidth=2;" edge="1" parent="EpTkJST8O4hXrJpNrsDW-76" source="EpTkJST8O4hXrJpNrsDW-113" target="EpTkJST8O4hXrJpNrsDW-90">
          <mxGeometry relative="1" as="geometry">
            <Array as="points">
              <mxPoint x="844" y="165" />
              <mxPoint x="844" y="399" />
              <mxPoint x="370" y="399" />
              <mxPoint x="370" y="660" />
            </Array>
          </mxGeometry>
        </mxCell>
        <mxCell id="EpTkJST8O4hXrJpNrsDW-132" style="edgeStyle=orthogonalEdgeStyle;rounded=1;orthogonalLoop=1;jettySize=auto;html=1;exitX=1;exitY=0.5;exitDx=0;exitDy=0;exitPerimeter=0;entryX=0;entryY=0.5;entryDx=0;entryDy=0;entryPerimeter=0;fillColor=#ffe6cc;strokeColor=#d79b00;strokeWidth=2;" edge="1" parent="EpTkJST8O4hXrJpNrsDW-76" source="EpTkJST8O4hXrJpNrsDW-128" target="EpTkJST8O4hXrJpNrsDW-90">
          <mxGeometry relative="1" as="geometry">
            <Array as="points">
              <mxPoint x="-600" y="520" />
              <mxPoint x="-600" y="660" />
            </Array>
          </mxGeometry>
        </mxCell>
        <mxCell id="EpTkJST8O4hXrJpNrsDW-133" value="" style="shape=orEllipse;perimeter=ellipsePerimeter;whiteSpace=wrap;html=1;backgroundOutline=1;opacity=20;" vertex="1" parent="EpTkJST8O4hXrJpNrsDW-76">
          <mxGeometry x="-1080" y="720" width="80" height="80" as="geometry" />
        </mxCell>
      </root>
    </mxGraphModel>
  </diagram>
  <diagram id="d_4LqkkzWtQQ8luSQ1mL" name="through-deracer7">
    <mxGraphModel dx="2958" dy="1888" grid="1" gridSize="10" guides="1" tooltips="1" connect="1" arrows="1" fold="1" page="1" pageScale="1" pageWidth="1100" pageHeight="850" math="0" shadow="0">
      <root>
        <mxCell id="0" />
        <mxCell id="1" parent="0" />
        <mxCell id="tPShCRIjUEmr-QF80Pve-1" value="input5" style="rhombus;whiteSpace=wrap;html=1;rounded=1;fontStyle=1;glass=0;sketch=0;fontSize=12;points=[[0,0.5,0,0,0],[0.5,0,0,0,0],[0.5,1,0,0,0],[1,0.5,0,0,0]];shadow=1;" parent="1" vertex="1">
          <mxGeometry x="40" y="460" width="80" height="80" as="geometry" />
        </mxCell>
        <mxCell id="tPShCRIjUEmr-QF80Pve-2" value="input1" style="rhombus;whiteSpace=wrap;html=1;rounded=1;fontStyle=1;glass=0;sketch=0;fontSize=12;points=[[0,0.5,0,0,0],[0.5,0,0,0,0],[0.5,1,0,0,0],[1,0.5,0,0,0]];shadow=1;" parent="1" vertex="1">
          <mxGeometry x="40" y="80" width="80" height="80" as="geometry" />
        </mxCell>
        <mxCell id="tPShCRIjUEmr-QF80Pve-3" value="input2" style="rhombus;whiteSpace=wrap;html=1;rounded=1;fontStyle=1;glass=0;sketch=0;fontSize=12;points=[[0,0.5,0,0,0],[0.5,0,0,0,0],[0.5,1,0,0,0],[1,0.5,0,0,0]];shadow=1;" parent="1" vertex="1">
          <mxGeometry x="40" y="176" width="80" height="80" as="geometry" />
        </mxCell>
        <mxCell id="tPShCRIjUEmr-QF80Pve-4" value="input6" style="rhombus;whiteSpace=wrap;html=1;rounded=1;fontStyle=1;glass=0;sketch=0;fontSize=12;points=[[0,0.5,0,0,0],[0.5,0,0,0,0],[0.5,1,0,0,0],[1,0.5,0,0,0]];shadow=1;" parent="1" vertex="1">
          <mxGeometry x="40" y="560" width="80" height="80" as="geometry" />
        </mxCell>
        <mxCell id="tPShCRIjUEmr-QF80Pve-5" value="input7" style="rhombus;whiteSpace=wrap;html=1;rounded=1;fontStyle=1;glass=0;sketch=0;fontSize=12;points=[[0,0.5,0,0,0],[0.5,0,0,0,0],[0.5,1,0,0,0],[1,0.5,0,0,0]];shadow=1;" parent="1" vertex="1">
          <mxGeometry x="40" y="660" width="80" height="80" as="geometry" />
        </mxCell>
        <mxCell id="tPShCRIjUEmr-QF80Pve-6" value="input4" style="rhombus;whiteSpace=wrap;html=1;rounded=1;fontStyle=1;glass=0;sketch=0;fontSize=12;points=[[0,0.5,0,0,0],[0.5,0,0,0,0],[0.5,1,0,0,0],[1,0.5,0,0,0]];shadow=1;" parent="1" vertex="1">
          <mxGeometry x="40" y="357.5" width="80" height="80" as="geometry" />
        </mxCell>
        <mxCell id="tPShCRIjUEmr-QF80Pve-7" value="input3" style="rhombus;whiteSpace=wrap;html=1;rounded=1;fontStyle=1;glass=0;sketch=0;fontSize=12;points=[[0,0.5,0,0,0],[0.5,0,0,0,0],[0.5,1,0,0,0],[1,0.5,0,0,0]];shadow=1;" parent="1" vertex="1">
          <mxGeometry x="40" y="270" width="80" height="80" as="geometry" />
        </mxCell>
        <mxCell id="tPShCRIjUEmr-QF80Pve-8" value="obsidian_file" style="rhombus;whiteSpace=wrap;html=1;rounded=1;fontStyle=1;glass=0;sketch=0;fontSize=12;points=[[0,0.5,0,0,0],[0.5,0,0,0,0],[0.5,1,0,0,0],[1,0.5,0,0,0]];shadow=1;fillColor=#0050ef;fontColor=#ffffff;strokeColor=#001DBC;" parent="1" vertex="1">
          <mxGeometry x="1770" y="540" width="80" height="80" as="geometry" />
        </mxCell>
        <mxCell id="tPShCRIjUEmr-QF80Pve-9" value="output_file" style="rhombus;whiteSpace=wrap;html=1;rounded=1;fontStyle=1;glass=0;sketch=0;fontSize=12;points=[[0,0.5,0,0,0],[0.5,0,0,0,0],[0.5,1,0,0,0],[1,0.5,0,0,0]];shadow=1;fillColor=#0050ef;fontColor=#ffffff;strokeColor=#001DBC;" parent="1" vertex="1">
          <mxGeometry x="1760" y="80" width="80" height="80" as="geometry" />
        </mxCell>
        <mxCell id="tPShCRIjUEmr-QF80Pve-10" value="front1" style="rhombus;whiteSpace=wrap;html=1;rounded=1;fontStyle=1;glass=0;sketch=0;fontSize=12;points=[[0,0.5,0,0,0],[0.5,0,0,0,0],[0.5,1,0,0,0],[1,0.5,0,0,0]];shadow=1;fillColor=#0050ef;fontColor=#ffffff;strokeColor=#001DBC;" parent="1" vertex="1">
          <mxGeometry x="1770" y="256" width="80" height="80" as="geometry" />
        </mxCell>
        <mxCell id="tPShCRIjUEmr-QF80Pve-11" value="back" style="rhombus;whiteSpace=wrap;html=1;rounded=1;fontStyle=1;glass=0;sketch=0;fontSize=12;points=[[0,0.5,0,0,0],[0.5,0,0,0,0],[0.5,1,0,0,0],[1,0.5,0,0,0]];shadow=1;fillColor=#0050ef;fontColor=#ffffff;strokeColor=#001DBC;" parent="1" vertex="1">
          <mxGeometry x="1770" y="640" width="80" height="80" as="geometry" />
        </mxCell>
        <mxCell id="tPShCRIjUEmr-QF80Pve-12" value="front2" style="rhombus;whiteSpace=wrap;html=1;rounded=1;fontStyle=1;glass=0;sketch=0;fontSize=12;points=[[0,0.5,0,0,0],[0.5,0,0,0,0],[0.5,1,0,0,0],[1,0.5,0,0,0]];shadow=1;fillColor=#0050ef;fontColor=#ffffff;strokeColor=#001DBC;" parent="1" vertex="1">
          <mxGeometry x="1770" y="437.5" width="80" height="80" as="geometry" />
        </mxCell>
        <mxCell id="tPShCRIjUEmr-QF80Pve-13" value="title" style="rhombus;whiteSpace=wrap;html=1;rounded=1;fontStyle=1;glass=0;sketch=0;fontSize=12;points=[[0,0.5,0,0,0],[0.5,0,0,0,0],[0.5,1,0,0,0],[1,0.5,0,0,0]];shadow=1;fillColor=#0050ef;fontColor=#ffffff;strokeColor=#001DBC;" parent="1" vertex="1">
          <mxGeometry x="1770" y="350" width="80" height="80" as="geometry" />
        </mxCell>
        <mxCell id="tPShCRIjUEmr-QF80Pve-14" value="close" style="rhombus;whiteSpace=wrap;html=1;rounded=1;fontStyle=1;glass=0;sketch=0;fontSize=12;points=[[0,0.5,0,0,0],[0.5,0,0,0,0],[0.5,1,0,0,0],[1,0.5,0,0,0]];shadow=1;fillColor=#0050ef;fontColor=#ffffff;strokeColor=#001DBC;" parent="1" vertex="1">
          <mxGeometry x="1770" y="740" width="80" height="80" as="geometry" />
        </mxCell>
        <mxCell id="tPShCRIjUEmr-QF80Pve-15" style="edgeStyle=orthogonalEdgeStyle;rounded=0;orthogonalLoop=1;jettySize=auto;html=1;exitX=1;exitY=0.5;exitDx=0;exitDy=0;exitPerimeter=0;entryX=0;entryY=0.5;entryDx=0;entryDy=0;entryPerimeter=0;" parent="1" source="tPShCRIjUEmr-QF80Pve-5" target="tPShCRIjUEmr-QF80Pve-14" edge="1">
          <mxGeometry relative="1" as="geometry">
            <mxPoint x="1556.0000000000005" y="781.5" as="sourcePoint" />
          </mxGeometry>
        </mxCell>
        <mxCell id="tPShCRIjUEmr-QF80Pve-16" style="edgeStyle=orthogonalEdgeStyle;rounded=1;orthogonalLoop=1;jettySize=auto;html=1;exitX=1;exitY=0.5;exitDx=0;exitDy=0;exitPerimeter=0;entryX=0;entryY=0.5;entryDx=0;entryDy=0;entryPerimeter=0;" parent="1" source="tPShCRIjUEmr-QF80Pve-4" target="tPShCRIjUEmr-QF80Pve-11" edge="1">
          <mxGeometry relative="1" as="geometry">
            <mxPoint x="1550.7500000000005" y="735" as="sourcePoint" />
          </mxGeometry>
        </mxCell>
        <mxCell id="tPShCRIjUEmr-QF80Pve-17" style="edgeStyle=orthogonalEdgeStyle;rounded=1;orthogonalLoop=1;jettySize=auto;html=1;exitX=1;exitY=0.5;exitDx=0;exitDy=0;exitPerimeter=0;entryX=0;entryY=0.5;entryDx=0;entryDy=0;entryPerimeter=0;" parent="1" source="tPShCRIjUEmr-QF80Pve-1" target="tPShCRIjUEmr-QF80Pve-8" edge="1">
          <mxGeometry relative="1" as="geometry">
            <Array as="points">
              <mxPoint x="260" y="500" />
              <mxPoint x="260" y="540" />
              <mxPoint x="1540" y="540" />
              <mxPoint x="1540" y="580" />
            </Array>
          </mxGeometry>
        </mxCell>
        <mxCell id="tPShCRIjUEmr-QF80Pve-18" style="edgeStyle=orthogonalEdgeStyle;rounded=1;orthogonalLoop=1;jettySize=auto;html=1;exitX=1;exitY=0.5;exitDx=0;exitDy=0;exitPerimeter=0;entryX=0;entryY=0.5;entryDx=0;entryDy=0;entryPerimeter=0;" parent="1" source="tPShCRIjUEmr-QF80Pve-6" target="tPShCRIjUEmr-QF80Pve-12" edge="1">
          <mxGeometry relative="1" as="geometry" />
        </mxCell>
        <mxCell id="tPShCRIjUEmr-QF80Pve-19" style="edgeStyle=orthogonalEdgeStyle;rounded=1;orthogonalLoop=1;jettySize=auto;html=1;exitX=1;exitY=0.5;exitDx=0;exitDy=0;exitPerimeter=0;entryX=0.105;entryY=0.358;entryDx=0;entryDy=0;entryPerimeter=0;" parent="1" source="tPShCRIjUEmr-QF80Pve-7" target="tPShCRIjUEmr-QF80Pve-13" edge="1">
          <mxGeometry relative="1" as="geometry">
            <mxPoint x="830.75" y="406" as="sourcePoint" />
          </mxGeometry>
        </mxCell>
        <mxCell id="tPShCRIjUEmr-QF80Pve-20" style="edgeStyle=orthogonalEdgeStyle;rounded=1;orthogonalLoop=1;jettySize=auto;html=1;entryX=0;entryY=0.5;entryDx=0;entryDy=0;entryPerimeter=0;exitX=1;exitY=0.5;exitDx=0;exitDy=0;exitPerimeter=0;" parent="1" source="tPShCRIjUEmr-QF80Pve-3" target="tPShCRIjUEmr-QF80Pve-10" edge="1">
          <mxGeometry relative="1" as="geometry">
            <mxPoint x="610" y="289" as="sourcePoint" />
          </mxGeometry>
        </mxCell>
        <mxCell id="tPShCRIjUEmr-QF80Pve-21" style="edgeStyle=orthogonalEdgeStyle;rounded=0;orthogonalLoop=1;jettySize=auto;html=1;entryX=0;entryY=0.5;entryDx=0;entryDy=0;entryPerimeter=0;exitX=1;exitY=0.5;exitDx=0;exitDy=0;exitPerimeter=0;" parent="1" source="tPShCRIjUEmr-QF80Pve-2" target="tPShCRIjUEmr-QF80Pve-9" edge="1">
          <mxGeometry relative="1" as="geometry">
            <mxPoint x="350.75" y="202.090909090909" as="sourcePoint" />
          </mxGeometry>
        </mxCell>
        <mxCell id="tPShCRIjUEmr-QF80Pve-22" value="error" style="rhombus;whiteSpace=wrap;html=1;rounded=1;fontStyle=1;glass=0;sketch=0;fontSize=12;points=[[0,0.5,0,0,0],[0.5,0,0,0,0],[0.5,1,0,0,0],[1,0.5,0,0,0]];shadow=1;fillColor=#0050ef;fontColor=#ffffff;strokeColor=#001DBC;" parent="1" vertex="1">
          <mxGeometry x="1780" y="920" width="80" height="80" as="geometry" />
        </mxCell>
      </root>
    </mxGraphModel>
  </diagram>
  <diagram id="7s2ZXpO-KORNu9L4Iuj9" name="deracer7">
    <mxGraphModel dx="1183" dy="755" grid="1" gridSize="10" guides="1" tooltips="1" connect="1" arrows="1" fold="1" page="1" pageScale="1" pageWidth="1100" pageHeight="850" math="0" shadow="0">
      <root>
        <mxCell id="0" />
        <mxCell id="1" parent="0" />
        <mxCell id="Mv9yUombfhzvIeVSTe7P-1" value="deracer" style="rounded=1;whiteSpace=wrap;html=1;sketch=0;container=1;recursiveResize=0;verticalAlign=top;arcSize=6;fontStyle=1;autosize=0;points=[];absoluteArcSize=1;shadow=1;strokeColor=#001DBC;fillColor=#0050ef;fontColor=#ffffff;" vertex="1" parent="1">
          <mxGeometry x="200" y="153.5" width="150.75" height="166.5" as="geometry">
            <mxRectangle x="-98" y="-1230" width="99" height="26" as="alternateBounds" />
          </mxGeometry>
        </mxCell>
        <mxCell id="Mv9yUombfhzvIeVSTe7P-2" value="first" style="rounded=1;whiteSpace=wrap;html=1;sketch=0;points=[[0,0.5,0,0,0],[1,0.5,0,0,0]];arcSize=50;" vertex="1" parent="Mv9yUombfhzvIeVSTe7P-1">
          <mxGeometry x="-16.75" y="36" width="66" height="25" as="geometry" />
        </mxCell>
        <mxCell id="Mv9yUombfhzvIeVSTe7P-3" value="first" style="rounded=1;whiteSpace=wrap;html=1;sketch=0;points=[[0,0.5,0,0,0],[1,0.5,0,0,0]];fillColor=#1ba1e2;fontColor=#ffffff;strokeColor=#006EAF;arcSize=50;" vertex="1" parent="Mv9yUombfhzvIeVSTe7P-1">
          <mxGeometry x="84.75" y="36" width="66" height="25" as="geometry" />
        </mxCell>
        <mxCell id="Mv9yUombfhzvIeVSTe7P-4" value="second" style="rounded=1;whiteSpace=wrap;html=1;sketch=0;points=[[0,0.5,0,0,0],[1,0.5,0,0,0]];arcSize=50;" vertex="1" parent="Mv9yUombfhzvIeVSTe7P-1">
          <mxGeometry x="-16.75" y="82.5" width="66" height="25" as="geometry" />
        </mxCell>
        <mxCell id="Mv9yUombfhzvIeVSTe7P-5" value="second" style="rounded=1;whiteSpace=wrap;html=1;sketch=0;points=[[0,0.5,0,0,0],[1,0.5,0,0,0]];fillColor=#1ba1e2;fontColor=#ffffff;strokeColor=#006EAF;arcSize=50;" vertex="1" parent="Mv9yUombfhzvIeVSTe7P-1">
          <mxGeometry x="90" y="82.5" width="66" height="25" as="geometry" />
        </mxCell>
        <mxCell id="Mv9yUombfhzvIeVSTe7P-6" value="error" style="rounded=1;whiteSpace=wrap;html=1;sketch=0;points=[[0,0.5,0,0,0],[1,0.5,0,0,0]];fillColor=#1ba1e2;fontColor=#ffffff;strokeColor=#006EAF;arcSize=50;" vertex="1" parent="Mv9yUombfhzvIeVSTe7P-1">
          <mxGeometry x="84.75" y="126.5" width="66" height="25" as="geometry" />
        </mxCell>
        <mxCell id="Mv9yUombfhzvIeVSTe7P-7" style="edgeStyle=orthogonalEdgeStyle;rounded=1;orthogonalLoop=1;jettySize=auto;html=1;exitX=1;exitY=0.5;exitDx=0;exitDy=0;exitPerimeter=0;entryX=0;entryY=0.5;entryDx=0;entryDy=0;entryPerimeter=0;" edge="1" parent="1" source="Mv9yUombfhzvIeVSTe7P-8" target="Mv9yUombfhzvIeVSTe7P-43">
          <mxGeometry relative="1" as="geometry" />
        </mxCell>
        <mxCell id="Mv9yUombfhzvIeVSTe7P-8" value="input5" style="rhombus;whiteSpace=wrap;html=1;rounded=1;fontStyle=1;glass=0;sketch=0;fontSize=12;points=[[0,0.5,0,0,0],[0.5,0,0,0,0],[0.5,1,0,0,0],[1,0.5,0,0,0]];shadow=1;" vertex="1" parent="1">
          <mxGeometry x="40" y="460" width="80" height="80" as="geometry" />
        </mxCell>
        <mxCell id="Mv9yUombfhzvIeVSTe7P-9" style="edgeStyle=orthogonalEdgeStyle;rounded=1;orthogonalLoop=1;jettySize=auto;html=1;exitX=1;exitY=0.5;exitDx=0;exitDy=0;exitPerimeter=0;entryX=0;entryY=0.5;entryDx=0;entryDy=0;entryPerimeter=0;" edge="1" parent="1" source="Mv9yUombfhzvIeVSTe7P-10" target="Mv9yUombfhzvIeVSTe7P-2">
          <mxGeometry relative="1" as="geometry" />
        </mxCell>
        <mxCell id="Mv9yUombfhzvIeVSTe7P-10" value="input1" style="rhombus;whiteSpace=wrap;html=1;rounded=1;fontStyle=1;glass=0;sketch=0;fontSize=12;points=[[0,0.5,0,0,0],[0.5,0,0,0,0],[0.5,1,0,0,0],[1,0.5,0,0,0]];shadow=1;" vertex="1" parent="1">
          <mxGeometry x="40" y="80" width="80" height="80" as="geometry" />
        </mxCell>
        <mxCell id="Mv9yUombfhzvIeVSTe7P-11" style="edgeStyle=orthogonalEdgeStyle;rounded=1;orthogonalLoop=1;jettySize=auto;html=1;exitX=1;exitY=0.5;exitDx=0;exitDy=0;exitPerimeter=0;entryX=0;entryY=0.5;entryDx=0;entryDy=0;entryPerimeter=0;" edge="1" parent="1" source="Mv9yUombfhzvIeVSTe7P-12" target="Mv9yUombfhzvIeVSTe7P-4">
          <mxGeometry relative="1" as="geometry" />
        </mxCell>
        <mxCell id="Mv9yUombfhzvIeVSTe7P-12" value="input2" style="rhombus;whiteSpace=wrap;html=1;rounded=1;fontStyle=1;glass=0;sketch=0;fontSize=12;points=[[0,0.5,0,0,0],[0.5,0,0,0,0],[0.5,1,0,0,0],[1,0.5,0,0,0]];shadow=1;" vertex="1" parent="1">
          <mxGeometry x="40" y="176" width="80" height="80" as="geometry" />
        </mxCell>
        <mxCell id="Mv9yUombfhzvIeVSTe7P-13" style="edgeStyle=orthogonalEdgeStyle;rounded=1;orthogonalLoop=1;jettySize=auto;html=1;exitX=1;exitY=0.5;exitDx=0;exitDy=0;exitPerimeter=0;entryX=0;entryY=0.5;entryDx=0;entryDy=0;entryPerimeter=0;" edge="1" parent="1" source="Mv9yUombfhzvIeVSTe7P-14" target="Mv9yUombfhzvIeVSTe7P-49">
          <mxGeometry relative="1" as="geometry" />
        </mxCell>
        <mxCell id="Mv9yUombfhzvIeVSTe7P-14" value="input6" style="rhombus;whiteSpace=wrap;html=1;rounded=1;fontStyle=1;glass=0;sketch=0;fontSize=12;points=[[0,0.5,0,0,0],[0.5,0,0,0,0],[0.5,1,0,0,0],[1,0.5,0,0,0]];shadow=1;" vertex="1" parent="1">
          <mxGeometry x="40" y="560" width="80" height="80" as="geometry" />
        </mxCell>
        <mxCell id="Mv9yUombfhzvIeVSTe7P-15" style="edgeStyle=orthogonalEdgeStyle;rounded=1;orthogonalLoop=1;jettySize=auto;html=1;exitX=1;exitY=0.5;exitDx=0;exitDy=0;exitPerimeter=0;entryX=0;entryY=0.5;entryDx=0;entryDy=0;entryPerimeter=0;" edge="1" parent="1" source="Mv9yUombfhzvIeVSTe7P-16" target="Mv9yUombfhzvIeVSTe7P-55">
          <mxGeometry relative="1" as="geometry" />
        </mxCell>
        <mxCell id="Mv9yUombfhzvIeVSTe7P-16" value="input7" style="rhombus;whiteSpace=wrap;html=1;rounded=1;fontStyle=1;glass=0;sketch=0;fontSize=12;points=[[0,0.5,0,0,0],[0.5,0,0,0,0],[0.5,1,0,0,0],[1,0.5,0,0,0]];shadow=1;" vertex="1" parent="1">
          <mxGeometry x="40" y="660" width="80" height="80" as="geometry" />
        </mxCell>
        <mxCell id="Mv9yUombfhzvIeVSTe7P-17" style="edgeStyle=orthogonalEdgeStyle;rounded=1;orthogonalLoop=1;jettySize=auto;html=1;exitX=1;exitY=0.5;exitDx=0;exitDy=0;exitPerimeter=0;entryX=0;entryY=0.5;entryDx=0;entryDy=0;entryPerimeter=0;" edge="1" parent="1" source="Mv9yUombfhzvIeVSTe7P-18" target="Mv9yUombfhzvIeVSTe7P-36">
          <mxGeometry relative="1" as="geometry" />
        </mxCell>
        <mxCell id="Mv9yUombfhzvIeVSTe7P-18" value="input4" style="rhombus;whiteSpace=wrap;html=1;rounded=1;fontStyle=1;glass=0;sketch=0;fontSize=12;points=[[0,0.5,0,0,0],[0.5,0,0,0,0],[0.5,1,0,0,0],[1,0.5,0,0,0]];shadow=1;" vertex="1" parent="1">
          <mxGeometry x="40" y="357.5" width="80" height="80" as="geometry" />
        </mxCell>
        <mxCell id="Mv9yUombfhzvIeVSTe7P-19" style="edgeStyle=orthogonalEdgeStyle;rounded=1;orthogonalLoop=1;jettySize=auto;html=1;exitX=1;exitY=0.5;exitDx=0;exitDy=0;exitPerimeter=0;entryX=0;entryY=0.5;entryDx=0;entryDy=0;entryPerimeter=0;" edge="1" parent="1" source="Mv9yUombfhzvIeVSTe7P-20" target="Mv9yUombfhzvIeVSTe7P-30">
          <mxGeometry relative="1" as="geometry">
            <Array as="points">
              <mxPoint x="180" y="310" />
              <mxPoint x="180" y="335" />
            </Array>
          </mxGeometry>
        </mxCell>
        <mxCell id="Mv9yUombfhzvIeVSTe7P-20" value="input3" style="rhombus;whiteSpace=wrap;html=1;rounded=1;fontStyle=1;glass=0;sketch=0;fontSize=12;points=[[0,0.5,0,0,0],[0.5,0,0,0,0],[0.5,1,0,0,0],[1,0.5,0,0,0]];shadow=1;" vertex="1" parent="1">
          <mxGeometry x="40" y="270" width="80" height="80" as="geometry" />
        </mxCell>
        <mxCell id="Mv9yUombfhzvIeVSTe7P-21" value="obsidian_file" style="rhombus;whiteSpace=wrap;html=1;rounded=1;fontStyle=1;glass=0;sketch=0;fontSize=12;points=[[0,0.5,0,0,0],[0.5,0,0,0,0],[0.5,1,0,0,0],[1,0.5,0,0,0]];shadow=1;fillColor=#0050ef;fontColor=#ffffff;strokeColor=#001DBC;" vertex="1" parent="1">
          <mxGeometry x="1770" y="540" width="80" height="80" as="geometry" />
        </mxCell>
        <mxCell id="Mv9yUombfhzvIeVSTe7P-22" value="output_file" style="rhombus;whiteSpace=wrap;html=1;rounded=1;fontStyle=1;glass=0;sketch=0;fontSize=12;points=[[0,0.5,0,0,0],[0.5,0,0,0,0],[0.5,1,0,0,0],[1,0.5,0,0,0]];shadow=1;fillColor=#0050ef;fontColor=#ffffff;strokeColor=#001DBC;" vertex="1" parent="1">
          <mxGeometry x="1770" y="160" width="80" height="80" as="geometry" />
        </mxCell>
        <mxCell id="Mv9yUombfhzvIeVSTe7P-23" value="front1" style="rhombus;whiteSpace=wrap;html=1;rounded=1;fontStyle=1;glass=0;sketch=0;fontSize=12;points=[[0,0.5,0,0,0],[0.5,0,0,0,0],[0.5,1,0,0,0],[1,0.5,0,0,0]];shadow=1;fillColor=#0050ef;fontColor=#ffffff;strokeColor=#001DBC;" vertex="1" parent="1">
          <mxGeometry x="1770" y="256" width="80" height="80" as="geometry" />
        </mxCell>
        <mxCell id="Mv9yUombfhzvIeVSTe7P-24" value="back" style="rhombus;whiteSpace=wrap;html=1;rounded=1;fontStyle=1;glass=0;sketch=0;fontSize=12;points=[[0,0.5,0,0,0],[0.5,0,0,0,0],[0.5,1,0,0,0],[1,0.5,0,0,0]];shadow=1;fillColor=#0050ef;fontColor=#ffffff;strokeColor=#001DBC;" vertex="1" parent="1">
          <mxGeometry x="1770" y="640" width="80" height="80" as="geometry" />
        </mxCell>
        <mxCell id="Mv9yUombfhzvIeVSTe7P-25" value="front2" style="rhombus;whiteSpace=wrap;html=1;rounded=1;fontStyle=1;glass=0;sketch=0;fontSize=12;points=[[0,0.5,0,0,0],[0.5,0,0,0,0],[0.5,1,0,0,0],[1,0.5,0,0,0]];shadow=1;fillColor=#0050ef;fontColor=#ffffff;strokeColor=#001DBC;" vertex="1" parent="1">
          <mxGeometry x="1770" y="437.5" width="80" height="80" as="geometry" />
        </mxCell>
        <mxCell id="Mv9yUombfhzvIeVSTe7P-26" value="title" style="rhombus;whiteSpace=wrap;html=1;rounded=1;fontStyle=1;glass=0;sketch=0;fontSize=12;points=[[0,0.5,0,0,0],[0.5,0,0,0,0],[0.5,1,0,0,0],[1,0.5,0,0,0]];shadow=1;fillColor=#0050ef;fontColor=#ffffff;strokeColor=#001DBC;" vertex="1" parent="1">
          <mxGeometry x="1770" y="350" width="80" height="80" as="geometry" />
        </mxCell>
        <mxCell id="Mv9yUombfhzvIeVSTe7P-27" value="deracer" style="rounded=1;whiteSpace=wrap;html=1;sketch=0;container=1;recursiveResize=0;verticalAlign=top;arcSize=6;fontStyle=1;autosize=0;points=[];absoluteArcSize=1;shadow=1;strokeColor=#001DBC;fillColor=#0050ef;fontColor=#ffffff;" vertex="1" parent="1">
          <mxGeometry x="440" y="240" width="150.75" height="170" as="geometry">
            <mxRectangle x="-98" y="-1230" width="99" height="26" as="alternateBounds" />
          </mxGeometry>
        </mxCell>
        <mxCell id="Mv9yUombfhzvIeVSTe7P-28" value="first" style="rounded=1;whiteSpace=wrap;html=1;sketch=0;points=[[0,0.5,0,0,0],[1,0.5,0,0,0]];arcSize=50;" vertex="1" parent="Mv9yUombfhzvIeVSTe7P-27">
          <mxGeometry x="-16.75" y="36" width="66" height="25" as="geometry" />
        </mxCell>
        <mxCell id="Mv9yUombfhzvIeVSTe7P-29" value="first" style="rounded=1;whiteSpace=wrap;html=1;sketch=0;points=[[0,0.5,0,0,0],[1,0.5,0,0,0]];fillColor=#1ba1e2;fontColor=#ffffff;strokeColor=#006EAF;arcSize=50;" vertex="1" parent="Mv9yUombfhzvIeVSTe7P-27">
          <mxGeometry x="84.75" y="36" width="66" height="25" as="geometry" />
        </mxCell>
        <mxCell id="Mv9yUombfhzvIeVSTe7P-30" value="second" style="rounded=1;whiteSpace=wrap;html=1;sketch=0;points=[[0,0.5,0,0,0],[1,0.5,0,0,0]];arcSize=50;" vertex="1" parent="Mv9yUombfhzvIeVSTe7P-27">
          <mxGeometry x="-16.75" y="82.5" width="66" height="25" as="geometry" />
        </mxCell>
        <mxCell id="Mv9yUombfhzvIeVSTe7P-31" value="second" style="rounded=1;whiteSpace=wrap;html=1;sketch=0;points=[[0,0.5,0,0,0],[1,0.5,0,0,0]];fillColor=#1ba1e2;fontColor=#ffffff;strokeColor=#006EAF;arcSize=50;" vertex="1" parent="Mv9yUombfhzvIeVSTe7P-27">
          <mxGeometry x="90" y="82.5" width="66" height="25" as="geometry" />
        </mxCell>
        <mxCell id="Mv9yUombfhzvIeVSTe7P-32" value="error" style="rounded=1;whiteSpace=wrap;html=1;sketch=0;points=[[0,0.5,0,0,0],[1,0.5,0,0,0]];fillColor=#1ba1e2;fontColor=#ffffff;strokeColor=#006EAF;arcSize=50;" vertex="1" parent="Mv9yUombfhzvIeVSTe7P-27">
          <mxGeometry x="84.75" y="130" width="66" height="25" as="geometry" />
        </mxCell>
        <mxCell id="Mv9yUombfhzvIeVSTe7P-33" value="deracer" style="rounded=1;whiteSpace=wrap;html=1;sketch=0;container=1;recursiveResize=0;verticalAlign=top;arcSize=6;fontStyle=1;autosize=0;points=[];absoluteArcSize=1;shadow=1;strokeColor=#001DBC;fillColor=#0050ef;fontColor=#ffffff;" vertex="1" parent="1">
          <mxGeometry x="680" y="357.5" width="156" height="172.5" as="geometry">
            <mxRectangle x="-98" y="-1230" width="99" height="26" as="alternateBounds" />
          </mxGeometry>
        </mxCell>
        <mxCell id="Mv9yUombfhzvIeVSTe7P-34" value="first" style="rounded=1;whiteSpace=wrap;html=1;sketch=0;points=[[0,0.5,0,0,0],[1,0.5,0,0,0]];arcSize=50;" vertex="1" parent="Mv9yUombfhzvIeVSTe7P-33">
          <mxGeometry x="-16.75" y="36" width="66" height="25" as="geometry" />
        </mxCell>
        <mxCell id="Mv9yUombfhzvIeVSTe7P-35" value="first" style="rounded=1;whiteSpace=wrap;html=1;sketch=0;points=[[0,0.5,0,0,0],[1,0.5,0,0,0]];fillColor=#1ba1e2;fontColor=#ffffff;strokeColor=#006EAF;arcSize=50;" vertex="1" parent="Mv9yUombfhzvIeVSTe7P-33">
          <mxGeometry x="84.75" y="36" width="66" height="25" as="geometry" />
        </mxCell>
        <mxCell id="Mv9yUombfhzvIeVSTe7P-36" value="second" style="rounded=1;whiteSpace=wrap;html=1;sketch=0;points=[[0,0.5,0,0,0],[1,0.5,0,0,0]];arcSize=50;" vertex="1" parent="Mv9yUombfhzvIeVSTe7P-33">
          <mxGeometry x="-16.75" y="82.5" width="66" height="25" as="geometry" />
        </mxCell>
        <mxCell id="Mv9yUombfhzvIeVSTe7P-37" value="second" style="rounded=1;whiteSpace=wrap;html=1;sketch=0;points=[[0,0.5,0,0,0],[1,0.5,0,0,0]];fillColor=#1ba1e2;fontColor=#ffffff;strokeColor=#006EAF;arcSize=50;" vertex="1" parent="Mv9yUombfhzvIeVSTe7P-33">
          <mxGeometry x="90" y="82.5" width="66" height="25" as="geometry" />
        </mxCell>
        <mxCell id="Mv9yUombfhzvIeVSTe7P-38" value="error" style="rounded=1;whiteSpace=wrap;html=1;sketch=0;points=[[0,0.5,0,0,0],[1,0.5,0,0,0]];fillColor=#1ba1e2;fontColor=#ffffff;strokeColor=#006EAF;arcSize=50;" vertex="1" parent="Mv9yUombfhzvIeVSTe7P-33">
          <mxGeometry x="90" y="132.5" width="66" height="25" as="geometry" />
        </mxCell>
        <mxCell id="Mv9yUombfhzvIeVSTe7P-39" value="close" style="rhombus;whiteSpace=wrap;html=1;rounded=1;fontStyle=1;glass=0;sketch=0;fontSize=12;points=[[0,0.5,0,0,0],[0.5,0,0,0,0],[0.5,1,0,0,0],[1,0.5,0,0,0]];shadow=1;fillColor=#0050ef;fontColor=#ffffff;strokeColor=#001DBC;" vertex="1" parent="1">
          <mxGeometry x="1770" y="740" width="80" height="80" as="geometry" />
        </mxCell>
        <mxCell id="Mv9yUombfhzvIeVSTe7P-40" value="deracer" style="rounded=1;whiteSpace=wrap;html=1;sketch=0;container=1;recursiveResize=0;verticalAlign=top;arcSize=6;fontStyle=1;autosize=0;points=[];absoluteArcSize=1;shadow=1;strokeColor=#001DBC;fillColor=#0050ef;fontColor=#ffffff;" vertex="1" parent="1">
          <mxGeometry x="920" y="482.5" width="150.75" height="167.5" as="geometry">
            <mxRectangle x="-98" y="-1230" width="99" height="26" as="alternateBounds" />
          </mxGeometry>
        </mxCell>
        <mxCell id="Mv9yUombfhzvIeVSTe7P-41" value="first" style="rounded=1;whiteSpace=wrap;html=1;sketch=0;points=[[0,0.5,0,0,0],[1,0.5,0,0,0]];arcSize=50;" vertex="1" parent="Mv9yUombfhzvIeVSTe7P-40">
          <mxGeometry x="-16.75" y="36" width="66" height="25" as="geometry" />
        </mxCell>
        <mxCell id="Mv9yUombfhzvIeVSTe7P-42" value="first" style="rounded=1;whiteSpace=wrap;html=1;sketch=0;points=[[0,0.5,0,0,0],[1,0.5,0,0,0]];fillColor=#1ba1e2;fontColor=#ffffff;strokeColor=#006EAF;arcSize=50;" vertex="1" parent="Mv9yUombfhzvIeVSTe7P-40">
          <mxGeometry x="84.75" y="36" width="66" height="25" as="geometry" />
        </mxCell>
        <mxCell id="Mv9yUombfhzvIeVSTe7P-43" value="second" style="rounded=1;whiteSpace=wrap;html=1;sketch=0;points=[[0,0.5,0,0,0],[1,0.5,0,0,0]];arcSize=50;" vertex="1" parent="Mv9yUombfhzvIeVSTe7P-40">
          <mxGeometry x="-16.75" y="82.5" width="66" height="25" as="geometry" />
        </mxCell>
        <mxCell id="Mv9yUombfhzvIeVSTe7P-44" value="second" style="rounded=1;whiteSpace=wrap;html=1;sketch=0;points=[[0,0.5,0,0,0],[1,0.5,0,0,0]];fillColor=#1ba1e2;fontColor=#ffffff;strokeColor=#006EAF;arcSize=50;" vertex="1" parent="Mv9yUombfhzvIeVSTe7P-40">
          <mxGeometry x="90" y="82.5" width="66" height="25" as="geometry" />
        </mxCell>
        <mxCell id="Mv9yUombfhzvIeVSTe7P-45" value="error" style="rounded=1;whiteSpace=wrap;html=1;sketch=0;points=[[0,0.5,0,0,0],[1,0.5,0,0,0]];fillColor=#1ba1e2;fontColor=#ffffff;strokeColor=#006EAF;arcSize=50;" vertex="1" parent="Mv9yUombfhzvIeVSTe7P-40">
          <mxGeometry x="84.75" y="127.5" width="66" height="25" as="geometry" />
        </mxCell>
        <mxCell id="Mv9yUombfhzvIeVSTe7P-46" value="deracer" style="rounded=1;whiteSpace=wrap;html=1;sketch=0;container=1;recursiveResize=0;verticalAlign=top;arcSize=6;fontStyle=1;autosize=0;points=[];absoluteArcSize=1;shadow=1;strokeColor=#001DBC;fillColor=#0050ef;fontColor=#ffffff;" vertex="1" parent="1">
          <mxGeometry x="1160" y="569" width="120" height="161" as="geometry">
            <mxRectangle x="-98" y="-1230" width="99" height="26" as="alternateBounds" />
          </mxGeometry>
        </mxCell>
        <mxCell id="Mv9yUombfhzvIeVSTe7P-47" value="first" style="rounded=1;whiteSpace=wrap;html=1;sketch=0;points=[[0,0.5,0,0,0],[1,0.5,0,0,0]];arcSize=50;" vertex="1" parent="Mv9yUombfhzvIeVSTe7P-46">
          <mxGeometry x="-16.75" y="36" width="66" height="25" as="geometry" />
        </mxCell>
        <mxCell id="Mv9yUombfhzvIeVSTe7P-48" value="first" style="rounded=1;whiteSpace=wrap;html=1;sketch=0;points=[[0,0.5,0,0,0],[1,0.5,0,0,0]];fillColor=#1ba1e2;fontColor=#ffffff;strokeColor=#006EAF;arcSize=50;" vertex="1" parent="Mv9yUombfhzvIeVSTe7P-46">
          <mxGeometry x="84.75" y="36" width="66" height="25" as="geometry" />
        </mxCell>
        <mxCell id="Mv9yUombfhzvIeVSTe7P-49" value="second" style="rounded=1;whiteSpace=wrap;html=1;sketch=0;points=[[0,0.5,0,0,0],[1,0.5,0,0,0]];arcSize=50;" vertex="1" parent="Mv9yUombfhzvIeVSTe7P-46">
          <mxGeometry x="-16.75" y="82.5" width="66" height="25" as="geometry" />
        </mxCell>
        <mxCell id="Mv9yUombfhzvIeVSTe7P-50" value="second" style="rounded=1;whiteSpace=wrap;html=1;sketch=0;points=[[0,0.5,0,0,0],[1,0.5,0,0,0]];fillColor=#1ba1e2;fontColor=#ffffff;strokeColor=#006EAF;arcSize=50;" vertex="1" parent="Mv9yUombfhzvIeVSTe7P-46">
          <mxGeometry x="90" y="82.5" width="66" height="25" as="geometry" />
        </mxCell>
        <mxCell id="Mv9yUombfhzvIeVSTe7P-51" value="error" style="rounded=1;whiteSpace=wrap;html=1;sketch=0;points=[[0,0.5,0,0,0],[1,0.5,0,0,0]];fillColor=#1ba1e2;fontColor=#ffffff;strokeColor=#006EAF;arcSize=50;" vertex="1" parent="Mv9yUombfhzvIeVSTe7P-46">
          <mxGeometry x="84.75" y="121" width="66" height="25" as="geometry" />
        </mxCell>
        <mxCell id="Mv9yUombfhzvIeVSTe7P-52" value="deracer" style="rounded=1;whiteSpace=wrap;html=1;sketch=0;container=1;recursiveResize=0;verticalAlign=top;arcSize=6;fontStyle=1;autosize=0;points=[];absoluteArcSize=1;shadow=1;strokeColor=#001DBC;fillColor=#0050ef;fontColor=#ffffff;" vertex="1" parent="1">
          <mxGeometry x="1400" y="686.5" width="120" height="163.5" as="geometry">
            <mxRectangle x="-98" y="-1230" width="99" height="26" as="alternateBounds" />
          </mxGeometry>
        </mxCell>
        <mxCell id="Mv9yUombfhzvIeVSTe7P-53" value="first" style="rounded=1;whiteSpace=wrap;html=1;sketch=0;points=[[0,0.5,0,0,0],[1,0.5,0,0,0]];arcSize=50;" vertex="1" parent="Mv9yUombfhzvIeVSTe7P-52">
          <mxGeometry x="-16.75" y="36" width="66" height="25" as="geometry" />
        </mxCell>
        <mxCell id="Mv9yUombfhzvIeVSTe7P-54" value="first" style="rounded=1;whiteSpace=wrap;html=1;sketch=0;points=[[0,0.5,0,0,0],[1,0.5,0,0,0]];fillColor=#1ba1e2;fontColor=#ffffff;strokeColor=#006EAF;arcSize=50;" vertex="1" parent="Mv9yUombfhzvIeVSTe7P-52">
          <mxGeometry x="84.75" y="36" width="66" height="25" as="geometry" />
        </mxCell>
        <mxCell id="Mv9yUombfhzvIeVSTe7P-55" value="second" style="rounded=1;whiteSpace=wrap;html=1;sketch=0;points=[[0,0.5,0,0,0],[1,0.5,0,0,0]];arcSize=50;" vertex="1" parent="Mv9yUombfhzvIeVSTe7P-52">
          <mxGeometry x="-16.75" y="82.5" width="66" height="25" as="geometry" />
        </mxCell>
        <mxCell id="Mv9yUombfhzvIeVSTe7P-56" value="second" style="rounded=1;whiteSpace=wrap;html=1;sketch=0;points=[[0,0.5,0,0,0],[1,0.5,0,0,0]];fillColor=#1ba1e2;fontColor=#ffffff;strokeColor=#006EAF;arcSize=50;" vertex="1" parent="Mv9yUombfhzvIeVSTe7P-52">
          <mxGeometry x="90" y="82.5" width="66" height="25" as="geometry" />
        </mxCell>
        <mxCell id="Mv9yUombfhzvIeVSTe7P-57" value="error" style="rounded=1;whiteSpace=wrap;html=1;sketch=0;points=[[0,0.5,0,0,0],[1,0.5,0,0,0]];fillColor=#1ba1e2;fontColor=#ffffff;strokeColor=#006EAF;arcSize=50;" vertex="1" parent="Mv9yUombfhzvIeVSTe7P-52">
          <mxGeometry x="84.75" y="123.5" width="66" height="25" as="geometry" />
        </mxCell>
        <mxCell id="Mv9yUombfhzvIeVSTe7P-58" style="edgeStyle=orthogonalEdgeStyle;rounded=1;orthogonalLoop=1;jettySize=auto;html=1;exitX=1;exitY=0.5;exitDx=0;exitDy=0;exitPerimeter=0;entryX=0;entryY=0.5;entryDx=0;entryDy=0;entryPerimeter=0;" edge="1" parent="1" source="Mv9yUombfhzvIeVSTe7P-50" target="Mv9yUombfhzvIeVSTe7P-53">
          <mxGeometry relative="1" as="geometry" />
        </mxCell>
        <mxCell id="Mv9yUombfhzvIeVSTe7P-59" style="edgeStyle=orthogonalEdgeStyle;rounded=1;orthogonalLoop=1;jettySize=auto;html=1;exitX=1;exitY=0.5;exitDx=0;exitDy=0;exitPerimeter=0;entryX=0;entryY=0.5;entryDx=0;entryDy=0;entryPerimeter=0;" edge="1" parent="1" source="Mv9yUombfhzvIeVSTe7P-44" target="Mv9yUombfhzvIeVSTe7P-47">
          <mxGeometry relative="1" as="geometry" />
        </mxCell>
        <mxCell id="Mv9yUombfhzvIeVSTe7P-60" style="edgeStyle=orthogonalEdgeStyle;rounded=1;orthogonalLoop=1;jettySize=auto;html=1;exitX=1;exitY=0.5;exitDx=0;exitDy=0;exitPerimeter=0;entryX=0;entryY=0.5;entryDx=0;entryDy=0;entryPerimeter=0;" edge="1" parent="1" source="Mv9yUombfhzvIeVSTe7P-37" target="Mv9yUombfhzvIeVSTe7P-41">
          <mxGeometry relative="1" as="geometry" />
        </mxCell>
        <mxCell id="Mv9yUombfhzvIeVSTe7P-61" style="edgeStyle=orthogonalEdgeStyle;rounded=1;orthogonalLoop=1;jettySize=auto;html=1;exitX=1;exitY=0.5;exitDx=0;exitDy=0;exitPerimeter=0;entryX=0;entryY=0.5;entryDx=0;entryDy=0;entryPerimeter=0;" edge="1" parent="1" source="Mv9yUombfhzvIeVSTe7P-31" target="Mv9yUombfhzvIeVSTe7P-34">
          <mxGeometry relative="1" as="geometry" />
        </mxCell>
        <mxCell id="Mv9yUombfhzvIeVSTe7P-62" style="edgeStyle=orthogonalEdgeStyle;rounded=1;orthogonalLoop=1;jettySize=auto;html=1;exitX=1;exitY=0.5;exitDx=0;exitDy=0;exitPerimeter=0;entryX=0;entryY=0.5;entryDx=0;entryDy=0;entryPerimeter=0;" edge="1" parent="1" source="Mv9yUombfhzvIeVSTe7P-5" target="Mv9yUombfhzvIeVSTe7P-28">
          <mxGeometry relative="1" as="geometry" />
        </mxCell>
        <mxCell id="Mv9yUombfhzvIeVSTe7P-63" style="edgeStyle=orthogonalEdgeStyle;rounded=0;orthogonalLoop=1;jettySize=auto;html=1;exitX=1;exitY=0.5;exitDx=0;exitDy=0;exitPerimeter=0;entryX=0;entryY=0.5;entryDx=0;entryDy=0;entryPerimeter=0;" edge="1" parent="1" source="Mv9yUombfhzvIeVSTe7P-56" target="Mv9yUombfhzvIeVSTe7P-39">
          <mxGeometry relative="1" as="geometry" />
        </mxCell>
        <mxCell id="Mv9yUombfhzvIeVSTe7P-64" style="edgeStyle=orthogonalEdgeStyle;rounded=1;orthogonalLoop=1;jettySize=auto;html=1;exitX=1;exitY=0.5;exitDx=0;exitDy=0;exitPerimeter=0;entryX=0;entryY=0.5;entryDx=0;entryDy=0;entryPerimeter=0;" edge="1" parent="1" source="Mv9yUombfhzvIeVSTe7P-54" target="Mv9yUombfhzvIeVSTe7P-24">
          <mxGeometry relative="1" as="geometry" />
        </mxCell>
        <mxCell id="Mv9yUombfhzvIeVSTe7P-65" style="edgeStyle=orthogonalEdgeStyle;rounded=1;orthogonalLoop=1;jettySize=auto;html=1;exitX=1;exitY=0.5;exitDx=0;exitDy=0;exitPerimeter=0;entryX=0;entryY=0.5;entryDx=0;entryDy=0;entryPerimeter=0;" edge="1" parent="1" source="Mv9yUombfhzvIeVSTe7P-48" target="Mv9yUombfhzvIeVSTe7P-21">
          <mxGeometry relative="1" as="geometry" />
        </mxCell>
        <mxCell id="Mv9yUombfhzvIeVSTe7P-66" style="edgeStyle=orthogonalEdgeStyle;rounded=1;orthogonalLoop=1;jettySize=auto;html=1;exitX=1;exitY=0.5;exitDx=0;exitDy=0;exitPerimeter=0;entryX=0;entryY=0.5;entryDx=0;entryDy=0;entryPerimeter=0;" edge="1" parent="1" source="Mv9yUombfhzvIeVSTe7P-42" target="Mv9yUombfhzvIeVSTe7P-25">
          <mxGeometry relative="1" as="geometry" />
        </mxCell>
        <mxCell id="Mv9yUombfhzvIeVSTe7P-67" style="edgeStyle=orthogonalEdgeStyle;rounded=1;orthogonalLoop=1;jettySize=auto;html=1;exitX=1;exitY=0.5;exitDx=0;exitDy=0;exitPerimeter=0;entryX=0.105;entryY=0.358;entryDx=0;entryDy=0;entryPerimeter=0;" edge="1" parent="1" source="Mv9yUombfhzvIeVSTe7P-35" target="Mv9yUombfhzvIeVSTe7P-26">
          <mxGeometry relative="1" as="geometry" />
        </mxCell>
        <mxCell id="Mv9yUombfhzvIeVSTe7P-68" style="edgeStyle=orthogonalEdgeStyle;rounded=1;orthogonalLoop=1;jettySize=auto;html=1;exitX=1;exitY=0.5;exitDx=0;exitDy=0;exitPerimeter=0;entryX=0;entryY=0.5;entryDx=0;entryDy=0;entryPerimeter=0;" edge="1" parent="1" source="Mv9yUombfhzvIeVSTe7P-29" target="Mv9yUombfhzvIeVSTe7P-23">
          <mxGeometry relative="1" as="geometry" />
        </mxCell>
        <mxCell id="Mv9yUombfhzvIeVSTe7P-69" style="edgeStyle=orthogonalEdgeStyle;rounded=0;orthogonalLoop=1;jettySize=auto;html=1;entryX=0;entryY=0.5;entryDx=0;entryDy=0;entryPerimeter=0;" edge="1" parent="1" source="Mv9yUombfhzvIeVSTe7P-3" target="Mv9yUombfhzvIeVSTe7P-22">
          <mxGeometry relative="1" as="geometry" />
        </mxCell>
        <mxCell id="Mv9yUombfhzvIeVSTe7P-70" value="error" style="rhombus;whiteSpace=wrap;html=1;rounded=1;fontStyle=1;glass=0;sketch=0;fontSize=12;points=[[0,0.5,0,0,0],[0.5,0,0,0,0],[0.5,1,0,0,0],[1,0.5,0,0,0]];shadow=1;fillColor=#0050ef;fontColor=#ffffff;strokeColor=#001DBC;" vertex="1" parent="1">
          <mxGeometry x="1780" y="920" width="80" height="80" as="geometry" />
        </mxCell>
        <mxCell id="Mv9yUombfhzvIeVSTe7P-71" style="edgeStyle=orthogonalEdgeStyle;rounded=1;orthogonalLoop=1;jettySize=auto;html=1;exitX=1;exitY=0.5;exitDx=0;exitDy=0;exitPerimeter=0;entryX=0;entryY=0.5;entryDx=0;entryDy=0;entryPerimeter=0;" edge="1" parent="1" source="Mv9yUombfhzvIeVSTe7P-57" target="Mv9yUombfhzvIeVSTe7P-70">
          <mxGeometry relative="1" as="geometry" />
        </mxCell>
        <mxCell id="Mv9yUombfhzvIeVSTe7P-72" style="edgeStyle=orthogonalEdgeStyle;rounded=1;orthogonalLoop=1;jettySize=auto;html=1;entryX=0;entryY=0.5;entryDx=0;entryDy=0;entryPerimeter=0;" edge="1" parent="1" source="Mv9yUombfhzvIeVSTe7P-51" target="Mv9yUombfhzvIeVSTe7P-70">
          <mxGeometry relative="1" as="geometry">
            <Array as="points">
              <mxPoint x="1330" y="702" />
              <mxPoint x="1330" y="960" />
            </Array>
          </mxGeometry>
        </mxCell>
        <mxCell id="Mv9yUombfhzvIeVSTe7P-73" style="edgeStyle=orthogonalEdgeStyle;rounded=1;orthogonalLoop=1;jettySize=auto;html=1;exitX=1;exitY=0.5;exitDx=0;exitDy=0;exitPerimeter=0;entryX=0;entryY=0.5;entryDx=0;entryDy=0;entryPerimeter=0;" edge="1" parent="1" source="Mv9yUombfhzvIeVSTe7P-45" target="Mv9yUombfhzvIeVSTe7P-70">
          <mxGeometry relative="1" as="geometry">
            <Array as="points">
              <mxPoint x="1090" y="622" />
              <mxPoint x="1090" y="960" />
            </Array>
          </mxGeometry>
        </mxCell>
        <mxCell id="Mv9yUombfhzvIeVSTe7P-74" style="edgeStyle=orthogonalEdgeStyle;rounded=1;orthogonalLoop=1;jettySize=auto;html=1;exitX=1;exitY=0.5;exitDx=0;exitDy=0;exitPerimeter=0;entryX=0;entryY=0.5;entryDx=0;entryDy=0;entryPerimeter=0;" edge="1" parent="1" source="Mv9yUombfhzvIeVSTe7P-38" target="Mv9yUombfhzvIeVSTe7P-70">
          <mxGeometry relative="1" as="geometry">
            <Array as="points">
              <mxPoint x="850" y="502" />
              <mxPoint x="850" y="960" />
            </Array>
          </mxGeometry>
        </mxCell>
        <mxCell id="Mv9yUombfhzvIeVSTe7P-75" style="edgeStyle=orthogonalEdgeStyle;rounded=1;orthogonalLoop=1;jettySize=auto;html=1;exitX=1;exitY=0.5;exitDx=0;exitDy=0;exitPerimeter=0;entryX=0;entryY=0.5;entryDx=0;entryDy=0;entryPerimeter=0;" edge="1" parent="1" source="Mv9yUombfhzvIeVSTe7P-32" target="Mv9yUombfhzvIeVSTe7P-70">
          <mxGeometry relative="1" as="geometry">
            <Array as="points">
              <mxPoint x="620" y="382" />
              <mxPoint x="620" y="960" />
            </Array>
          </mxGeometry>
        </mxCell>
        <mxCell id="Mv9yUombfhzvIeVSTe7P-76" style="edgeStyle=orthogonalEdgeStyle;rounded=1;orthogonalLoop=1;jettySize=auto;html=1;entryX=0;entryY=0.5;entryDx=0;entryDy=0;entryPerimeter=0;" edge="1" parent="1" source="Mv9yUombfhzvIeVSTe7P-6" target="Mv9yUombfhzvIeVSTe7P-70">
          <mxGeometry relative="1" as="geometry">
            <Array as="points">
              <mxPoint x="380" y="292" />
              <mxPoint x="380" y="960" />
            </Array>
          </mxGeometry>
        </mxCell>
      </root>
    </mxGraphModel>
  </diagram>
  <diagram id="noUaXsMGeUF6hGRTmGap" name="noop">
    <mxGraphModel dx="2366" dy="1510" grid="1" gridSize="10" guides="1" tooltips="1" connect="1" arrows="1" fold="1" page="1" pageScale="1" pageWidth="1100" pageHeight="850" math="0" shadow="0">
      <root>
        <mxCell id="0" />
        <mxCell id="1" parent="0" />
        <mxCell id="IU1gT5oyCvHSWPRl64M7-2" value="input" style="rhombus;whiteSpace=wrap;html=1;rounded=1;fontStyle=1;glass=0;sketch=0;fontSize=12;points=[[0,0.5,0,0,0],[0.5,0,0,0,0],[0.5,1,0,0,0],[1,0.5,0,0,0]];shadow=1;" vertex="1" parent="1">
          <mxGeometry x="40" y="80" width="80" height="80" as="geometry" />
        </mxCell>
        <mxCell id="IU1gT5oyCvHSWPRl64M7-9" value="output" style="rhombus;whiteSpace=wrap;html=1;rounded=1;fontStyle=1;glass=0;sketch=0;fontSize=12;points=[[0,0.5,0,0,0],[0.5,0,0,0,0],[0.5,1,0,0,0],[1,0.5,0,0,0]];shadow=1;fillColor=#0050ef;fontColor=#ffffff;strokeColor=#001DBC;" vertex="1" parent="1">
          <mxGeometry x="580" y="80" width="80" height="80" as="geometry" />
        </mxCell>
        <mxCell id="IU1gT5oyCvHSWPRl64M7-21" style="edgeStyle=orthogonalEdgeStyle;rounded=0;orthogonalLoop=1;jettySize=auto;html=1;entryX=0;entryY=0.5;entryDx=0;entryDy=0;entryPerimeter=0;exitX=1;exitY=0.5;exitDx=0;exitDy=0;exitPerimeter=0;" edge="1" parent="1" source="IU1gT5oyCvHSWPRl64M7-2" target="IU1gT5oyCvHSWPRl64M7-9">
          <mxGeometry relative="1" as="geometry">
            <mxPoint x="350.75" y="202.090909090909" as="sourcePoint" />
          </mxGeometry>
        </mxCell>
        <mxCell id="IU1gT5oyCvHSWPRl64M7-22" value="error" style="rhombus;whiteSpace=wrap;html=1;rounded=1;fontStyle=1;glass=0;sketch=0;fontSize=12;points=[[0,0.5,0,0,0],[0.5,0,0,0,0],[0.5,1,0,0,0],[1,0.5,0,0,0]];shadow=1;fillColor=#0050ef;fontColor=#ffffff;strokeColor=#001DBC;" vertex="1" parent="1">
          <mxGeometry x="1780" y="920" width="80" height="80" as="geometry" />
        </mxCell>
      </root>
    </mxGraphModel>
  </diagram>
</mxfile>
